<mxfile host="app.diagrams.net" agent="Mozilla/5.0 (Windows NT 10.0; Win64; x64) AppleWebKit/537.36 (KHTML, like Gecko) Chrome/138.0.0.0 Safari/537.36 OPR/122.0.0.0" version="28.2.7">
  <diagram name="PÃ¡gina-1" id="EgtJ_iviaapTtXuCO-uR">
    <mxGraphModel dx="1381" dy="790" grid="1" gridSize="10" guides="1" tooltips="1" connect="1" arrows="1" fold="1" page="1" pageScale="1" pageWidth="827" pageHeight="1169" math="0" shadow="0">
      <root>
        <mxCell id="0" />
        <mxCell id="1" parent="0" />
        <mxCell id="wbXJewdLWCWZfphDHLaT-2" value="" style="shape=image;verticalLabelPosition=bottom;labelBackgroundColor=default;verticalAlign=top;aspect=fixed;imageAspect=0;image=data:image/png,iVBORw0KGgoAAAANSUhEUgAAA3YAAAL7CAYAAACx9Bc/AAAAAXNSR0IArs4c6QAAIABJREFUeF7snQeYVEX29t/pyTOkIc4w5KRIBkGCCRBEJauYXQXTmsP6X1dXXddVdxXDrq4Z3FXXAAYEBAEVUFREcpKM5BwHJofve6up4XbTPTl097z1PP30zO26Vad+dR375Zw6JywvLy8PaiIgAiIgAiIgAiIgAiIgAiIgAkFLIEzCLmj3ToaLgAiIgAiIgAiIgAhUMgH5SCp5Aypx+rCwsEqc/dSpJewCajtkjAiIgAiIgAiIgAiIQKARkHgLtB0JHnsqUvxJ2AXPcyFLRUAEREAEREAEREAEKoBAQUJOIq8CNiDIp7Bijs+KU9iVt8iTsAvyB0fmi4AIiIAIiIAIiIAIlJ6AU7DZL+T2mvfv/maT6Cv9PgTDCIUJNH7uFHXev3ONhY1REg4SdiWhpntEQAREQAREQAREQASCnoAvIeYUc94L9BZ/QQ9ACygTAt4izZdos9eK0rekRknYlZSc7hMBERABERABERABEQhaAt6izpeg83ftZE75k8nl5a0L2kehRIZ7CjR3EhXmUvEl4Jweu/IUeBJ2JdpK3SQCIiACIiACIiACIhCMBIoq6Jyizi3k8kx4nfnJUS1Mgi4Yn4Kys9nXGTr3tbBThJ7/viftKU2IpoRd2e2rRhIBERABERABERABEQhwAhRi3gLNnofKzc011ufmso/7Z/fv7p9PFXbus1TuptLQAb71ZWye9dLx3b33Tm/cqT+HweVy3uPu7y32JOzKeJs0nAiIgAiIgAiIgAiIQOgRcIo6b8Hm/oziLdeINX8eO28RKI9d6D0nxVmRU5x5hlmeFHJW9Ln7uozA8w7J9CUKi2OHmUMFyouLTP1FQAREQAREQAREQASCiYAvLx3tt9edHjrva07hFh4eDpfLZb6U850vp6cmmJjI1rIhcNLLm2s8u/blmRXTLeacAs8+R7zm/Rz5O4dXmMUSdoUR0uciIAIiIAIiIAIiIAJBS8Bf6KUVdjk5OR7eOX4xt/fwCzfFnBV09gu4U8yVJnQuaKHKcEPAijdvTzB/53N18pV7wkvnKfBcLv5Dgafg8362ivN8SdjpwRQBERABERABERABEQhJAr6+cNtrfLfeFS7eeu14nUIuMjLSwztXnC/YIQlTiyoWgZOe31wj8LKyspGbm3PiXB29vm5PnfXc2ZBOXyGaRX32JOyKtUXqLAIiIAIiIAIiIAIiEAwEChJ1FHFuz5w7dM72paCLiIjI99IV9Qt1MPCQjZVHwOnBy8rKMv+IYIWdDet1vpc0qYqEXeXtsWYWAREQAREQAREQAREoBwIFizrnWShmM+QrDJGREfmiToKuHDZFQ5p/QMjOzjYePL67Qznd4Zluz53bk+cUeRabMwzYH0oJOz1kIiACIiACIiACIiACIUXAJrTgopwhcc7EFrYPvzAz7JKeuqJ8eQ4pUFpMpRDgs0dh5/be5eaXPbChmc7EKv5CNH0ZLmFXKdupSUVABERABERABERABMqagGeJgpPFxJ3n6Zzn6hh6GRUVZUIv5aUr693QeIURoLDLzKS4yzFeY+u5c2Ze9VcbT8KuMLr6XAREQAREQAREQAREICgJFFfU0UNnRV1QLlhGhwSB7OwcZGZmmPBM651ze+7cGTOdHjvvYubeAOSxC4lHQosQAREQAREQAREQgapNwFvYFRSCydDL6OjoYoVeZmXn4Hh6Bo6lZyAtIxMZ2dnIznEnXmELd7kQFRGO6KhIxMdEo3psNKIjmFnTnc5eTQT8EaCoy8hwizs2p7BzZs7kZwXVuJOw0zMmAiIgAiIgAiIgAiIQ1AScoo4L8Uw1z2QpOfnZL4sj6jhOakYmjqalY9eBw1i3cw827dqH3YeP4vCxVKRlZiEnN9ewi46MQI24GNSpXg1N6tXG6Y2SzHvtGvGIj45GZER4UDOW8eVLgGfuMjMzQQ8exVt4uLsUgndJhILEnYRd+e6RRhcBERABERABERABEShHAlbUWUFnk6LYs3Tud3d5gwh61KKjzZm6wlpGVjaOHE/Fkk3b8N3KdVi/c4/x0NWrWQ3NG9RFw9q1kFA9HtEREeY6Rd7uQ0ewZe8BbN13AMfTM5FUuyb6tG2FM1s3Q9P6tREbHWU8e0Vp/KJPm22BdLs+W/SaYaSFnQtkX5ucg6GnJWm833qSKIptI/e0tDTExsYWakdJ5q2K95wUd9n5go77X1itO8tKwq4qPjVaswiIgAiIgAiIgAiECAFfZ+usGLE16vjOL8cUQ05x4gsBx8vMzsaiDVsxcd5CrNuxG8m1E9CnXWv0bNsSjevVAcJczHWBGJe7WAKlGv12fM/KBY6mpmHpxi2Ys3wNVm3diZioSFzQuS0GdWuPBrVqIKIIwnL79u04cOAAEhMTUb9+fSOeGK63Y8cOc71z586FrmXfvn3Yv38/atasiYYNG5Zox48dO4a9e/cagdmkSZN8sUnv0tSpUzF48GDDVa1sCFDcpaenG6+z02PnTKjCmXyFZErYlc0eaBQREAEREAEREAEREIFKIOAt7E566HLMl2N6m3gMLiYmukgChOfnxs+ah68WrUKd6vEY2bsrzmnfGnmRcVh7NAcrD+fgWHYeutSOQI864dh8LBen13Rhy/E81IkCpu3IRo3IMLRPCEdiTBjWb9+JL+YvxbzVG9AysS6u798bPdo0L5TUjz/+iJUrV6JTp07o2rWrEXE7d+7ETz/9ZDxlF110EerUqVPgOOxPgch+LVu2LHROXx0oNCgo2fjz5s2bjajktXHjxmHMmDHGC6pWdgQominubD0767Xz9tw5BZ75Oc/pvy47ezSSCIiACIiACIiACIiACJQrAWchcvuV1oYfukWdO4wwOjrKiLqC6tTl5uXhUMpxPPfpV1i5dScu7NIOg8/qBFdcTSw6lIeVh3NxOCsPseHAmbUj0KteOH45kIO07DwMaRyJp1dm4LbWUUjNycOE37JM3xbVXOhV14WGkdlYtmETPv1hsUnAQrE4rFcXuFiN2k+jsKPHrVatWmjVqhWSkpKwfv16zJ8/33jx2rdvj8OHD2PhwoXGi9auXTt06NDBCIJFixZh9+7dxsvG+1u3bo2YmBgsWbIEqampRuidffbZ5hrbggULkJycbDyDFI4cv2nTpkbEcQ72P3LkCA4dOoRff/0VzZs3R/fu3fHJJ5+gTZs2xqPXoEEDc43zqZWOAEOHKZyzsjI9vHa2LId9jm3GTDubhF3puOtuERABERABERABERCBSiLg9NadDLvkebqT3jp+Cbbn6vydSWMClD2HjmLsZzPw254D+N0FvdGtTQusy4jBooO52JOeh8xchr8BHWu50D8xAluO5WLW7my0qxmOYY0j8dCSdLSq7sJVzaOw9EA2vtubjWPZQHwEcHoNF7onAKmH9uCLn5aa8M6hZ3XGFef2MGP6ahR2PBd39OhR1KtXz4RB/vbbb0aw8Tq9ZjzfZs/iffXVVxgwYACWLVuGhIQE03/Xrl1GHDIU0669cePG2LJlixF99ASy0TPIkEuKuTlz5hgh16JFCyPq6D2Ki4sz/TguReDFF19sxnvzzTcxaNAgI+p4H23i+CU9z1dJj1FATusrJNMt7JhQ5WQZBBqfH5Ypj11A7qWMEgEREAEREAEREAERKISA9dg5363HziZPoVeKYYz+RB09dfsOp+DFSbOwdsdu3HrReWjbsjkWHI7AqiN5xvOW465ogKbxYTi/QQSiXGH4YnsWjmbloWuCW9j9cUk6IsJgRF/X2uGYtjMbvx7JMYIwJhxoEucWd3Fp+zHl56VYs20Xru3XExd2be9X2MXHx5uwSwolfqk/fvy48YhRsJ1xxhnGi7Zp0yazto0bN2LkyJHGg0dvHoUZz+PxxULYKSkppn+1atWMGOSZu7POOsvMTfH47bffGoHGzyjyOGft2rVNf87L+enRo8dwxIgRxqP01ltv4YYbbgDtnDlzpvHkURwqNLP0/+mas56ZmYazrWnHd2bLtCGaVtRJ2JWet0YQAREQAREQAREQARGoJALOMExnJkz3mTr32Tp66yjs7NkkX6YeTDmOCd8vxFeLVuC6fr3Q/YzT8f3hCKw+kouULHdyFLa4cKB3/QicUdOFn/blYNGBHESFw0PYsV/NSODqZlFIzwEWHMjGxmO55ufIMKBRvFvcVU/diwnfLcC+o8fw4KUXok1y4imm0WNHUVW9enUj5Pbs2WNCJBs1aoQ1a9YYEbV48WL07NnTrHXWrFnGk8Zwy2bNmpnwzW3btpl7KbQoECja2rZta0I3KXYp5Nj4+5dffmkEHcMprSA8/fTTzXw8p0dhR88hQzUpICk6nGfsOD+9hBR2NsSzkh6NkJmW+0Vhz8Zn2Jkh0/lM5xcxl8cuZPZeCxEBERABERABERCBKkPAhmHaEEx7ps5ds84djlmYt4416n5ZtxlvfvUdzjqtOa4+vye2ZsVg+eFcpGTnmaQrtiXGhqFTQrhRej/uzzaiL9oFtK7hQp96EXhjfabpysjKLrXDcVoNF1JzgNWHc7At9YS4cwFN4l3oWD0X27Zvw5szvkPT+nXwyKhLTJ07p1eRAo2eMJ6tozeOwu60004zYZH8nSKK590o6niNiVL69u1rvG8UYhRebAzXpHeO/ejdozjgNQo/CkXbVqxYga1btxphx7N0HIMijV46Cj0KCYZo0mPH0E6erWP4Jb13PL9IIcpzerRXWTLL5j9DT6/dSWHnTKLicd5Owq5swGsUERABERABERABERCBiiPgDL+0HjsbhmnrrlHw+KtZx/tZc+6tGd/jwNFjeHjUJWhUtxb2ZcAkQMl1iDquKj4izGS7zMzNw4EM94euMKBaRBhqR4fht2PuQuW2b628DOTt3YNjcTWRGl8T2ScGZBhnQlQYcjLTMW3hcnw4dwHuHTbAZN6MdJRBoLhiOCTXwDBKJkWxiUnoWaM3j9d5Ds4KKSvUWOLAhnDyfvblelkmgeOwP71vFI62cUy+eI6OniImWaEApLfPeo34M8emaKTg43j06FFc8Dr781VQkpqKe0JCYybrtXNmyLQ/eydRUfKU0NhzrUIEREAEREAEREAEqhQBZ/glF+6sXUdhx1BDChh/wi4lLR3frViHD+b+jJF9zkSvzp1Mlstsp5vuBNHkWBeaVXMZQbfmaE4+58iwMDSKc6F9ggtTtmcZbx3P1yW5MpEycwZSFi9G9W7dUK1Xb+yJq4Nfj+bgeHaeyYZZOzIPTVwpeOGzGcYz+Lfrh6NmnIp9V6mHuAiL5XNNYW1rMdqQTCvu8sMww8JU7qAIPNVFBERABERABERABEQggAg4wzCtqLPhl+4SB9nGc1RQ0pRNu/bhf3N+xoGUY3jg8sFYmBJtMllme3nqOP559cPRtmY4Fh/MwYIDJ4Udk6LY5CnMitkpwYV+CTmInfc1Dk2cgLRNmxDbsiUSLhmM4z3Pxy9IwNKDOUjLARrGhWF4wzBs2LAWL0yahaeuG4GuLZsgKjIigEjLlMom4AzHdNaz81WwXB67yt4tzS8CIiACIiACIiACIlAsAr7LHLhr1tmC5PHx/sMws3JyMH/NJvzn6x9wTrs2uKBXT3NG7khWXn6yFGsQk6YMbhRpMlt+sysbO9JOKj8r7EY2icT4jZkYVB+I/+lb7H//faRv3Ii87GwzTGzr1qg9YiTSevfD/KzqWHrILQ7PqutC7xoZuPv1D3Bm6+a49aJzjdeO5+l45o1hlsx+yTp0FKlsPEPHs3U898YQS5Y4SFu7FrkZGYht0wbhsbHFYlkWnZk4hXZ17NjRnP1jyCbLMqxdu9aUW3A2CpIaNWqYM3o2jLMsbCjJGN52h6elIX3rVkTUqIHoJk0Q5nKVZNgyvYfPOr11zEzqL4FKfkimztiVKXsNJgIiIAIiIAIiIAIiUM4ECipzwDNJNkGIv7NezIT55S/L8e3yNbhr+CAci62HiVuzfFrNEgcDkiKxOy0Xs3ZlI+PkUToj9uixG9U0EluOZKLW0h+x+623kL5pU76os4PGnn466lx6GdLOOhfz0qthxeEcczZvTHMX/vPVbCzeuBVjR1+OpNo1TXKUf/3rX0bcXX755Rg1ahTq1q1rhqJYevvtt03tOQqpZ/72N2wbOxY5R46g4e23I7pRowoXJKNHjza18X7/+98bocnkKqx398EHH5i6egwX5J7YfeP5vh49euDKK680mTn9hcuW82MEb7vDVq/GgWnTEHfaaag7fDjCq1UrbxOKND658fwjU/Ow3IGvcEwOJI9dkXCqkwiIgAiIgAiIgAiIQKAQ8BZ2tmad9djxbB1f/oTdhl17MeH7X3D4eBruHzUMk3fmYsVhh2JzLPTM2uHoWiccqw7n4Id9J8Mw2aVaBMM0IzCwTg5SFi3CjpdfRtrmzUCOZz8zXFiY8dzVHXWFEXffHo/HltRcjGwUjqO7fsNfP5yCf9x4Gdo1bcgDg3j++ecxd+5cdOnSBVdffTU6dOhgvJEUTGPHjjVi6Zqrr8bQiy/GxiefRE56OprefjtimzVDWHi4SYDCs1nuOmguk4SFnjTeR36sbUduFFVM0sLrvIdzWCFmBZcdi/fwGseyHkQurSBht3r1apMts2XLlmZsJoVhuQbadffdd+PCCy8049mzZNZeZjR12st7rWinDUwcw89tzTwmheGLzV53Cka7Zgok6zW86aabPARp1i+/4MCsWah2+umoN2QIourWzS+dQY8ZbWD5CcuK45Adx6Zt9twbOXEdfAYZEszP7V4496Go/z2RDdfGOTgf53WGYqrcQVFJqp8IiIAIiIAIiIAIiEBAEfAWdjxX5y5z4A7H5Bd7fqn2V5R80YYt+Pi7X9C4Xm1c2v98vLYu0xQi99UuSIxAk/gwk1jFKf5Yl65ltTAMrZ+LmutXYNtzz5kwPooytvDq1RHBDJOHDiEnJcU9NMVdy5aod+11yOh5LuYcjUbd6DB0r56B654fhzEDz8bAru1QPTYGn3zyCT777DMjpK699loMHDjQhOOxEPgrr7xi6tg9/vjjppTBvKlTkZ2Vhc7nnouEunWNiKAHbcOGDUZIkQfLEFBc8Z0CYf369SaTJT1mLKPAeRjeyfso2jg+yxuwqPnmzZtNKQSKIgoVCrXGjRubuQsTdr/99huGDh1qxB/3huM89dRTxit5/vnn45577jFlKXid5Rhory2GznILzPRJEcN6fLSNYZy0wXosGfq5d+9ecy9DWPkMsLA67aOd9B5yvczgyTVzHq6vXbt2eOaZZ8yab7/9duNp3LtrF7atWoW6DRqgRefORnCSOW0lS2YDJReKO47HDKJkSkasGcjnzWYO5efkx89pEz2tXBv5s5YgPbAUaUVpfN4p7KywJh8rvpU8pSgE1UcEREAEREAEREAERCAgCfgTdrbcAb+QF/Sl+buV60xR8nPat0GXTl3w8lp3zTdfbXijSNSMAubtzTHFxtko6kyIZu0cNN6+BtteeMGcc7PNFReHhH79UKNPHxz5/nscmTcPOUeP5ou7mBYtkHjzzcjr3htLU6NwQVIErvzHGzi7XWtcdV4P1KlezQgXFgBftWqV8djxRXEzYcIEfPvttzjrrLPw2GOPmbIEDGmkAKFQ6dy5M3755Rd89NFHRsRQaFAQkBnvufHGG41wevXVV03tuf79++Pee+814mry5MkmfJLChf041uzZs81YPCtHQUWRRKFiRRlF0pgxY/yGYjqFHW2guHnhhRfwww8/mJp5f/rTn4woYngpBZT1gHEvO3XqhCuuuMKcxZs2bRref/99c4aPYoZ96fGjJ/O9997DwoUL3YI6PNx4yyjsLrvsMrM+Cliu7dNPPzW2kwkFLXlSBFthx7VPnTrVcKKYZh/W7aNtFI+2fAZtoNfxzDPPxG233WZCZidOnGiEHxlxjVYEs8g7ry1atMiIM66L+8UQWwrDojTfCVTC4XKF5XvujMDTGbui4FQfERABERABERABERCBQCHgXcPOOxSTSUUKOrc1c8kqTPx+IUae3QMNm7fG+5t8n6/jei9tGolIVxi+35ONHam5pnYdSxz0TchB0+2/niLqwqKjjahLuukmk4CDgm/vxIk4NGsWclNT88VdVKNGaHTPvYg+qyfiYqNx75sfoW7Narj5wnPRoFYNIwJ4zo4JPvr162eEBsXVW2+9ZYQDxcGwYcOMoHMKO3qDGMZJ4dStWzf07NnT3EeBQhFG7xkFVVGEHb1K9BxSNNHz1LVrVyPgZsyYYcQKx6DI8Q5pdJ6xoyeN3kbayH2ih+zvf/+7EUq8TlH1zjvvGJHJs3cUk1wT52RCFtrLIugUduPHjzdChuOzpt91111nxBkZUXByXazNx3spvMjtzjvvNMLr6aefNuKWnjp63diHtlBo3XHHHcZj5xR211xzjRFqr7/+uhHX9BySJ+dbvny5EY+9evXyEHYs6k5OZMKf6aXjc0hhypBa2kHPH22nuKUdRWk21JMi/mQoplvYeZQ9kLArCk71EQEREAEREAEREAERCAQCzoyYNmOgt7Cjx6mgItnTFq7AJ/MW4ncDzkHTpi2w7ESWSl/r61I73FzekJKLlKw81IoKQ+vYXFTfuMokLXF66hAejoT+/ZF8112ISkzMDwVN27gRez/80CTmyMs84R0MC0NkgwZo9thjptbdv6Z8iyNp6bhl0LlITKhp5qSoopeJgofCiF6gF1980QiHhx56CM2aNTtF2FFEvPTSS8ZDRM/ToEGDjOeJXitm2aSY4HhFEXYMZVy8eLHxalEQcV6KkyeffNIIDHoI6TG7+eab/Xrs2J/7Qe8UhRLtoAeRIvOBBx7Aueeea8JLKbIonCiM6I2jB4yJVy7+/2cIKeCssOM4//d//2cEKxvPIbI/100b+SzQw8j+HJvc5syZY1gytPPll1824o+i65FHHjEhlb6E3VVXXWVs4lopcCkQzz77bCME77//fpOZlELS6bGjuKQA57lBelUp3ihCf/e73xkPJz2pjz76qLGbAr1Vq1ZF/k+KzCjsKBTdZQ9Oeuw4iDlzJ2FXZJ7qKAIiIAIiIAIiIAIiUMkEChJ22dk8Z+dOcFGYsPt03iLcPOhcdGvT3GftOrtMhl0yGyELl/PHCOQhbcVybP/Xv3B8+XIPGjV690bTP/8ZkfXqnXK+j0lV9n7wAfZ//vnJeyjueA5r7FhkN2mGj39YhOG9uqB+rRqmD4UNwwzpJWNIIcUQQzF79+5twjDZvD12DF+keGEIpU0mQiFDTx4Fx3nnnYeDBw8WSdjRI0WPG8dasmSJETo8T8bG0M2iCDuuwdnoYaLHavjw4UZ08SwkPXNff/21SQzD83y0zyYKobC7/vrrjVD773//a8QQvWi2sd/333+PefPmmTN09ATSm8ZGYUevJsMwKaq4dopC22699VYjCinOvD12vI9rp9eUApoizYZOvvHGG2ZMsnYKO4Z4Utidc845RnBShPMehoy2b9/eiEGeKWQrjrDjM09Byb2WsKvkP0CaXgREQAREQAREQAREoGwIlIWw+2rRSkyctxBX9u2Nuo1a4vNt/kMxBydHIMoVhp1puWgRDyRvWoFd48fj2KJFyMvyvK/R3Xej7siRcMXHnyLsco4fNx67na++ejKZCpGEhyO6YUM04Xm55CaoU7sWIiPcXkJmfnzzzTfx1VdfmbpvFKwUeQxN5BktX8KOIX8URgzF5IuhfxQEFIVMdnLJJZcY4eHLY8dkLR9//LFJUMIzdnynx5BeO/7Mmnp8ZygmPUhFEXacn54uzstGOyh2KDb54n4yyyeFF8V4ixYtUL9+fSPS+HIKO56xo4eQ/W3jNYpCCk56FClgKdYYaklhx1BOijB6MPv27Wu8hLZRlNG+woQdPX0Mb2UyFDYKyylTppwi7Ch2GcIpYVc2/61rFBEQgRIS8Jc5rITD6TYREAEREAERKDcC9v9ZzpTvNgU833mejEkr/J2z+2bZr+aM3aDundDytHZ4c73/5CnDGkWiWTWXSZgSt3YZjn7wPo7Mn4+8E14h5yIZWpl8++2odd55HjXQWDz88Ny52PPee0hlkpUTmTPz73W5ENuiBRo/+iji27SB60QxcoYVUmzRS0eRx/VQZDAskAKGosjbY8ewS3qGeA6PIolCjCUH6HWjB4rePtabo8eI4YJ9+vQxYZ08M8dsmzyvRmFFYUeBSI8hwwmZiIQeKiY6YcKTooZi0gM3ZMgQE47I5szmyN/pBaT3kYKVAoteQma35Lp//vnnU4Qdz+D94x//yEfHM3oUZxSO9LpZMTpp0iQj7CiAGeo5ffp080zQi0bbd+7caUIqOZevUEwmbaFtzOBJQUfbKAzpBSUvMvUOxaSwo8eOQra8PHbeZ+ysZ1qhmOX250YDi0DwETB1bY5MCD7DZbEIiIAIiECVI+BOngLzys3NMzrJlDrIZchaHuLrDUBENAt6u3yy+enXjfj4+1/QuWUT9O3ZE//8NQN+qh2gX4MIdKodbsoSRG7ZiD3vv48DX37pntxHY8KUhrfdhpq9extxl5uZiSMUdR99hNTVq0/x8tkh4pjU48knEZ2cbOrQ2UbPE5N6MBSSYYv0BtHrZOujeQs7esPoxaLYYRFwevB4rs2eReP9FCkUTuxH0TZy5EgT+kiht3v3bnMOj8KOYY3vvvuu8RTyrB5FJcehUCpqKKYzK6YvXhSKPOvGd3q76JFbunSpORdHu709dt7CzmbkZJglhRzvoTjlGTqKVpZZYCIVnjukzRdccIE5x/fTTz8Zrx7DNv0lT6GIe+2117Bu3Tpzho8F4Tk+94Ln3byTp5SXsCM3nk/kWUclT6lyf+60YBEoPgEJu+Iz0x0iIAIiIAKVQ8AKO4o6t7hzC7vcPNYGz0VMwtmIjE1GWJjvOmErf9uBj75bgOioSNwy7GL8Z1MWtqf6LlDetbYLPetGoFpEGCIz0xC3dgW1HTTAAAAgAElEQVT2Tphgyhj4E3exbdqgwfXXG3HHxCn7JkzA4e++8+nlg8uFmObNwTDO+K5dER4T4xHGSSFBrxnDCZmZkWfTRo0alV9o3FvYsSbdF198YTxUFAOs6cbzWQxV5P0sm8CkKsz0yFBKZsxkMhWGSFLAUWAxZJPCjuKRopKlF+i14tk4sqf447z0/FF48awaPW78nV4zZ1bMwoQdxQpDK+llpbeNNvBFu5hZkl4yesF4ho5C1FvYMVSVoaG0i2vlvVwrPXL0anIdtOfDDz/EN998Y0oWcB6KZHpB6ZX0FYrJOcmFdjEZCz2PHJtMKJ4Z7kmPHdduyx2Ul7DjM56RkW72056xUx27yvnbo1lFICgISNgFxTbJSBEQAREQAVBPWY+dFXZur11Obi6ys3MRXaMboqu3RFhYlE9e2/cfwmc/LsbaHbvxwOVDsTg1BnP3ZPvs2yguDBcmRZrkKUez8tApOgMRa1Zg38SJ/sVdWBji2rZF/auuQkzTpjg8Zw4OTJ6MrP37PeYIi4hATMuWaHjrrYg780xEnBB1zuMR9KQx7I9eJwoShhMymQcbOfCsG2uv8Z3eOFufjfdQjNgQTgozntNj5kiWg6DHiefa6NnjvRRzzP5IIUnxwn4UMpyXwo4ZOfk5vXZMdsLfaQvP3dFDxmsUXfycSURYFoAhobzOhCdMHuKvsR+TrNBDSNtsUW/+Trso0Pgz18QwUXrmbKMQpQeNNfvozSIbCiyGonIsroNrZz+es6Pg4+e8TgbkwxBT2k07KNjsnLyfwo8MOD8bGbA0AxO2MKyVwpGCix5Czk9b6d2z83EulongfczASa8oG0s9FKeOnXeBcmcYcn6RcmXF1N9HERABEpCw03MgAiIgAiIQLAScws7Da5eXZ4RdZFwrxNTsiDBXrM8lpWZkgufsmBnz6n59kNysFd7akIkcH9GVMeHA4ORIxEcAKw/noGX1cPSMz0TqsqWmhMHRn37yjS0sDPEdOqD+qFGIrF8fh2fPxsEZM5B98KDpb0RdixZIGjPGnMnbuPcgmtSvjcjw8FMSr1B48cX/V9PTZM8O2kQy9HrxZwoqfsZ+FAIUVfyMIoAihcLQeS+9nBRA9OjRq8XPKCTZ6MGjUKFoofjheEx2wjF4jffwc9rDzzgWf+Y1zs/PaTOv237+ni/aTi8bvYAUQhSUbLyfttMWW6SbNrKPs1Fk0kb2pX3sTxvtOvg77aCQ43r5O4UW10o7rd2cj9c4B/tQLNLzyT42MQv78CwiE7vw3CHDWCnQeN3JjePQBrtntI022EylFM8FZW51rs9tO/c4N39/3SUPXGZ8Cbtg+cslO0WggghI2FUQaE0jAiIgAiJQagInM2PaM3b02OWZUEwKO1dkbcTVORuucLdA8G68f/nm7Rg3cx6SatfCmMED8OHWbGxKyYOvgMyz64WjXa1w7E7PRXRmBrrl7kcuBdH/D0fkmbuUhQt9r4mCqnNn1Bk8GNFJSTg0Zw4OzZyJnGPHTLKUeldcgerduyNj61YcbNwMyQ3qGmGnFhgEKN7GjRtnzvzRi9e6dev84ukM02ToKc8wUqSVZ3OXOkg9kXjGZQSd82U9vKpjV567oLFFIIgISNgF0WbJVBEQARGo4gR8CTubSIUJVHLzwhFXp2+BCVT2HD6KyfOX4vtV63HfyEHIrdkAP+3L8VnTrmmcCx0TXKiZl4nUlSuRN/drc76uzsUXIzslBXvefRfHlizxK+7i27VDvZEjEZWcbMIyee4uoV8/VOvaFQenT8ex5cvNmbwa3brBFR1dxXc3cJZPTyDPIn733XfmzB+9bfQ+8qwhwzdZdJwewvLMLM5nnd4/W5zcLehYpNwt7qy3jtQk7ALn2ZElIlCpBCTsKhW/JhcBERABESgGAXco5snMmCezY+aZzJj03sXU6o7I2KYIc/kWSlnZOVi2eRtenzYHbRol4aaLzsferAik5rg9f84W7QpDg9gw1MpKxZGZM7DzjTeQl52NWuefj3qXXWbCK3nNZykDDuRyucMyL7/chF9m7tljatcxNJPhnCyHwHN29a+4Ir9MAr00DMGzItYmyyhq+F4xcIZcV4ZA2tBU78XxOkNUiyrIuA/sz9IHth4gk9DwLKO/chplCZT2MnOnr8Qp7kfLnfnVCDydsStL9BpLBIKXgIRd8O6dLBeByiCwaMkmnHvx47hsWE9cNuwsfPLFz/jv63dUhikBNyfZjLj2OXz+/oPo1qVFwNkXKgZ5n7MDwkwYZm6eO5FKeHQjxNTsDFdEDb9L3n8kBZPmL8XMxatwx5B+6HV6C2xNDcOu9Dxkeam7uIgwNI7JQ83f1mLvBx/gyLx5CHO5UKt/fzS49lqk//Ybdo8bh7QNG4zo826umBgk9O+PpFtvNWk8WTKBYZwsch7fsaPJihl72mn5NeyYrIOCguKO/4/muTKe5eJZOTX/BPhcMAEMuVF8eTd6v5jpsmfPnsb7FuiNwpLnJLkemxHTZ+IUCbtA30rZJwIVR0DCruJYa6aKIfCPFyfhob98kD/Z3/9yNf5433Dz++9u+zfOOC05/3dfFhWlT3mvZNfuQ+h5wSN45bnRGHLRmcWazgqv1NQMc19cXDS+m/ZEiYUGbbnosqcx7uXfmzHI94zTG2H1mu2G8+SP/q/YNjoXNGX6Qtz54HjM//opJCUmFGut/jpzzKFXPuvzGSCfMXe9humfPIyFSzbi+VemYurHD6FaNc+kDCUxhM8OxW5x9qw81u+0w/t5OO/sM05ZrzevJo3rnrIf3uNcf9V5+YL+2LF0XHvLy3j0wUtL/JwVh7cVdrzHXcvO7cGzHrvcvGjE1u6FyJhEv/XsmEVzy94DeOmLr5GWkYn7hg9EWmwdzN6Xix2peR5hmXHhQJ/6EehXLwy5a9dg73/GI2XBAuONqzNkCBKvuw7HVqzAnv/8x4RaOsWdSZTSrBnqDB2KGmed5S5W/u67xlPH7JmN77/fvDvr17HOGsP/mJ6fiTzoYWrcuLFJcsKQQOuRYsIU66GiZ4cCkP35/3Vep5ChKGDjZxQHNpEI33mNyUOY/MMmKLFj87ozzJDXeQ+FBsfl3LyfP1ub7Pw2EYmdmzaxH192TQwvtHZyLDbaTMHF3+1nXBft5n1snN98b8nLM+fbnB4tm5GTgoi8+Blt4fy8n+Pz3Bzr39k57ficw3pKbbITzsXGeTgG+9qQTF4rT6+dDcN0r9d1IvySSVPC8s/Y5Z+vk7Arzp8P9RWB0CYgYRfa+1vVVkfR8eq4mflfSq1Aun3MwALFnJNTMAs7+wXdKbZKKxy8hV1ZP1Oltc/bHu9ngKJj8BV/R9PG9YwQcQq7shKSpWFS1uvneNaLasXYR+PvyRebfL63bNuXL+7I66/Pfuoh/nlt+tdL8/twzCtH/9Ojj/c4nOvJ5z7F+2/eVSYiuSCm3ufsfIVjRlVrh6hqreEKj/c7VHpmFpZu2oYXPp+JZg3q4pZB52J/RC38sN8t7pyFy5vFu9A3MQKt4/OQtX49Drz5OlIW/mLO29UdOdIt7pYuxe7//hfpmze7xR2zODZpYs7YVaeomzMHe957zy3qTjsNyffcg+qdO59iH1PqU3iwWLgVEBRJFHssJcBGkdeiRQvzO8MEmRmSv9OzR8HBGnKHDx82IoiCiiGELBfAtPtMx89rdgym9ef9PFdGIcS+SUlJ+eKH87E/+zFbJAUS52EpA5YQoF0URcw2yfvoNWMGSu4Tr9PTSFFEO5mIhOUFWH6AYosZMZkJk2KKNvAaSwZQ4HFs2ksGvMZxmMyE/Sm0mMSEdfU4BkUlxRyFEOekfbSVnk/ezzIKZOot7DZt2mTGY3/2peBkP47DWnq0g+OyTh7LIZApPydrZ6bR0vwN8HWvO4tmBrKzs8x+nkyY4hZ3HqJOwq6s8Ws8EQheAhJ2wbt3svxUAvyyyeYMDXR+Sb3jD+PyPXZOL4X1ULz74dx8b5/19HFMXmez16xYOLvn6Xjx1S9B7xg/W712h+nr9HhYcbl1m7uOldPT4VyBHXPuvNWgV2Xzlr35Hjunt8SXN4Xj2PsvuqCzh4i11x+4c7D5cu+ch/c5RaBzrbTz32PHGFFEm6znr2FSgvEm+lpPUezknM5+nGfOvFX5YtzpcXV6G33tl7cw8ydCndc5v7fH7qPx9+LK0S+hsP2sXi3W8PDuR4+wt9eqoH0vr/V72+BLNDrDRe1eenuGnbxOa93QrNk+P/aZ9X6ueL0kHsuS/B2z5+wYgun2JPFgHNPs5+Z77fLCaiCu9pmIiKbXLszvNPTWfb1sNcbP/AEdmjXCdX17IS2mFubtz8Nvx3ORngNw9IgwoHPtcPRPjEBOdg6q79qC/S89bxKnUMTVv+YaNLj6alMCYe9HHyF961ZEJSaac3g1evfG4W+/dYu69HS3qLv3Xp+ijoZS2FFkUWzQc8aEHRRT69atM+KMwmL58uWmphvFC1+sKcfMjRRG/P86C3IzpJNFyzkWRVW3bt3w888/GwHG+m70DLIeGwUNs0BS/HAeijsKF4Yz8mcKC95vC4knJycb8cb5vvrqK1O/jX04RocOHbBnzx7zYl05ii4KJNbRo/hivTgWSn/77beNcOV6WIuOwonj8j4KSwo3CimWGqDg4zhnn302xo8fb0IpOTcZUMRRTPKdY3EuroE8KGB5nRwo3s4888xThN3cuXMND67XCknyIzOKKY5NYUihNXv2bDM3awRSFLM+H8VdeTRyt95Jt7A76a3zKHMQ5n62dcauPHZBY4pAEBKQsAvCTZPJfgnYL/++ws3sF0+GYlJMeIcX8nN+QXd67JyicO36neZsGb0ffc9pb77ssjGMb/b3K03oH8XdHTcPMp9RYDl/5tgFncFyekDseBRdZ3Zp6RGW6e0psTCKer7LKX6dnpiduw/mhyVyTBtaxy//lpX9km/Foy+RYL2j/uz09qKynxV2DI10hmVaW8nV3345Hwaux1dopVP0XnB+R7/Crqj7SdHN0NGduw7ln6kjG8usuJzKav3eXjPLev+BFJ/huEXxFhbk4fT+hxSnt7C8/0wV5LXjWbucnDxEVW+PqPhWBXrtaGdmdjamL1yB/3z9I5rWr4Pf9e9tRM3CQ2FYeigXhzLzTJ27mpFh6F0/HN3rhGPj4SyckbId25/4S37ilMTRo42QOzp/Pg59/TUSBg5EtS5dcGjWLOx9/32TRTOuTRsk33mnCcv01yjsKLYo6CjsKHr4O0XLRRddZMIBWTib4oONooUCzpl6n0W0KQB79OhhBBI9eBQvCxYswKhRo4xQYdFvetbYj/NQLHFsFi7nWGRMsUahRa8VhR3vtUk7KDSZWISCid40K5Iozih4unfvbop3b9myxRTl5ho+/vhj3HzzzUbYcSz2+/zzz02mSdpHsWmESliYEbL01NGLxrUOGDAAn332mbmf7d1330Xfvn1NH+vBYuF1rqFjx45mXgpQ3k+b+/fvXyRhRwFKIcl1UOxScJIJGfK5sCGeffr0MaKwrBv3hnPQS2o9dbZG4SnZMCXsyhq/xhOB4CYgYRfc+yfrTyXg7ZFyijwr2ryFnXMU28dblDmFoS/BZr1A9CL5C+f051Hy51Wjl4TNKXb8fdH2vu7tMaI44rqdZ/ec83IeX6KooFBMf54wMvAnNL3tLEg4UFjTC+ot7Pw99/6EnXPvChJ2TsHqaz8Leyb8nTMrjJNzLufaSrJ+X8lsCvKCOvfc+xwd/2GhYWLtfCHs7SG19lkPeWWFY9ozd/a8nT1rB1c8omt0RVRc4wK9dpb53BVr8dq0ucjKycaos8/EBZ3PQGZkHBYfzMGSgznYk56HhrFhuKhhJJrGu7AlJRttM/Zi4/33I23zZpMYJfHGG1Fv1CiT4TI3NRX7J03Cng8+QM6RI4g74wwk33FHgaKOtlDYUShRVLAwOBuFHMUFBRK9OfRW8cs+BYAvYTdv3jwj2CiuKOwocqywGzZsmLl38eLFRjzYIuIMreR4FHMUk/Sy2UYBR7E4YsSI/BBNeq4o3Hr16mUE2syZM40Iopii3Zyb4oxzU5RR2E2YMAE33XSTh7CbNGmSEWK0j+LRihmGmXIMW+ibNtv7adf//vc/40FjaKdNhkJhR1HGME164LqyrMTBg8bL5kvYcU30jHJuevjYl+NRsFHYMVST4Z78nCGnFKCci+KPe1TW5+w8z9aFeYVhehYltwLYvCsrpr4OiYAI2D8KeUcmCIYIhCwBp1fBKbicX2J9iT/7JZ5hiM7mDFG04Wne4sQ5j3diCl/JTLyTpXgLLmciENria4zCvIHWU+kMo7TrsiGmTgFgr3kLO3/rocfPKUD9CUJvL5GTnQ11dDK3oav+9su5N6UVdoXtp30mnGGJzn8IcAq7onIqy/V7Cy1f/1E7+Xt7SG1/5/MXDMKOdtsEKlbc2QyZEbFNEVWtLcIjaxf6Ny47Jwebdu/De7PnY9mmbWhctzYGdG2Hs05viWrx1bAvIxfbU/MQFRaGLrVdJsAzErnI3L0bGx980CROYRKUxOuvR8KAATgwdSoOTJuG7AMHTMmDpJtvRo0ePcCEKgU1CjuKNQo7mzSE4YTLli0zwoOiiWfPhg8fbmqt8XeKMKfH7ocffjBeOKewo3hif3r+GIrJ96FDhxqvG8UU5/Mn7BgOSTFJrxVDHimeLr74YkyfPt2ETVIgUuRQSDE01M5NkUhhd8EFFxhhN3HiRJO8hGfdLr/8ciMIv/jiCyPsGJpJYcd7GerI9br/3sUZIcWxP/nkE4wePdpcZ1gn10MBSy8XQ0J5Bo5hoxSmtJceNjLjeP369TOhnLzfJk+hfRzHZqCkyGP4JcfgWLxOe+iV/PTTT43n0mbd5HxlnamU89HjyDkK89ZJ2BX6n7Q6iEDVIyCPXdXb81Bdsb/MfM4v+84zdk4Ozi/E3h4777NFvM/bw+ZP2Hl7yErqsStK5kZ/Z+xob1E8lU4ezvUxFNSGQXqfySrME+Ur9X9BHjueT3Qm7fAnVPxdL+0Zu6IKO+vZczKn6HOGrzo9o4Vxsh670q7fOxSSnNhsVlj+7LTF3xk75/7bsOOinLGrSI8d1+IMx3TWtuNZOx67YzhmHiIQVe10RMUzkUpsoX/+KO6Opqbjl3WbMXPpavy2Zz+qx8bgtEaJaN+sMZon1kdiQg3Uibdj5SE3JxfpGzZg61N/Q9r69XAxi2Jioqlxx1d8+/ZocN11qNmnT5GKkFM00StEoWbDHvmFnyGF/Ixf+in8KFYouLz7cpHsx3vZj2e1KBYoovhOwcJzaLyfL5uh0oZf8neOaUWlWzgzmUe6GZfvvI+houxrE6VwfAodiiI7Nz9nfwotij968xjaSS8YvWKch9d4H8UbxZ8t8cC18cXfKbhon72fNtFzyf4M07RnEW0mUIpN2kVuZMB32kAvIIWb5coxKPz4bj1xNlMo72c/2kkhyLXzRQFLYezcn0IfrCJ0cIZgcs2c2x2CyYLk7oQpHkXJT4RhGoEnj10RCKuLCFQBAhJ2VWCTq9ASvbP5eWdEtALHGY7H8DLnF2B/Z+xSjqWZMEaeIfP23BRV2PnKQGi3x2l7QWfsvLM+OrfXX1ZMe/7PniHkPTZDpD03yPIFDHvkdadIdp6x8xYCzvXYzwo7Y+ctQJ1n7JzCxvI+/+x2uPvWizzCAX0JFidHZ2bUgrJi2nIHNnlKUYUd5+LZSp67tOLVecauIE7e5+/Kcv3ewsqXF9f7+fGXFdNZyqIoWTHJpCLP2HkLO/fv1nPHM3ZAbl6uqWvHkEx67aLiWyAsrPD6ZRSJqRmZOHjsONbv3IulG7di7Y49OHyMZ7XCEMWU/JERiIxg+YA8MLtml2YNcVlSAo6+9QZSV69GHifOzUW1Tp1Q/6qrUKNXL4SfSNlf2J9kW7/OfGF3fHm3WSb5ThHCz2xJAecXfivE+E5xYJPN2J8pcuwYTo52LiuYvQui25IHvN/Oz/v5u53Llgqwv1v77Ny2JhvvsefF7Hqd67Hj2LFtqKW93zLk7+zDeymCnEXd7TrtdTumndeOYfs5hZNlzT7OmncUjvaac28K29PCPrflJii42TwzYZ4agun9bEjYFUZYn4tAFSEgYVdFNroKLdO7jp0zC6W3aLP17pyhmPZ+X1kx7VhF9dhRSDnteeQPIzFv/ppTMgxye7yzYtaqGY8x1/U1mSydYYiF1aXzPlvn3d/7DKJ3pk8bBul9/ZfFG00Cjq/nLM/PHOq9npJkxbzzlkFYsXorPhx3j3lKbagos3/+6f7h+OjTH42I+vdbX+XP6y85jn3Mi1vHrrjCjqUTbKZUm1XU22Nc0L47OZXl+n15rb3PzRWlRl1R+vjK7lpRWTGdf878ee3cusoWLQ9DWERtRFdvi8jYop23s4InLTMLR46n4cjxVBxIOY5dB4/gQEoKjqdnIoviJCwMUZERaF6/Lnq1borITRuw+403kLpqFap17oy6I0agZu/e5sydmgj4I2Dr8TkFsvv8Hj13bu+dU8x5i0oJOz1bIiAC+X8kdMZOD4MIiIAIFE7AV4r/wu+q2B4V7TWzq6voMEw7rxV2/N2es3OLMvfvNiwzLy8crqi6iIpvg4iYZBPeVpxmklrk5BpPHj10FHUscs4v2BEul/HgVYuNQURuDo798ospg8BzdcyKGVGzZnGmUt8qRIDPFcNAbaH5k/Xq3F46ZxZMp5iTsKtCD4mWKgLFISCPXXFoqa8IiEBVJhAMwo77U9GeM3/nWyvqWXF67ayos/XtTDIVG6KJCIRF1EF0tVaIiGGKfHpEyr7lpqUh69AhRFSvjvDq1ct+Ao0YEgS8RZ0NJ7WCzumlc4bF+goBlccuJB4JLUIESk9Awq70DDWCCIiACIhA5RJwFi13ijsmUGFYJtOouD164XBF1kZkXAtExjVBWFhk5Rqu2askAYYJ01PHlzMDprfHzoo473dvaBJ2VfIx0qJF4FQCEnZ6KkRABERABIKdwEmvXZ45l+TMkukugeAUdy6ERdRCVHxLhEcnITxC59+Cff+DyX4ma2ESFoo6PqdOD50NvfRO8CJhF0w7LFtFoBIJSNhVInxNLQIiIAIiUKYEnJ47b3GXX8g8zy30wsLjEBHTFBExDREelXDCe8fqdGoiUPYEbPFxijqbXdN66LzP0/kKvSwoC6c8dmW/XxpRBIKSgIRdUG6bjBYBERABEfBDwJ+4s+fuTGIVI+4YmulCeFRdRMY1Q3hUHbgiqp8oiSCBpwes9ASsJ5leOoZcMkmKLe/grlHnrk3nTJLiLeqKUlZBwq70e6URRCAkCEjYhcQ2ahEiIAIiIAIOAgWJu/x6d45Mmrm5YYiISTLlEOi9c4XHI8zF83fFy56pTRABS8CU2zjxYtglvXTOUEtvMeddi9D794LIStjpuRMBETAEJOz0IIiACIiACIQiAX8JVWxZhHwPnimP4D6XR4FnPHixyebdFRHn9uCFsSC4u66Ymgh4E3CW3bCF3G3IpS2gzhIbrEnn6aE7ec27nEFRPHXWDgk7PZMiIAISdnoGREAEREAEQpqAt7ijqGOj1879Bdz9bl7Gg2c+NZ8jLAquyAQj8CJOhGm6wqOMF4+fF+eLd0hDDvHFHTp8HAkJCR6rdAo59/PEZynXeOVs2GW+6HIIOn+16UoSfuk0SMIuxB9CLU8EikpAHruiklI/ERABERCBYCTgHZZphR3frZBzevGo6YywOxGqebK/C2HhMQhzxcFl3iOMp08ttAn84c/vYezYsT4XaQWdzW55Usy5PXO+Xye9dM7+/Lk44ZcSdqH93Gl1IlAiAhJ2JcKmm0RABERABIKEwKneFbfh1mtnRZz14OV77Cjs7IeOEgrue08ovyBhIDNLTiD59NuwY8cOnwO4vbYUcJ4eXGdxcX5uQzCdZQv8lTAoiSdYHruS76/uFIGQIiBhF1LbqcWIgAiIgAj4IOBf3HnWvbOizSn2bF0885ljbM8x5bkL1QevfsubsHfv3lOW530mjh1OXvMUe55C72Q/bxFXElFn5s3TPzWE6vOndYlAsQhI2BULlzqLgAiIgAgEMYGiCbyTYs8t9MxX5xNn76y08xRy+lodxA9FIaYnNL0Rhw4dMr38CS/zXcqcuzxVtDnDK8vSS+c0W8IudJ8/rUwEikVAwq5YuNRZBERABEQgBAj4E3huIXciecqJn+2XdnuOqiARpzN3IfBweC2hevL1OHYsxefCrFBznrErKLtlWXnovI2RsAu9504rEoESEZCwKxE23SQCIiACIhACBAry4LkF3cksmp6/u6/78uDo+F0IPBiOJcQlXou0tDSPRflKllKQuPPVvywpSdiVJU2NJQJBTEDCLog3T6aLgAiIgAiUGQFfnjinSHN+OVfoZZlhD/iBoupejczMzFPsdIr6ogq3kp6hKwyShF1hhPS5CFQRAhJ2VWSjtUwREAEREIEiE/BVp8z7S7k8c0XGGdQdI2pfaerTOZtvT23eKR7c8hJy3kAl7IL6EZPxIlB2BCTsyo6lRhIBERABEQhdAvLShe7eFrQyV60rTPHxwlpFiThfdkjYFbY7+lwEqggBCbsqstFapgiIgAiIgAiIQLEJhNUcFfB1CyXsir2tukEEQpOAhF1o7qtWJQIiIAIiIAIiUHoCEnalZ6gRREAEKoiAhF0FgdY0IiACIiACIiACQUdAwi7otkwGi0DVJSBhV3X3XisXAREQAREQAREomICEnZ4QERCBoCEgYRc0WyVDRUAEREAEREAEKpiAhF0FA9d0IiACJScgYVdydrpTBERABERABEQgtAlI2IX2/mp1IhBSBCTsQmo7tRgREAEREAEREIEyJCBhV4YwNZQIiED5EpCwK1++Gl0EREAEREAERCB4CUjYBe/eyXIRqHIEJOyq3JZrwSIgAiIgAiIgAkUkIGFXRFDqJgIiUBRS+UcAACAASURBVPkEJOwqfw9kgQiIgAiIgAiIQGASkLALzH2RVSIgAj4ISNjpsRABERABERABERAB3wQk7PRkiIAIBA0BCbug2SoZKgIiIAIiIAIiUMEEJOwqGLimEwERKDkBCbuSs9OdIiACIiACIiACoU1Awi6091erE4GQIiBhF1LbqcWIgAiIgAiIgAiUIQEJuzKEqaFEQATKl4CEXfny1egiIAIiIAIiIALBS0DCLnj3TpaLQJUjIGFX5bZcCxYBERABERABESgiAQm7IoJSNxEQgconIGFX+XsgC0RABERABERABAKTgIRdYO6LrBIBEfBBQMJOj4UIiIAIiIAIiIAI+CYgYacnQwREIGgISNgFzVbJUBEQAREQAREQgQomIGFXwcA1nQiIQMkJSNiVnJ3uFAEREAEREAERCG0CEnahvb9anQiEFAEJu5DaTi1GBERABERABESgDAlI2JUhTA0lAiJQvgQk7MqXr0YXAREQAREQAREIXgISdsG7d7JcBKocAQm7KrflWrAIiIAIiIAIiEARCUjYFRGUuomACFQ+AQm7yt8DWSACIiACIiACIhCYBCTsAnNfZJUXgffeew+TJ0/GkiVLEBkZiaysLHTt2hXDhg3DNddcI15VhICEXRXZaC1TBERABERABESg2AQk7IqNTDdUJIHs7GwMGDAAO3bsQGZmJuLi4swrNTXVvKKiotC4cWPMmjULLperIk3TXJVAQMKuEqBrShEQAREQAREQgaAgIGEXFNtUNY08dOgQzjjjDNSoUQPVq1f3CyElJQV8rVmzxvRVC10CEnahu7damQiIgAiIgAiIQOkISNiVjp/uLkcCDRs2RJ06dRAdHV3oLOnp6Th69Ci2bt1aaF91CF4CEnbBu3eyXAREQAREQAREoHwJSNiVL1+NXkIC9957L6ZMmYKEhIQij0BhN2TIEDz//PNFvkcdg4uAhF1w7ZesFQEREAEREAERqDgCEnYVx1ozFZHA8ePH0axZMzRt2rSId5zstnnzZuzcubNIXr5iD64bKp2AhF2lb4EMEAEREAEREAERCFACEnYBujFV2ayff/4Zw4cPR3JycrExUNR98cUX6N69e7Hv1Q2BT0DCLvD3SBaKgAiIgAiIgAhUDgEJu8rhrlkLIPDGG2/gb3/7Gxo0aFBsTvv27cPDDz+MW2+9tdj36obAJyBhF/h7JAtFQAREQAREQAQqh4CEXeVw16zlJOx2796Nxx57DLfccosYhyABCbsQ3NQQW1JGRhZ27DyI7TsPYMeug9i+4yCOpqQh5Vg6UtOykJ6ehbR0+5554vdMpKVlID0jy7xnZGQiLT0D3bu1xy+LViI2JhrR0VGIjY1GTHSkeY+NiUJMTKTjndejEBsTgerVY1CzeiySG9ZGo4Z1kJxU2/wcHR0ZYrS1HBEQAREQAScBCTs9DwFHYMGCBSYJCuvTFbdt27YNX375Jc4888zi3qr+QUBAwi4INimETTx8+LiHYDPCbedhbN95yIi5HTv349jxNCQl1kfDholITExCYlIyateua2puxsTEmPO/znf+bF++PmPGX74yMjI83u1152f256ysLOzfvxd7du/Erl187cGu3XtRvVosGibVRSMj+BKQ3LCW+dkKwIaJCUhIqBbCO6iliYAIiEBoE5CwC+39DcrVMXkKE6cwgUpx26ZNm7Br1y4lTykuuCDpL2EXJBsVAmauXb8TS1f8hiXLt2Hp8i1YunITEuvXQ1Z2DhITE5GU1BANEhsiMbEhkpKSTlxLQu3atQN29QcPHjR/H/lidMPu3Tuxe9cO7N7tvhYdFYHde/ajU4cW6NKxCbp0bIzOHZqhTauGAbsmGSYCIiACInCSgISdnoaAJHDnnXdi+vTpxSp3cODAAQwbNgwvvfRSQK5JRpWegIRd6RlqBE8CmZnZWLJ8CxYv34GlK7Zi2YrNWL5yPZKTk9CuXXu0a9cB7dq1M6/69euHPL49e/Zg1apVJ14rzPvOnbvQsX1rdO7YAp07NEG3TsnmPTIyIuR5aIEiIAIiEEwEJOyCabeqmK2NGjVCrVq1TJhSYS0tLQ3Hjh3Dli1bCuuqz4OYgIRdEG9egJi+b/9RTJu5GMtXbsO0r5dh0+ZdaN++Lc44gwKOQs4t4mJjYwPE4so3g39fKfBWrlyJVatWYvXqFVi58le0apGMiwZ0RKf2TXDxwC6oW6dG5RsrC0RABESgChOQsKvCmx/oS09JSTHhmCxSToHnrx06dAhHjhwxoi4+Pj7QlyX7SkFAwq4U8KrwrT8vXI9pM5fiy5nLsGXbPlzQ/3wMGDgYrVq1QuvWraswmdItfd26ddi4cQNmzpiKr7+Zg+ZNG+CSgZ1w8cDO6NGtVekG190iIAIiIALFJiBhV2xkuqEiCeTl5WHAgAHYunUrMjMzERcXZ16pqanmFRERgZYtW2LGjBkVaZbmqiQCEnaVBD7IpmWSk+lfL8XUGSvw1ayFaN68Gfr2G4D+/S9Ap06dgmw1wWPu0qVL8c03X2P27Fn47betuGjAmRh8YQdcPKAzatSIC56FyFIREAERCFICEnZBunFVzewPPvgAkydPxqJFi3D48GHjxevatas5U3fVVVdVNRxVdr0SdlV26wtd+M5dB/G/iT/h08kLsWbdVvTr2w/9+l+Afv36FeusbqETqUORCDBRy7fffotvv52Fb7+ZjTPaNsOlQ8/EtaN6I7GB/wiMIg2uTiIgAiIgAj4JSNjpwQg6AubLfV5e0Nktg0tPQMKu9AxDbYS581bjpde+xvyF6zB69E3o2bOnyp0E4Cb/8ssvmD9/PsaPewt9ep6Be27rj3P7tA1AS2WSCIiACAQvAQm74N27Kmu5hF2V3XpI2FXdvfde+RvvzMHLb85AzZp1MXrMzbj44osFJ0gITJ06Fe+MfxvHjh3C3bcOxE3XnxcklstMERABEQhsAhJ2gb0/ss4HAQm7qvtYSNhV3b3nyrdt349/vvEt/v3mFFx66WUYPXo02raV1ydYnwpm2hw/fjwmTfocd94yGPfcdoEplq4mAiIgAiJQMgISdiXjprsqkYCEXSXCr+SpJewqeQMqafo163bij49/gkXLNuLGG8cYQVeUMiiVZK6mLSYBllOgwBs//m306NYaY5+8HK1aJBVzFHUXAREQARGQsNMzEHQEJOyCbsvKzGAJuzJDGTQDPf7MZHw2dRHuv/9BDBo0KGjslqElIzB9+nQ8++wzuOrSXnj8j0NKNojuEgEREIEqSkDCropufDAvW8IumHevdLZL2JWOXzDdvWzlTlxx479wyeDh+MMf/hBMpsvWMiDw7LPPmvp4H79zN9q3TSyDETWECIiACIQ+AQm70N/jkFuhhF3IbWmRFyRhV2RUQd3xoScmYfL0xXj99TeCooD48uXLTXgowwk7duyYz97fdX+bc/z4cVx//fW49dZbMXDgQNxzzz2YOHEievToYW65/fbbzfWq0tasWYPbbrsVlw49C08/OrSqLFvrFAEREIESE5CwKzE63VhZBCTsKot85c8rYVf5e1CeFqxcvQ3Drn4Jl4+62oiaYGlWkLFm3h133JFv9r///W9Ty+3dd99FfHx8sZbDMe+8807cd999HmKxWIOESOcXX3wRn3/2MSZ/eB/anpYcIqvSMkRABESg7AlI2JU9U41YBAJPPPEE/vKXvxShZ9l24ZyPP/542Q6q0SqMgIRdhaGu8Il+Xbcf197yGl5+5XU0b968wucv7YTeIs7b+zZz5kzccMMNZppevXoZscdGD92RI0ewevVqvP766/jvf/+L3/3ud+b9p59+Mn3sdevJ27NnDwYPHowdO3YgOTkZLB/QoEEDOOfgff/5z3+Mh4/XH374YRw6dAidO3cukdAsLZ/S3r9x40bcc/ft+ODt3+O0VnVLO5zuFwEREIGQJCBhF5LbGtqLkscutPe3oNVJ2IXm3v+y5DfcfM+7mD59ZtAu0Dvskr8/8MADeP/990EhZkM1W7ZsacRco0aN8PTTT+f//M9//hNOMdinT5/8sEx/P1O0UVCuW7cOY8a4s4XacFCn0Pzhhx/w+9//Hp9//nnQe/8GDOiH916/GV06Ng7aZ0WGi4AIiEB5EZCwKy+yGrfcCEjYlRvagB9Ywi7wtiglJQ3Vq8eW2LADhzPRsuPt+PXXNSUeIxBu9PbQWcFFwebtzaMH7Y033sBrr71mBJcN4SyKsEtMTMwXjPTS+Wt2DnoGKeweeeSRfM9eIPAqjQ2tW7fGjrVvoWb1iNIMo3tFQAREIOQISNiF3JaG/oIk7EJ/j/2tUMIu8Pb+yWc/we49R/DUo1eiVq3inSPLywNqN7sZP/74E2rVqhV4iyumRfZcIMMeGSr51FNPmVBICjv+7GwMoZwwYYLJ+GlDLIsi7DiGP5Fmk63YeWzIJ4UdhWRJzvoVE0GFdD9w4AD6nn8e9m58HWFhFTKlJhEBERCBoCAgYRcU2yQjnQQk7Kru8yBhF5h7/+rbM/DIkx9hzHX9jMCLjo4skqHdznsMTz3zIjp16lSk/oHeiV4yiq677roLX3zxRb6QcnrvnGvw9vIVRdj589jZuZ3n7ayYCzVhR4aLFi3Ck0/8CT9/81igPxayTwREQAQqjICEXYWh1kRlRUDCrqxIBt84EnaBvWfPvzzFCLwH7x6KJ/98RYHG/t9jH6HVGQMxZEjopLF3JjWhwLMZMr3P39Gztn379vxQzOJ47CiCvb2BzLzJxCx//etfTbhltWrVzPk8NhuKGUoeO/tgffHFJGxZ/zWeefzKwP4PQ9aJgAiIQAURkLCrINCapuwIlEbY8cvNW2+9hfDw8PwXv1Rde+21HgZ+8MEH+Oyzzzz6jRo1CkOGDPHoN336dHzzzTce/Rh6dc4553j0Y3Y7/guzc97u3bufksiAdZs2bNjg0Y/nSZo0aeIx3u7du7F//36PfnXr1kXNmjU9+mVkZCArK8ujH20I1iZhFxw797fnPsVjT03A3x69Ag8/MNKn0cmn34kpU6cjKSkpOBZVRCsp2iiuvBOVODNW2kyWVoAVR9jx7wuF4ogRI5CWlpafFdOOxb81sbGxJvvve++9Z5K3LFu2LKRCMe1WMCvoyBFDsHXVv4q4O+omAiIgAqFNQMIutPc3JFdXGmFHQcQvAzk5Ofmvxo0bo2nTph6sfv31V5N+3NmPhYedxYd5A79E/fjjjx79zj33XPDlbNOmTQNFoHO8YcOGnSIUKSg//PBDj35MfX7dddd5jMfQLqZAd4537733mrpXzsZzPX//+989+rHUBL0JzvbMM8+ASR6cwvPBBx80BZGdjXMyhbqz380334yrr77ao99HH32ESZMmefS77LLLcMkll3j0mzFjBmbPnu3R74ILLgCzADrbzz//jCVLlphEE+NeuQ3h4S5069wC7c/wFLzrNuzEpt/2ms/DXS7z3rJ5AzRKruMx3t59R3Dw0DGPfrUTqp2SBCQrKxs5ObnufuEuuFyukPxvqjwWlZeXhz8/+RFeem0a/vbnK3DfHYPzp1m5egcuu+E1zJ49pzym1phViAD/1k7+4C60PS20/oGgCm2hlioCIlCGBCTsyhCmhqoYAqURdhVjYfDNkpqaipSUFA8BSO9fQkKCx2J27tyJbdu2efRr1qwZ+HK2VatWYeXKlR79WD+LL2fj2Z958+Z59Ovbty/OO+88j370gHz55ZdGzI6+rq8RWyMG98CwS7p79Hv/4+/wvwkcLxc5ubnmffS1fXH9VZ7jvfzGdLz69kx3vxN977/jEtx928Ue4zExyNPPf57fLzc3D08/fhX+dP8Ij37PvPA5/vX6dEREhCMiwoWI8HA8cNdg3DZ6oEe/N9/5Gu9+NDdfKFJ8jrm+H6681FPITvj8R0yeRg+vW1DyNXJID1w0oIvHeLNmL8fceas9+vU7tz169Wjj0e+XxRuwbMUWj34Uxqe38Sz2vH7jLmzZus+jX4tmDZCU6Pkc7D9wFIePpOaLZ9qXUCsecXHRHvOS7fHj6fjLMxPx7kff4anHrsQtN1yAsa98g43bwlRTMvj+VAScxfRMntYsHA/c2S/gbJNBIiACIlDRBCTsKpq45is1AQm7UiMM2gECIRSTnija4WypqRk4mpKG7Owc9ysn1widOrWre/TbvuMAtmzbd1JQ5uSCwqlFc8+09StWbcXyVVs8+nXt1BxdO7fwGO/7H3/Fdz/+6tGv/3nt0ffc9h79Jk9biClfLfLoN2pELwy9+EyPfu+8PxsfTJyXL4opzG69cQCuu9LTA/3CK1Px2riZHv0eum847rxlkMd4j/7tY/z9xUlmXnJr1SIRF/bvhLUbDmLMLfefIuCD9sGU4ZVGYM6cOXjn7Zcw8/M/VJoNmlgEREAEAoWAhF2g7ITsKDIBCbsiowq5joEg7EIOajkvaN/+o3hq7GcY9963ePiBEbjntotx4WUvYsLEqeU8s4avKgRGXT4Y3097qKosV+sUAREQAb8EJOz0cAQdAQm7oNuyMjNYwq7MUJb7QFu37TeC7vOpC/DIH0bint+fDHMdOGIsbrzpXpx//vnlbocmCG0C8tiF9v5qdSIgAsUjIGFXPF7qHQAEJOwCYBMqyQQJu0oCX4xp167faQTd3B9W45EHRuKWGy845e6xL3+D9Vvz8Je//KUYIwdWV1tzrl+/fvllDQLLwqphjTlj1zwMD9xx6nNWNQholSIgAiJwkoCEnZ6GoCMgYRd0W1ZmBkvYlRnKMh9o6fLf8NTzn4HnA+mh8z6X55xw1a87MPL6VzFnztwysYMlBiZOnOgxFlP+e5cc8DUZyxAUVuON9elYEuX555/Pz4zL+5jQh9lk/TWWJXjggQdMyYEGDTzPURZ14XYeZpRlrbrLL7/cY05bO4/j2eLkRRnb3sfMuSyh4K9ZPq+99prJSmtLMxRljoro486KeQfanuaZCKgi5tYcIiACIhBoBCTsAm1HZE+hBCTsCkUUsh0k7AJva9es24E//Pk97Nh10HjoLhves0hGNmp7J76YPA0NGzYsUv+COlHYsTlFFkuCsHA3C3THx8cXKlwK6udL2JXa6CIOwLW1adMGrGf58MMPm0y1TqFI4eXremHDh4KwY5H3yy4dhi0r/YvrwjjocxEQAREIJQISdqG0m1VkLRJ2VWSjfSxTwi7w9v7BR9/D+We3wyUXdi2WcQ89/jGanz4AQ4cOLdZ9vjr7Enbe3jJfRb3pRXN67I4dO4bBgwebWpds9I49/fTTuP76603NSusFbNmyZf419mNtR1s4fPTo0eZePqvPPvusud8KMWeR8l69euWLTl/Fy2kbwz1Zm/K+++4Da3DSs1ijRg1cddVV+V42rp3i+Ouvvy50Hhs+yrVw/q1bt8J67Jw2ONfk7bHr0aMH3nzzTVMcnfUw77jjDrNef/c752Q/5z2l3Xh6ZHdsmoOnHru8tEPpfhEQAREICQISdiGxjVVrEc2bN8fmzZur1qK12vwvy3lHJohGiBDo3u+v+MsTf0fXrsUThd7LL8xjZwWbFTHsT28PvXSspUjBZEMN7Zk5CkGKtPHjx5swSmcopvf9DFGkyGAbMWKEGcsKPRuKSQ+Z/axPnz5GGDZq1Mh425xj09PIRsFEG1588UW88sor+XZSWLGeJL2THPP222834ZHPPfecEXa8Zu22ApTzsL+33QztpChNTEzMv6djx45weju9+dA2y825bjun9/0cf926dR72vvrqqyUOTbV7v2DBAvz9mcfx08xHQuS/Bi1DBERABEpPQMKu9Aw1QgUSYPHqYcOGYdKkSWA2NLWqRUAeu9Da77w8oH7L2zB7zlzUqVOnxIvzdcYuOTk5/8wZvUn0FNkzaE5v3rJly3yesXOGXzqFnRVL9qyZM4nKOeec4yGQCprH2vTOO+8Yj5zz/J4FQYFlRZH1nFEovvXWW/lij+f8xowZk3+W75NPPvEIQfV3Rs7a7evMnNOL6U/4FhSe6rzfKexKvMFeN3LuiwYNxM61/4ZXScmymkLjiIAIiEBQEpCwC8ptq5pGP/HEE6bIMTPpOX+umjSq5qol7EJv348czUKjtrdg3br1JV6c02PnK1uld5ggJ7JhlTbE0Xqh6MWyzfZxCjv+zHBNZ9IRew6Ows6ZLMUp7LwFl/Mz681jeKMzRJPjMmkKvX9WLNHb9dBDDxkxOG7cOHP+zjkv56FtzkaRSwF544035tvtLey8xbG1w1vYWSHoLez83c/zjc7PbNhqiTcbQMuWLbBv0zuIjwsvzTC6VwREQARCjoCEXchtaWguaO7cuWBaa6eXjt47XlMtrNDcc1+rkrALzb1esnw7rrvtTcya9W2JFugdimnP09mQyIIyX9rPxo4di1GjRuULn5J67PwJO2/PoLcX0S7ceukYoskwSxu26O0FYzgmwxHp6WOz81LYWS+fE6a3kHP+zn5Oj2ZBHjtfwo7i2N/9zsQ1ZZGEpl/f8zDhP3egwxmlT7pToodNN4mACIhAABOQsAvgzZFpJwn4S5iiRCpV6ymRsAvd/V6/aT8uv+FVvPzyq2jVqlWxFlrcM3YUT/QcMTTTCi5vYcc+L7zwgjk7V5wzdv6Enb8zds4wSs5jz9gxC6azDINTbG3cuNGc1+vcubM578bfnWf5nOfdnOfquGabKZSeOHvGzinsqlWrZs7/sfk6g1iYsPO+nwKVXkWeGbRnAktyxo5i9Z577sQn/70drZrXLdbzoc4iIAIiUFUISNhVlZ0O4nUW5Jnz5ckL4qXK9EIISNiF9iPy69odGH7NPzFk6KVGqBS1+RJ2Np0/xYtNREIxxHBHZ407b0+YDWPkmPSIUcjYZCdLly41Qq+grJj+hJ3NwGlDPZ0hlxRzdl57nSKMzZl10go9mwzGuTbnvAVl2bQZPjmPzbBp12czfzIS4r333jPJWKzw9a5j5/S+OXmQrfN+rsGZabQkoZhjxz6HaV9OwuQP70PrlolFfSzUTwREQASqHAEJuyq35cG14KKcpStKn+Bataz1R0DCrmo8G48+NQUTPv8Jr73+Btq2bVs1Fq1VnkJg5cqV+P3vb8M1l/fBE38aIkIiIAIiIAKF/QN4zVEmH0Ugt7C8QLcwkOkFsW3F8cbpvF0Qb3QxTJewKwasIO+6eu1ujLrhX+h/wcUmWYha1SLA+n/fzZmFCf+9G6e1qle1Fq/VioAIiEAJCchjV0Jwuq38CRT3/Fxx+5f/CjRDWROQsCtrooE/3t/GTsEHn8zHffc9aEL61EKbwJQpU/Dcs8/gxmvOw8MPXBLai9XqREAERKCMCUjYlTFQDVc2BErigSuOh69srNQoFU1Awq6iiQfGfBs378b/PT4RP8xfg9GjbzK14pzZFgPDSllRUgI8M8jSDe+MH4dzep+BsU+OQrOm9Us6nO4TAREQgSpLQMKuym594C68NGfmSnNv4BKRZZaAhF3VfhZ27T6Ef77+Df795lQMHjIEN944Gh06dKjaUIJ49SxLMX78OEyfNg133joE99zWDw3q1wriFcl0ERABEahcAhJ2lctfs3sRKAuvW0m8fdqI4CAgYRcc+1QRVo5773u8/MZMRMdWN168oUOHVsS0mqMMCEyaNAnvvDMO2ZmpuOvWgbjxmj5lMKqGEAEREAERkLDTMxBQBMrqnFxZjRNQcGQMJOz0EHgT+GH+Wrz42jf4bt4KjB5zE3r27ImzzjpLoAKMwPz58/Hzzz/j7bffRL/zOuPe2/qj91ltAsxKmSMCIiACwU1Awi649y+krC9LT1tZeP5CCm6ILEbCLkQ2shyWsXffEbw/4Ud8NmUxli5fj379+qFfv/7o378/6tZVQetyQF7gkPv27cM333xjCqJ/++036Nr5NFw6pBuuvaIX6tapUdHmaD4REAERqBIEJOyqxDYH/iLL42xceYwZ+CRD20IJu9De37Ja3bFj6fhy1nJMnbEKM2YtQFLDZCPwKPa6detWVtNoHC8CCxcuNEKOgm7P7p24cEAPDL6wPQYP7Ii4uGjxEgEREAERKGcCEnblDFjDF06gPL1rZekFLHwl6lHeBCTsyptwaI6/aMlmTJmxCtNnLca6DduMwBs06CK0bNlSBdBLseWrV6/Gxo0b8dVXXxmv3GltmuLiAV0w5ML26Nq5WSlG1q0iIAIiIAIlISBhVxJquqdMCZT3ebjyHr9MYWiwAglI2OkBKS2BQ4eO4cuZS7FkxW7M+GYxfl2zCe3atTOv9u3b5/9crVq10k4VMvezHMGqVauwcuVKj/d2Z7TCwH6d0bVjQ1wysDNq1YoPmTVrISIgAiIQjAQk7IJx10LI5orwqJWnRzCEtiIoliJhFxTbFFRG5ubmYuny37BkxXYsXr4NS1dswYoV61Gnbl20a3dS6FH4NWzYMKjWVhJjd+zYYcTbyddKHDxwAB06tEaXjs3RtWMyunRojM4dm5lkRmoiIAIiIAKBQ0DCLnD2ospZUpFn4OxcgwYNAn+ePn16leMdCguWsAuFXQyONbAoulvwbcOS5VuxbMUm1KpVE1lZOUhMTERSUhIaJCYjMTHJ/Gxf9erVC9gF7t27F7t378auXbvMa/fuXdi9a4d55++xMVE4eOgwOnVogS4dm7gFXIdmaNG8QcCuSYaJgAiIgAicJCBhp6ehUghUhheN3kEWM16/fj04/+eff44LL7ywUtavSUtGQMKuZNx0V9kQYFKW7TsPYMfOg+73XQexY+cRbNtx0PzMawcOHEFSUj00TEoyAjAxKRl16tRDZGQkYmJi8l+xsbH5P0dHR3t85uyXnp4Of6+MjAzzWVpamkefrKws7N+/1yQwMSLOiLl9qFu3JpKT6qBRwzpIblgLjcyrDpKTaqNRsvu9WrWYsoGlUURABERABCqcgIRdhSPXhCRAr9njjz9e4TCGDx+OOnXq4JVXXsGIESPQrFkzvP766xVuST0hYgAAIABJREFUhyYsGQEJu5Jx010VRyAnJ/ek8DshAA8fPY7jx7KQmp6FtLRMpHm9p2dknrjOd4q1DKSlZ6B7t/b4ZdFKxMZQ+EUjNjbaeNViY6PMewx/jok88bv7PS4mEjWqR6NGjTgPwZbcsDbCw10VB0IziYAIiIAIVDgBCbsKR64Ji0Ng27ZteOmll/D888+b2/gv0XfccQf+/e9/m38Bt23y5MnYunUr7rzzzgKH//jjj42n7qOPPjL93njjDTz22GPmWu/evYtjmvpWAgEJu0qArilFQAREQAREQASCgoCEXVBsU9U1slevXkawff/992jRogVefPFFvP/++7jmmmtw//3354O56qqr8Ouvv+KZZ57BRRdd5BfY1KlTjZibMmVKfh+eO6H3jsLuueeeq7qwg2DlEnZBsEkyUQREQAREQAREoFIISNhVCnZNWhQCFFn79u1DREQEqlevjj/96U+oWbMmWDupbdu2OHr0aP4wNWrUALO5NWjQAAcOHADPr/hqs2fPxpNPPmmK6Hq3sWPHmrDMSZMmmbTnaoFHQMIu8PZEFomACIiACIiACAQGAQm7wNgHWeFFYMOGDcbzxkQny5cvx3XXXYcbbrgBDM184YUX8MADDyA5Odl47ejNe+SRR/Ddd99hwYIFuOuuu/Dzzz/7ZFrY5yy2y3N4o0aNwqOPPqp9CTACEnYBtiEyRwREQAREQAREIGAISNgFzFbIECeBjh074n//+5/JYslGD9327duNV47euZSUFCPs6LV76KGHkJCQgD/+8Y+m77PPPmu8dv/4xz9OgcraTFdccYUptFtQ47m7L774wnj2/h975wEeVfG18Vd67yWFXqX3IkgLhF5EuoBKrwoIKEVEREApIgLSQUSlS4c/HUQEpPcmnYQgvdfA952LN27WlC337t57953n2ScxmTlzzu9c4r47c2bksBU2YxCgsDNGHugFCZAACZAACZCA8QhQ2BkvJz7v0eeff65cfGt7aqbcP3fnzh3s2LEjgo+6ajdr1izMnTs30vbJ2rVrKyt39vV258+fh1x7cO7cuRg5y6mdshVUVgulto/NGAQo7IyRB3pBAiRAAiRAAiRgPAIUdsbLiU97dPDgQbz33ns4cOBAJA5SYyd3QsnWTLXJqp1cCiwrahcuXPgPtyRJkvyn3u769evK6p/U7kXVZsyYoWzv7NWrF0RgshmLAIWdsfJBb0iABEiABEiABIxDgMLOOLmgJwBy5syJ9evXR1olk5MwpbZOtkXOnj0bRYoUiWBVrVo1ZXvmw4cPsXPnTkXoqS2qejq5yFeEoPS3bevWrVPEnJzCKTV8st2TzXgEKOyMlxN6RAIkQAIkQAIkYAwCFHbGyIOlvZAVOGkiytS2d+9etGvXDmvWrIkQY3369FG+ly2Wtk1OwhRh9/333yvbMeVKA7VVr14dGzduVA5NKVGixH84ygmY06ZNU+69q1evnvL7OHHiIDw8XNnuKSdsygqdiMPcuXPj119/tXQuzB4chZ3ZM0j/SYAESIAESIAE9CJAYacXWdqNIOCIsPvjjz/Qt29fbN++PRI5dbVOVtGiqo8TkdazZ09kypQp0r12tkbs6+1kW+fJkyeVi8mlZk9s16hRQ1kJnDNnDuTgFjZjEqCwM2Ze6BUJkAAJkAAJkID3CVDYeT8HlvfAEWEn9849fvxYYfHuu+8qq3uyqle6dGnl4vE8efIol4rLxeTLly9H5cqV0bZtW8jBKWrbs2cP8ubNi7p16+LWrVvKwSfz589XVvpEOIaFhSmHppQqVQovX75EmjRplNMx1e2bsvInq4EbNmywfE7MGiCFnVkzR79JgARIgARIgAT0JkBhpzdh2lcOQ5EW3VZMWXFbvXo13nnnHWTPnh1LlixRVt9k9U5OuxSBJuJLhJ3UwclJl7IFU/rLpeUDBgxAgQIFIIelyAXkQUFByvcVK1bEvn37lK2aIgjGjBmDr776Cg0aNMB3332n+CWHrqxcuRLJkiVTfKxTpw66desGWeVjMx4BCjvj5YQekQAJkAAJkAAJGIMAhZ0x8mBpL2ITdrKaJtcLyAXkclfd2bNnIReFq3fNJUiQAPHixVMYPXnyBC9evFDusLty5Qqk/k7++8GDB8oqXNy4cZX/lpU7uWRcVvpkO6dcYB4QEBCprk9WBBs2bKgISbU+T7ZoivA7ceKEpXNi1uAo7MyaOfpNAiRAAiRAAiSgNwEKO70J036sK3ayGieXictF49JkVU0uG5dLx+UlokyuNtiyZQt+//135QqDtWvXolGjRrh//34E4eDgYEyZMkU5BEXEmhyWIr+XrZnqgSzdu3ePOD1ThKGs/skVB7YHr3Tq1En5744dOzJ7BiNAYWewhNAdEiABEiABEiABwxCgsDNMKqzriIg2OX3SdiumbKu0FVlq9KoQ69q1K9q0aaOINPXkTLEj32/dulURf/K9uo1SnUNOv0yfPj3Gjx+P9u3bRxJ2jqzYiR/ig4hNEZNsxiJAYWesfNAbEiABEiABEiAB4xCgsDNOLizriYi45s2b47ffflNWwlTxljVrVkXs2Qo/+V2rVq2U/nJqpVxDMG/ePFSpUkVZeZNmL+xEgJUtW1Y5UEWEXbZs2dC5c2d8+eWXkYRdyZIllX4iGmVFMKoaOzUJX3zxhXIlgmwRZTMOAQo74+SCnpAACZAACZAACRiLAIWdsfJhWW9E3NWvXz8iPvXkS/mBKvREsEmT1TipjZOrB8qUKaNs0ZTDUOTgFNmKKf1CQ0MVkXbx4kVkyZJFOURFBKC85Odvvvkmfvrpp0jCTrZmSl2dHKoiF5TLOPtLzW0TkCpVKuVwFanjYzMGAQo7Y+SBXpAACZAACZAACRiPAIWd8XJCjwDlBEupgRs9evR/eChv7l++jJbTokWLlGsOFi5c6BbLmTNnKidzSg0emzEIUNgZIw/0ggRIgARIgARIwHgEKOyMlxN6BChXDsgVBrJt0r7FJuxOnTqlHJwiJ1y62woWLKiIRPGFzfsEKOy8nwN6QAIkQAIkQAIkYEwCFHbGzIvPe1WzZk1l62WNGjWcFnYyQC48l0vKEyVK5BbLdevWKauHcgonm/cJUNh5Pwf0gARIgARIgARIwJgEKOyMmRef90pq7FatWqWcimnfYluxk/5SmycnY5YuXdptljGJTLeN04BTBCjsnMLFziRAAiRAAiRAAj5EgMLOh5JtplDlQnK5jFwuHHdF2HXo0EERd3LlgbtNrmpo0qQJjh496q4pjneTAIWdmwA5nARIgARIgARIwLIEKOwsm1rzBiYnUVaqVAnnz5+PMghHVuxkte706dP47rvvNAHRrl07lC9fHm3bttXEHo24RoDCzjVuHEUCJEACJEACJGB9AhR21s+x6SLcvHkzhg4dik2bNrks7OTOvEGDBilXI2jR7ty5A7l37/bt21qYow0XCVDYuQiOw0iABEiABEiABCxPgMLO8ik2X4ByvcCOHTswffp0l4WdCLDs2bMrB6ho1QYPHqxsDZWL09m8Q4DCzjvcOSsJkAAJkAAJkIDxCVDYGT9HPufhgAEDkDx5cuXS8aiaI1sxZZxcQC730GXOnFkzhuKX3K+XLFkyzWzSkOMEKOwcZ8WeJEACJEACJEACvkWAws638m2KaJs3b46GDRuiWbNmbgm7unXrokuXLqhTp45mcU+bNg27d+/G1KlTNbNJQ44ToLBznBV7kgAJkAAJkAAJ+BYBCjvfyrcpopUrCiZOnIhSpUq5JewGDhyIpEmTQlYAtWz58uXDkiVL8Prrr2tplrYcIEBh5wAkdiEBEiABEiABEvBJAhR2Ppl2YwedNm1a5UTLNGnSuCXs5s+frwiwefPmaRrwmjVrlDvyVq9eraldGoudAIVd7IzYgwRIgARIgARIwDcJUNj5Zt4NG7Ujp086WmN3/PhxNGrUCHIPndYtODgYn3zyCapVq6a1adqLgQCFHR8PEiABEiABEiABEoiaAIUdnwxDEdi/fz/kzrh9+/ZF65ejwk4MxI8fH48ePYJceK5lO3ToEFq3bo2DBw9qaZa2YiFAYcdHhARIgARIgARIgAQo7PgMmIDAokWLIFsoFy5cqImwK1myJKZMmYISJUpoHv3777+PKlWq4L333tPcNg1G8wfrtdfw8s4C4iEBEiABEiABEiABErAjwBU7PhKGIjBy5EjcuHEDX3/9tSbCrm3btqhQoQLatGmjeZw3b95E7ty5FX/ZPEOAK3ae4cxZSIAESIAESIAEzEeAws58ObO0x507d0axYsXQqVMnTYTdt99+iwsXLmDs2LG6cPv000+ROHFiyAmcbPoToLDTnzFnIAESIAESIAESMCcBCjtz5s2yXjtyKIkzNXabNm3CsGHDsHHjRt2YJUmSRFm1E4HHpi8BCjt9+dI6CZAACZAACZCAeQlQ2Jk3d5b0PGfOnFi/fj1y5MihyYqdCK68efPi+vXruvGaPHmycojKpEmTdJuDhl8RoLDjk0ACJEACJEACJEACUROgsOOTYSgCjqzGOdLHNqjAwEDs3r0bAQEBusWaJ08erFq1Sqm5Y9OPAIWdfmxpmQRIgARIgARIwNwEKOzMnT9LeX/27FnIVswzZ87EGJezwq5WrVro0aMHatasqRuvFStWYNq0aVi+fLluc9AwV+z4DJAACZAACZAACZBAdAQo7PhsGIbAhg0blNMwZStmTM1ZYScXiadNmxYff/yxrrHK1QeDBw9G5cqVdZ3Hl41zxc6Xs8/YSYAESIAESIAEYnyPnLIpXr58aWhIr700uoeGxmce56ZOnYq9e/cq985pKex++eUXZZvkzz//rCsMRy5X19UBHzBOYecDSWaIJEACJEACJEACLhHgip1L2DhIDwKOrqw5u2J35MgRtGjRAocPH9bD7Ug2W7dujRo1aqBVq1a6z+WLE1DY+WLWGTMJkAAJkAAJkIAjBCjsHKHEPh4h0KRJEzRr1gyNGzeOcT5nhZ0YixMnDsLDw5VTFfVs165dQ4ECBfD333/rOY3P2qaw89nUM3ASIAESIAESIIFYCFDY8RExDIESJUooB5AUL15cc2FXtGhRzJ49G0WKFNE93v79+yNlypTo16+f7nP52gQUdr6WccZLAiRAAiRAAiTgKAEKO0dJsZ/uBFKlSoULFy4ooiim5sqK3XvvvYeqVavi3Xff1T0OmSBhwoS4d+8eEiRI4JH5fGUSCjtfyTTjJAESIAESIAEScJYAhZ2zxNhfFwI3b95U7oCTC8Vja64IuzFjxuDKlSsYPXp0bOY1+f3EiRNx/PhxTJgwQRN7NPKKAIUdnwQSIAESIAESIAESiJoAhR2fDEMQ2LNnD7p06aJcJB5bc0XYyRUKo0aNwrp162Izr9nvc+TIgY0bNyJ79uya2fR1QxR2vv4EMH4SIAESIAESIIHoCFDY8dkwBIH58+djyZIlmDdvXqz+uCLsrl69qtTXhYWFxWpfqw5Lly5V6vokLjZtCFDYacORVkiABEiABEiABKxHgMLOejk1ZUQjRoxQatKGDx8eq/+uCDsx6ufnh4MHDyJjxoyxzqFVh4oVK2LYsGGoUKGCViZ92g6FnU+nn8GTAAmQAAmQAAnEQIDCjo+HIQh06NABZcqUQfv27WP1x1VhV716dfTt2xfBwcGxzqFVB2e2mGo1p5XtUNhZObuMjQRIgARIgARIwB0CFHbu0ONYzQgEBQVh0KBBqFKlSqw2XRV2ffr0gb+/P3r37h3rHFp2eOedd1CvXj3lknQ29whQ2LnHj6NJgARIgARIgASsS4DCzrq5NVVk2bJlw9atW5E1a9ZY/XZV2P3444/KYSZS9+bJJnV9xYoVU07lZHOPAIWde/w4mgRIgARIgARIwLoEKOysm1vTRPbixQvEjx8f4eHhDvnsqrCT+jq5z+7AgQMOzaNlp48//hjp06dXtoKyuU6Aws51dhxJAiRAAiRAAiRgbQIUdtbOrymiO336NOrUqYNTp0455K+rwu7ly5eIGzcuREh6o8WLFw9PnjxRfGBzjQCFnWvcOIoESIAESIAESMD6BCjsrJ9jw0e4du1ajB07Fv/73/8c8tVVYSfGCxUqhLlz56JgwYIOzaVlp3HjxuHcuXP49ttvtTTrU7Yo7Hwq3QyWBEiABEiABEjACQIUdk7AYld9CEyaNAmHDx/G999/79AE7gi7li1bKquDcqCJN5rUEG7btg1ZsmT5z/Rz5szB8uXLsX//fmVr6rNnz1C8eHE0aNAA4jcbQGHHp4AESIAESMAKBJ48eYaQ0Ju4HHoDIVdu4nLITdy99wj37j/Gw0fP8PjxMzx6rH59+s9/P8WjR0/w+Mkz5euTJ0/x6PETlCpRELv3HkHiRAmRMGECJE6cEIkSxle+Jk6UAIkSxbf5Kj9PgMSJ4iF58kRImTwxAgPSIFNAWgT6p1G+T5gwvhUQ+2QMFHY+mXZjBe3saZXuCLuRI0fixo0b+Prrr70CYfHixcqK4aJFiyLmf/78uXIFQ0hICJ4+fYokSZIor4cPHyqvBAkSIHPmzFi/fj3ixInjFb+NMimFnVEyQT9IgARIgASiI3D79oNIgk0RbqG3cTn0liLmQkKv4/6DR/D3y4CAAD/4+fnDzz8QadKkU/6fnyhRIiRMmDDSV/mZ+orqd48fP4a8pOTD9qv6c/ufST/5APn69b9xNSwUV67I6yquhP2N5MkSI8A/HTIpgi81AgNSKd+rAjDALzVSp07GB8CABCjsDJgUX3Pp7bffRuvWrdGwYUOHQndH2Ml2T9kSuWbNGofm0qNT+fLlMWrUKJQrVw63bt1C/vz5kSJFCiRPnjza6eTydnmdOHFC6eurjcLOVzPPuEmABEjAmAROng7FgcPnsf/QJRw4dAEHjpyFX4b0ePY8HH5+fvD3D0BGvwD4+QUoVy69+pk/0qRJY8yAANy8eVM5yVtecrJ3WFgowq6EICzs1c8SJoiHsKvXUaRQDhQrnAXFCmdG0ULZkCdXgGFj8hXHKOx8JdMGjrNo0aLKFQRFihRxyEt3hF1oaChKlSqlrI55q+3atQs9evTAzp07ERAQgLRp0yqfzMXW5NO2u3fv4uLFi7F1tezvKewsm1oGRgIkQAKGJvD06XPsP3QB+w6F4MDhizh4+BwOHTmNwEB/FChQEAUKFEKBAgWUV4YMGQwdixbOXb16FUePHv3ndVj5Ghp6BYUL5kbRwjlQtFAWlCgSqHyNHz+eFlPShgMEKOwcgMQu+hKQlSr5BChZMseW9d0RdhJJunTpcPLkSUVQeas1a9ZMWYETP1KnTu2wGyLs5LLzMWPGODzGSh0p7KyUTWvGwroZa+aVUfkegWvX72L1un04dOQSVm84iLPnrqBgwXzIn18EnAi5VyIuceLEvgcnmogfPXqkCLwjR47g6NEjOHbsMI4cOY5cOQJRK7gwihTMgtrViyFdWt/deaT3w0Jhpzdh2o+RwLVr15Q/jH///bfDpNwVdlWrVsXAgQMRFBTk8Jxad5QrHl5//XXl4nJnm5ysKSuPjqzyOWvb6P0p7IyeIWv7x7oZa+eX0ZHArj2nsXrdAaxadxAXLl1DtaqVEVy9LnLlyoXcuXMTkIsE5DqrM2f+wrq1K7Fh4xZkz5oRdaoXQe3qRVG6RC4XrXJYVAQo7PhceJWA7bZERx1xV9j16tULcjplz549HZ1S834StwhL2WOfMWNGp+yLqFu2bJmypdTXGoWdr2Xce/GyboZ1M957+jizpwjIhzVrNhzAyrWH8b/1e5A9ezZUCQpG1arVHC4P8ZSvVprnwIED2LhxAzZvXo/z5y+iVnBJ1K1RCLWDiyJFiiRWCtXjsVDYeRw5J7Ql8Msvv2DVqlX4+eefHQbjrrCbNWuWcuXAzJkzHZ5T645TpkzBl19+ifDwcKXOzpkmq5wDBgxAp06dnBlmib4UdpZIo6GCYN1M5HSwbsZQjyed0YFA6JWb+HnhDixevgcnTl1EUJUgBFWtpnzY6kxphA6u+aRJOahl06ZN2LRpPTZt3Iz8+bKhUf2SaNW0HPwypvJJJu4ETWHnDj2OdZuAiBs5cnfo0KEO23JX2O3du1cRRXv27HF4Tq07qsLO2dU68UNOqPrss8/QsWNHrd0yvD0KO8OnyPAOsm7G+RSxbsZ5ZhxhPAJbfz+GbydtwM49p9C2bXuULVsWJUuWNJ6jPu7R7t27lcPlZs6YhvJl86NH56qoWD6fj1NxPHwKO8dZsacOBNq2bYsKFSqgTZs2Dlt3V9jJvXFS7Cz3t3ir/fnnn8ohKHI/nbPt0qVLyiqnL/4PicLO2aeF/YUA62b0eQ5YN6MPV1rVlsCUWVswfupapEyZDm3bdUDt2rW1nYDWdCOwcuVKzJo5Hffv38KHnaqj/buVdJvLKoYp7KySSZPGUalSJWW1rmLFig5H4K6wk4nk7ji5LDxfPu98CvTgwQOlzi9btmwOx612PHv27Kt7ZBy4IsFp4wYfQGFn8AQZxD3WzXgnEayb8Q53zvpfApcuX8e4KZswceoKNGrUGPIhsrf+f8/8uE9ATtqU8pmlS5ege8e66NG5mnJZOtt/CVDY8anwKgFZsdqxYwcyZcrksB9aCLvmzZsrF6LLtQPeat27d1cuSndmT/+NGzfQoEEDfPvtt95y26vzUth5Fb+hJ2fdjLHSw7oZY+XDV7w5cSoUnwxehL0Hz6BNm3aKoEuUKJGvhG/5OGVbuAi8mTOno3SJ3Bg9tAly5fC3fNzOBEhh5wwt9tWUgGyFTJo0KZ4+feqUXS2E3fDhwyGrZsOGDXNqbq07i6BNlSqVQ//jkT9o4vP58+e1dsM09ijsTJMqjznKuhmPoXZrItbNuIWPgx0gMHjEcvy6ci8++qgvatas6cAIdjEzAflgfOTIEWjR6A0M/qSemUPR1HcKO01x0pgzBE6cOKGsmh0/ftyZYdBC2EmN2qRJkyD7t73Z5JJy2Y4pq3Yi8KJrt27dglxOLqJOxLCvNgo7X838f+Nm3Yx5nwXWzZg3d0b0/OCRUDRr8x3q1H0Lffr0MaKL9ElHAiNHjlTux5s/60MUzOen40zmME1hZ448WdLL1atXY+LEicpBIM40LYSdHEBSvnx5XLx40Zmpden78uVLBAcHK77I6mWSJEmU18OHD5VXvHjxkDNnTqxdu1aX+c1klMLOTNnS3lfWzWjP1JsWfa1uZu/+s2jYahSW/NQXJYrlcAr912OX4tjJEMye3M2hcc72d8ioATv1G7IUy9fsw+TJU3iBuAHz4ymXZKGgc+dOaFS/DIYPqu+paQ05D4WdIdPiG05NmDABJ0+exPjx450KWAthJxPKKtm5c+diXClzyjE3O8udfsuXL4dcx3D79m3Fv+LFiys1dS1atHDTujWGU9hZI4/ORsG6GWeJmau/r9TNUNhp91weOXYJDd75Fk2avoMePXpoZ5iWTE1g7NixWPLrfCyf2wv58gaaOhZXnaewc5Ucx7lNoFevXsrJkD179nTKllbCzpUTOZ1y1I3OWsXohguGHEphZ8i06OoU62Z0xWs442atm4lJtL3XeaLC+cNOtSJW7AL8U6NW4+HIliUDlq3ajSRJEuK31UOUlbwVa/agfvORyph3W1RSVunUFbivPn8HZasNxIRRbVGvVsmIn0sfdZzYCq5SGClTJFHGXgm7pYy5eOl6xDx5cwegbrOvUKtaUXzS661Iz4HY6d53JnZuGAZ/v9SGe0aOn7qOVh0nYfyEyciePbvh/KND3iVw5swZ9PiwK36Z3gV5c6XzrjNemJ3CzgvQOeUrArIS1a5dO9Sv79yyuVai58MPP1S2bnzwwQeGS4lWMRouMDcdorBzE6CJhrNuxkTJ0sFVs9TNiGj7ce5WVHozP1bO74dkyV6dwChCr2LtwXj48AmWz/tYEWG24k+EnYitru2qK8JKFX+2wq1KhYKK+OrdvS6OnbisbMWMTthFNS5r5vSYOLpdhA3xQUTbmAkrI3wVwdjv81+QJXO6SELOVgyKbXvxp0PKHTK5e/95dOjxI9asWedQf3byXQLBwUGYM7kDihV2/r5gM1OjsDNz9kzue6FChTB37lwULFjQqUi0Ej3Tp0/Hrl27MG3aNKfm90RnrWL0hK+enIPCzpO0vTcX62a8x95IMxu5bkYVPurKmS03EUtrNhyIJPRUsafW2KnCzn7lTVb12n0wCWsWDYi0Whbbil3jBmUirbLZ95fVOrXZrg6qP3MlHk8/KzduP0XOwl1x/PgJT0/N+UxKQD68Dzk5DSmTxzNpBM67TWHnPDOO0IiAHBAi97IlTpzYKYtaiZ4///xTWa0TcWe0plWMRovLXX8o7NwlaOzxrJsxdn685Z2R62bcXbHzhLCTLZ8zxneJ8sAWs6zYvXwJpMnWAX/8scMwdfHe+vfAeR0nIO8xq1SuhL/PTMZrrzk+zsw9KezMnD0T+x4WFoZixYrhypUrTkehleh5/PixckCJFO4brWkVo9HictcfCjt3CRp3POtmjJsbI3hm9LoZV2rsoqqVi2pLpdTBSZOtmOrWSvlZtw41lW2WsuUytq2Y0ketw5P6uY3LBqH9h1NMU2NXotJnGDZiLIoUKWKEx5E+mIiAHEg3dEh/7Nr4mYm8dt1VCjvX2XGkGwT++OMP9O3bF9u3b3faipaiJ2/evFixYgXy5MnjtB96DtAyRj399LRtCjtPE/fMfKyb8QxnK8xi5rqZqGrsojoExbY+T63dmzjtfxHXHairbPaHpDhzeIqz1y1o8eyMn7IGb9UphcyZnDvQ4uPP5iFX/uqoV8+5enwtfLa1oZ6+OW7cuEimo/t5dPOvW7cOU6ZMwY8//qi8B3r//feVnUuffPKJcq2R/NyX76vVOm9ib9mypbhwegNGDG6uh3lD2aSwM1Q6fMeZn376SfkDNmfOHKeD1lL0NGnSBM35TPOdAAAgAElEQVSaNUPjxo2d9kPPAVrGqKefnrZNYedp4vrPx7oZ/RlbbQZfrJuxQg7XrN+PTj2novKbBfBp37eRJ1eAQ2EFvt4dK1augb+/v0P99eokgmzgwIFYuXIlMmbMqExz9epV1K1bF8OGDUP16tWdnlru8pXWrZtj9xM6PQEHKARCQkLwdsN6uHj0O8sTobCzfIqNGeCQIUMgF3N//vnnTjuopegZOnQonj17hi+++MJpP/QcoGWMevrpadsUdp4mru98rJvRl69Vrfti3YyVcjln3m/4ctRiFC6YFQN7v42ihbNFG96RYyFo/P4kbN68xesIohJxtqtvsl24YcOGSnlHYGBghACUPgMGDMCtW7dQtGhRZYXuhx9+wJtvvolRo0YpccmHzHXq1IlYyZMVO1kJXLhwofJ76S/CUfVBhIo6TlYQDx06hLZt2yo/k/9P2opPWx/Frq1Alf4iTO3tyc+ln/iqznP58uWI1UQRpCJmpclq45IlS1C4cOFIY2wZeD15ACpWrIjlv3yAfHm9+wGB3iwo7PQmTPtREnjvvfdQtWpVvPvuu04T0lL0LFu2DLNmzcLSpUud9iO2ASJeXRGusdmN7fcy5+DBg2PrZsrfU9gZL23des9Anlz+6NGlttPOsW7GaWSWGCBvQuUNsLyhlDezq1atgv32ttgC9bW6mdh4mPH3i5buxLAxvyLQPw0G9nkbb5T+b0nEqPEbcObSa4b5f5r9tkv5bynlkF0/tit38nNVCMl2yy5dukQSP+pWTBFsp06dUp5/WwFm+3P599K7d29MnToVffr0QVBQkLLCp4q5mTNnKumXf1OTJk36z8qhiMFWrVphzJgxivgSUSZzDh8+XHkPFpU9WZFU4ylfvnzEezV1+6jtyqXKRMSr/Tzil1FWI+V9Ud5scdG7e5AZ/7k47DOFncOo2FFLAhUqVMCIESOUT6ycbVoKu/Pnz6NKlSo4d+6cs27o2l/LGHV11MPGKew8DNyB6eSergFfzMXsuVvxeb8mDgu8mOpm1DdLRnlD4AAGj3Wx/aRcJlU/yfeYA1FMZJsv+9WBqPySGGQ75enTp5VP/V2NwZfqZryZX73nXrV2H4aN/hWJEsXHp30aIajSv1cgBb81Cu06foRKlSrp7YZD9m2f7/v370cIGTkQzlbsqGJMyk4OHjwY6XfRCTj15yLORAh26tQpxu2dtoJNnJcVOxF5It5s24MHDyIEnKzAiZiLyratPYlHFZ/qKp/tf9vaV4WivbBzCKgHO23ZsgWzpn+LdUv6eHBWz09FYed55pwRQEBAAOQTV1f2zGstelKkSKFsQ0iePLlhcqN1jIYJzE1HKOzcBKjj8Nu3H+DzrxY6LPBiqpuhsIs6UfIGSkSQus3K3foerR4Hb+XLl+pmtMqVke1s/u0Ivhz9q3Kp+6d9G6FOjeKoUPsrLFi40jBu266Sbdu2DZs2bYp0CIqto+oWxZhEUlQrdqNHj0bTpk2jrNuz3R4pc6lzyPeyqidCUq3/i0p8tWvXLlK/6OzZxmYv7MSuiMMdO3ZETCFbSdUtoep21DfeeMNwB8E0bVIX21b3M8zzpIcjFHZ6UKXNGAm4e82A1qJHVg2//vpryHYDozStYzRKXO76QWHnLkH9xzsi8GKrm7FfAVLrUI4ePepwPYd9fYq6nejOnTs4duyYIpDUn6lvUNSVI3uhYrv9St1GGFsdje3Jduqn9/Ihkv1ckpHo6lVssxWdiLP99N/+DZcajzp/6dKlla3n8mZQVgVkhUHEke2bMnlzaNtPrZ0R27ZvAtU3bTKHWmsj9mQlzvaTfWfqhGSO6PhG9+T6St2MbfxSny5/C9UmQujuvUd4/jxceaVMkQSpUyeL+H3olZu4FHID4eEvlFeWTOmQNUv6iN8fP3kZR49fxvPwV+MLF8iq1L+pbcefp7B95wk8D3+h/L5iuXyoWD5/xO9Xr9uHNesPRNivX7ukIsrUNm/xdsxb/EeEf62bV0TLphUifj9pxjpMmbUez5+/sl+vVgnFXo2qRXD42N9o074nKleurP8fLwdmUFe/5N+I3IWrrnzFtFIdVY1bTFsxo1uxs/8bYL9iF5OwU/8GtG7dWvlQXURYTPZiE6OqoBXRp67Y2W+nju7nDmDWpQtX7HTB6pLR117KXzE2yxCQN1XyRkLepLnStBY9Xbt2RaFChZStD0ZpWsdolLjc9YPCzl2Cnhsfk8CLrW7GXtiphw2oQixTpkzKYQTR1XPYvqGwr0+RseobEFvBJm++1DoY2zc1qliSN3Byh5ajdTS2pFWx8tFHHyn1Jvb1N1HVq9i/SYrqRD77bEZX1yP95FN02/ll1U9EmzR1C5faT2KU+YWj+gZODoZQ++XMmVP5xF5lGd1WTGfrhNS6Hsm3Pafojn+Xupksfs/RolGxCGGRLm0KpE+XIgLPxUvXcfb81VfCIvwFcuXwU15qO3j4PPYfOv/P78NRslhO5aW2rb8fw5bfj0bYr1a5EKpU/He74PLVe7B8zZ5/hMsLNKpfBg3rlY4Y/+Pcrfhx3m8Rwqb9u1Xxfst/hcq4SasxYer/EP7ilfDq3b0uPuz8b83q0JGLMGz0EmW8/H744Bbo/1HDCPsjvlmC7yavQbx4cREvXhz0/bA+uravEfH7yTPX4YeftyJu3DjKq+P7VdGqWcWI3/+y8HcsWfkn4sV9Nb5pwzdQr1bJiN/LaZab/n817dXv46J6UGFUKJcv4vci/PYeOPvKfpw4KFMyF4oU+vdAlGMnLuP0mSsR/uXNFYBsWTNEjBfhee36XeX3y1btVmJp/FZZfPZJI/w4by9OX3TtoDW9/tqpH8TYHg5iL5JsV9dlK2Z02xqjq7GTv2/SbA9GkZU8uSZKPYFT5vjmm28i/h3HJOxUQSofLNkfxBKVvZhq7GS8+ndBtqPK34ty5crBfjXQaCd+KjV22V9D727V9Ho0DGGXK3aGSINvOSH3xk2bNg3Lly93KXCtRY/8wd2/fz8mT57skj96DNI6Rj189IZNCjtvUHdvTnuB17V9ddRuMjbGuhl7oWArfGKr51DfwNjXkNjWmYhosH8jZjvOz88vkthR3zDZ18rEVEdjL+xs619i+nQ/uk+5Y6tds4/bNl6pabad33aOmOp0bH8X09YseRMqB0gIV3frhGzfnNpue7OvG1L5yqfwnw/uh/DnTyKES88uddCxzb9v3qbP3oifF/6OeHHjKOKhTavKaNqwXESK5BCPVev2vRIecePgrbqlUKPqq0vBpW3cchjbdpxA3LivKXNUqVAw0kEfu/f9hUNHLiqiSGwUK5wd+V/PFDH+r7NhuHDxWoSwyZ41AwL800T8/vqNu7h956EiisR+6lRJkTx54ojfP3v2HC9evFTGy++t2OYu+h2fDp2PyhXyY9igFvDLmEoJ8+jxELz97vfYsmWrYcK2PfzH9gMY29Vm+5MinRV2EqztdkdVjNmu7svfSXXVUP5mxSTsxJ79Vm71Z+qKu609OYFTXaGXWDp27KjMJTsRVDEnq/0ibj/44APIQXTyO9sVfKNtxXy1ut8N+fIGGuZZ0sMRCjs9qNJmjATkD6EcVvLtt9+6REpr0SOfYMkfRLk03SjNnRijOo0zqpMyzdhP8vPyzoJIaRry1UJ8PuLVkdBq+7x/Ewzu14T9DMSlzTtV8FbLkShXJi8OHrsWY91MTIdx2K/G2ddzqG867O+Vshc+9seGqw+LiEjbAwbkgA/bU+vU47/V/tHV0dg+fLYCUD4Jj2n7pIxTt0ba2ohtxS6qrZoqRxF2tm/6YhJ2tv3shZ36BlD1S12xkNP17IWdK3VC9gdQ2J/mF93fZ1+omzHK/5u09kNW6AYOnYfCBbLgy0+bI0f2V/fD2bZM+bpj2fLVSm0+m3cIOHsJu3e8jH5WOaG0caMGuHAk8uXyRvNTC38o7LSgSBtOEZA/ELKV58MPP3RqnNrZHdET1YTyhk/ebMkbQqM0rWM0Slzu+sEVO3cJen78nTsPlUNVZv28WTk1U7aI1W32bYx1M44KO9to7I/wjm7FTv15bKJBtSdzyJH86ifY0Z0MF9OKWkzCznZbU0z1KtHV2IntsWPHKnXCtifp2a/YOSrsbFf27A+KUAWu/VMUVb60qBNydMXOF0668/y/XH1nXLfpID4dOk9ZuRw2qDkK5Msc7YT9Bs9H9teDUb9+fX2dovUIArarj/JDo62+OZsq2XYecnYLhn0W+QNfZ+2YoT+FnRmyZDEfZT+2vAGRN0uuND1EjwjN9evXI0eOHK64pPkYPWLU3EkvGKSw8wJ0F6e0F3Q9u/777330+I0x1s04IuxiquewP+xExIoItZEjR0Y65juqQ1HUe6DUNzZp0qSJ9hTKmOpobLE5Kuxs61WiutctulMxo6pJs707S3xxVNjZ1uJFV2Mn2yJt6/mi2oop27KcrRNytcbOF+pmXPxnaLhhv+84gYFD5yJRwgT4clAzlCqeyyEfSwV9gc+HfIXixf89lMWhgezk8wRkC+lXIwZjx7qBPsGCws4n0mysIPPnz4/FixcjX75/i6+d8VAP0fP2229DTouSNzVGaHrEaIS43PWBws5dgvqPj0nQqbPHVjfjiLBTD/dQtwfafqJse1CAzGl7AqbtSp59P9mGqd6dp/7O9rAVseVoHY2jwi6mepWoDgyxv8cuKp/tT960F5axbcVUT++0PRxC4rE9FdP2d6pP9qdiyhhn6oRkVdS1UzGtXzej/79c/WeY9dNmzPxps7JCZ3uqpiMzyxF6GXJ2xuYtW5E2bVpHhrAPCSi11LVqVkfoyYmwOUjW0mQo7CydXmMGlyhRIsiR4wkTJnTJQT1Ej9SgiV05NckITY8YjRCXuz5Q2LlLUL/xjgg629lZN6NfLly1bC8AXbVjO04E8oQJE9C9e3dEd7Klq/P4Ut2Mq4yMNE5Oxsyd099ll+7cfYZM+Tri1KnTLtvgQN8ikDNnDlw7OwtJk8T1mcAp7Hwm1cYIVE5RKlOmDOR/yK42PUTPr7/+ip9//llZSTRC0yNGI8Tlrg8Udu4S1H78o0dPMeCLuRE1dLZbLmOajXUz2ufCXYt6CDvxSS+7vlQ3425urTJ+/6HLaN15Ktav32SVkBiHTgSCqlTCgh+6oVB+3zp0h8JOpweKZqMmIEdmy3ad3377zWVEeoiev/76C7Vq1YKcgGeEpkeMRojLXR8o7NwlqP34rh9NR55c/nBU0Nl6wLoZ7fNhNIvqNs2oTvp0x1dfq5txh5XVxp4+ex1N3v8e48d/j1y5HKvRsxoDxhM9ATnkqUeP7lg0uytyZU/nc6go7Hwu5d4NePbs2di8ebNS8+Jq00v0yDaha9euIUmSJK66ptk4vWLUzEEvGaKw8xJ4naZl3YxOYC1u1hfrZiyeUqfDO34yBG+1HId69RspBwOxkYAQGD16FFavWorlc3shd04/n4RCYeeTafde0J999hnix4+PQYMGueyEXqJHDl+QY8PLli3rsm9aDdQrRq3885YdCjtvkddvXtbN6MfWqpZ9sW7Gqrl0N65Bw1ZgwZIdmDR5issHsrnrA8d7n8CRI0fQpUtntGxSHkP61/O+Q170gMLOi/B9cepWrVopWx5btmzpcvh6iR45La9EiRLo2LGjy75pNVCvGLXyz1t2KOy8RV7feVk3oy9fK1n31boZK+VQ61iOnQxD0/e/Q9VqtdGvXz+tzdOewQkMHz4cv21ZjwWzP0TeXOkN7q3+7lHY6c+YM9gQKFeuHMaMGaNcdulq00v0SC3I8ePHlRPcvN2yZ8+Oc+fOedsNw81PYWe4lGjmEOtmNENpSUO+XjdjyaRqHNSXo1fgl0U70atXX8h9uWzWJrBixQqMGjkCbVpWwoDert2LbEVCFHZWzKqBY5ILaA8fPowMGTK47KVewu73339H//79IQe8eLNVqVIFDRo0wNKlS7FlyxZvumK4uSnsDJcSTR1i3YymOC1jjHUzlkml7oGcOReGjwcvxPadJ9C2bXu0bdtW82s2dA+CE0RLQO79nDFjBmbNnIEK5fJj9NCmyJbV9feTVkRNYWfFrBo0JrnPSISd/MN0p+kl7O7evYvMmTMrd+x5qw0ZMgQv//9ECblXz/Z7b/ljtHkp7IyWEX38Yd2MPlzNZpV1M2bLmHH8vRJ2C+Mmb8TEqStRt149tGnTFoUKFTKOg/TEKQJyZcrMmTOwZvVqdO9UDz06ByFjhlRO2fCVzhR2vpJpA8QpK3VSWyf/QN1pegk78SlbtmzYunUrsmbN6o6LLo2VeeWCdNtVOlm9k59VrlzZJZtWG0RhZ7WMRh8P62Z8J9dRRcq6Gd/Ov5bRz5izDeOnrEPCxMmVVbz69etraZ62dCQgO5dmzZqB508f4oNO1dGmZXkdZ7OGaQo7a+TRFFHIP1C57kAulXWn6Sns5A9+hw4dUK+e509Vii4uPeN1Jw/eGEth5w3q3p2TdTPe5e/p2Vk342nivjPf9p0nMXbSRvz2+2G0bddeOQG7TJkyvgPAJJHu3LkTu3btwvTpUxFUqSh6dq6KcmXymMR777tJYef9HPiMB9988w1CQkKUw1PcaXoKHbmGIWHChPj000/dcdHpsTGtzEW1kuf0BBYZQGFnkUQ6GQbrZpwEZrLurJsxWcJM7u7f1+7gpwV/4NcV+3Dg0GkEBQUhKKgqqlatinTpfO9Ca2+nU+4P3rhxIzZt2oRNmzaieNG8aFSvBFo1ewPp0qbwtnumm5/CznQpM6/D3bt3V+6Z6datm1tB6CnsFi5cCHktWLDALR+dGexILZ0jfZyZ06x9KezMmjlt/GbdjDYcjWKFdTNGyYTv+nH//mOsWn8IK9cexdr1f8I/IFAReCL25PojNn0I7NmzRxFyIuiuhoWiRnBp1K1REHWrF0aSJAn1mdRHrFLY+UiijRCm3F/Xo0cP1KxZ0y139BR2J0+eVE6kPHHihFs+OjrYmdU41tsBFHaOPlnW78e6GfPmmHUz5s2d1T3fu/8cVqw9ijXr9+HUX5cUgVezZi3kzJmTF6C7kfxjx47hzJkz+N///qesyuXNkxW1g4uhXo2CKF40mxuWOdSeAIUdnwmPEcibNy+kfiJPHvf2Susp7ASGbMW8d+8eEiRIoDsbZ2Nxtr/uAXh4Ago7DwM3wXSsmzFBkgCwbsYceaKX/xK4des+Vq07gP2Hw7B24z4cP3EWBQoUUF4FCxaM+D5ZsmTE9g8B2VZ99OhRyIm2tl8L5M+F6kFFUbxwAOpUL4pUqZKSmU4EKOx0Akuz/yUQP358PHr0CPHixXMLj97ipnTp0pDLykuVKuWWn7ENdmUFzpkVvtjmN+PvKezMmDXP+My6Gc9wdnQW1s04Sor9zELgxYsXOHDoPPYfvox9hy7hwOELOHz4NNKmS4cCBf4VeiL8AgICzBKWy37KmQki3v59HcHNGzdQqFBuFCucHcULB6JYocwoWjibstuGzTMEKOw8w9nnZ7l48SIqVKiACxcuuM1Cb2HXvn17vPHGG2jXrp3bvkZnwJ2aOXfG6haQhwxT2HkItMmnYd2MdxLIuhnvcOes3iUghzu9EnyXsP/QRRw8fBapUqXEs2fh8PPzg7+/PzL6BcLPz1/5Xn2lT5/eu47HMPvff/+NsLAwXLlyRXmFhV1B2JUQ5av8d+JECXDz1m0UKZQDxQpneSXgCmVDjuwZDRuTrzhGYecrmfZynHI3mwiSzZs3u+2J3sLuu+++U/aCjxs3zm1fozKgxaqbK6t9ugTjYaMUdh4GbpHpWDejTyJZN6MPV1o1PwH5cOly6A2EhN589fXKTYSE3sGlkJvK9/KzGzfuwN8/PQL8/RUB6OcfiLRp00N2NyVKlCjilThx4ojvpVTE9ne23z9+/BjRvZ48eaL8TnZN2fZ59uwZrl//WznARBFxipi7hnTpUiLQPy0yBaRFYEAqZFJeaRHonwaZAl99TZYskfkTZcEIKOwsmFQjhjRz5kxs374dM2bMcNs9vYWdliI0qmC18l8rO24nxIMGKOw8CNuiU7FuxvnEsm7GeWYcQQKxEQgPf/Gv8PtHAN6++wAP7j/Dw8fP8OjRUzyy+/r4ydN/fi5fRaw9waPHT1CqREHs3nsEiROJ8EuIxIkTKqtqiRMnUL4mku8Txf/nv199TZIoPlIkT4gUKZJEEmyBAWkQN26c2Nzn7w1KgMLOoImxmlsDBw5E0qRJMWDAALdD01vQ3Lp1SzkB6+bNm277am9Ay5U2LVb+NA9QZ4MUdjoD9kHzrJuJnHTWzfjgPwKGTAIkYBkCFHaWSaWxA2nRooVyjUDz5s3ddlRvYScOZs6cGTt27ECmTJnc9lc1oEdtnB42NQtYB0MUdjpApckoCbBuhnUz/KdBAiRAAmYjQGFntoyZ1N8yZcpg/PjxkBMn3W2eEHZ16tRRLlKvXbu2u+4q4/VcXdNyFVCTYHU0QmGnI1yajpUA62ZiRcQOJEACJEACXiRAYedF+L40dbp06SCXf6dNm9btsD0h7Pr374+UKVOiX79+bvsrBvT2WW/7mkDQwAiFnQYQaUJXAqyb0RUvjZMACZAACcRAgMKOj4fuBO7evatsbbxz544mc3lCxMybNw/Lli3D3Llz3fbZEytqeq4Iug1AQwMUdhrCpCkSIAESIAESIAFLEaCws1Q6jRnMgQMH0KZNG+zfv18TBz0h7OQY7yZNmigXb7rTPFkD58m53GHizlgKO3focSwJkAAJkAAJkICVCVDYWTm7Bolt8eLFysrXokWLNPHIE8JOHI0XLx7k7pe4ceO65Lc3VtE8sTroEgyNBlHYaQSSZkiABEiABEiABCxHgMLOcik1XkCjRo3CtWvXMHLkSE2c85SwK168uHLvXrFixVzyW1bQBg8e7NJYdwZ5a153fHZ0LIWdo6TYjwRIgARIgARIwNcIUNj5Wsa9EG+XLl1QpEgRdO7cWZPZPSXsZPtopUqV8P7772viN424T4DCzn2GtEACJEACJEACJGBNAhR21syroaKqXr06+vbti+DgYE388pSwGzt2LC5duoRvvvlGE79pxH0CFHbuM6QFEiABEiABEiABaxKgsLNmXg0VVa5cubB27VrkzJlTE788Jew2btyIESNGYMOGDZr4TSPuE6Cwc58hLZAACZAACZAACViTAIWdNfNqqKjixImD8PBw5S43LZqnhJ3UBRYoUAB///23Fm7ThgYEKOw0gEgTJEACJEACJEACliRAYWfJtBonqHPnzqFq1ao4e/asZk55StiJwwEBAdi7dy/8/f0185+GXCdAYec6O44kARIgARIgARKwNgEKO2vn1+vR6bGd0ZPCrmbNmujVqxdq1KjhdZZ0AMqq78s7C4iCBEiABEiABEiABEjAjgCFHR8JXQlMmzYNu3fvxtSpUzWbx5PC7uOPP0b69OmVw1/YvE+Aws77OaAHJEACJEACJEACxiRAYWfMvFjGq379+iF16tT45JNPNIvJk8Lup59+Ug5+mTNnjmb+05DrBCjsXGfHkSRAAiRAAiRAAtYmQGFn7fx6PbqmTZuiSZMmykur5klhd/jwYbRs2RKHDh1y2f379++jbt26yJo1K2bPnh1hR2r32rVrhzVr1iA0NDTi+5jq+d577z3kz59fU6HscmBeGEhh5wXonJIESIAESIAESMAUBCjsTJEm8zpZsmRJTJkyBSVKlNAsCE8KO3Ha3flWrFiBMWPGKPHPnTs34iAWCjvnHwkKO+eZcQQJkAAJkAAJkIBvEKCw8408ey1K2YYpJ2OmSpVKMx/cFVrOOlKkSBFlK2bhwoWdHar0l1W2xo0bY9GiRRGrbVeuXEHZsmVx8eJFZMmSRalBlO2qsnonK3YiBuvXr6+Mr1SpElauXImJEydCtrZK++qrr5T+X3/9dcTPkiRJgt9++01TEe1SwDoOorDTES5NkwAJkAAJkAAJmJoAhZ2p02ds52/duqVcSn7z5k1NHfW0sGvdurVyKmarVq2cjkMEXIsWLZSVOtluOXToUEjdXrJkyZRrFKLaiin9GjZsiCVLliBv3ryRtnHabsUU8de9e3fs3LlTEYPyO2m22z2ddtjgAyjsDJ4gukcCJEACJEACJOA1AhR2XkNv/YlFuHTq1Al79uzRNFhPC7vRo0fj6tWrGDVqlNNxiPiSlToRW1JrJ+Jw0KBByqpadMLuxx9/VFbuZJVOBKC6lVP+u1u3btHW2Mnq3bFjxyjsnM4SB5AACZAACZAACZCA+QlQ2Jk/h4aNYMGCBVi8eDHmz5+vqY+eFnbr1q1TauTkdExnm6yiiVCzbeo2ypiEnbrlUh0n2zVlZU5+rh6eoh7KsnXr1gjz7777LoWds0lifxIgARIgARIgARKwAAEKOwsk0aghiIC5c+cORowYoamLnhZ2YWFhKFasGGRbpTNNhJu6pVI9PCam7ZfqtkwRgtGtvNluxZQVOtuVPa7YOZMd9iUBEiABEiABEiABaxGgsLNWPg0VTceOHVGqVCl06NBBU788LezE+QwZMuDo0aPKZeWONnvhJePUQ1MmTJiAgICAWGvsRBCKmLtw4YKyNdN2K6at/Xv37imHsVSuXJkrdo4miP1IgARIgARIgARIwEIEKOwslEyjhVK1alUMHDgQQUFBmrrmDWEXHBysnEJZrVo1h2JRt0nWqlXrP3fOqUJt+vTpEEbSYjoVU92GKQekqKdgymqobLu0PVmzf//+mDdvXkRtnkOOmqwTD08xWcLoLgmQAAmQAAmQgMcIUNh5DLXvTZQ9e3Zs3rwZ2bJl0zR4bwi73r17IzAwEB999JGmsdCYcwQo7Jzjxd4kQAIkQAIkQAK+Q4DCzndy7dFIX758ibhx4+LFixeaz+sNYSenWopI/eGHHzSPhwYdJ0Bh5zgr9iQBEiABEiABEvAtAhR2vpVvj0X7119/QbYhng2Xz3gAACAASURBVD59WvM5vSHs9u/fr9TD7du3T/N4aNBxAhR2jrNiTxIgARIgARIgAd8iQGHnW/n2WLTuXBEQm5PeEHay8hg/fnyEh4fH5h5/ryMBCjsd4dI0CZAACZAACZCAqQlQ2Jk6fcZ1fvLkyTh48CAmTZqkuZPeEHYSRMGCBZU7+QoUKKB5TDToGAEKO8c4sRcJkAAJkAAJkIDvEaCw872ceyTivn37ImPGjOjTp4/m83lL2L3zzjuoV68eWrRooXlMNOgYAQo7xzixFwmQAAmQAAmQgO8RoLDzvZx7JOJGjRqhZcuWePvttzWfz1vCTq8L1zUHZGGDFHYWTi5DIwESIAESIAEScIsAhZ1b+Dg4OgLFihXDrFmzULRoUc0heUvYrVmzBuPHj8fq1as1j4kGHSNAYecYJ/YiARIgARIgARLwPQIUdr6Xc49EnDJlSly6dAkpUqTQfD5vCbuQkBCUKVMGly9f1jwmGnSMAIWdY5zYiwRIgARIgARIwPcIUNj5Xs51j/j69evIly8frl27pstc3hJ2EkzatGmVKxzSpEmjS2w0GjMBCjs+ISRAAiRAAiRAAiQQNQEKOz4ZmhP4888/8cEHH2DXrl2a2xaD3hR2VapUweDBg1G5cmVdYqNRCjs+AyRAAiRAAiRAAiTgCgEKO1eocUyMBObNm4dly5Zh7ty5upDyprDr2bMnsmfPjh49eugSG41S2PEZIAESIAESIAESIAFXCFDYuUKNY2IkMGzYMDx69AhffvmlLqS8KexmzpyJ7du3Y8aMGbrERqMUdnwGSIAESIAESIAESMAVAhR2rlDjmBgJtGvXDuXLl0fbtm11IeVNYbdnzx506dIFu3fv1iU2GqWw4zNAAiRAAiRAAiRAAq4QoLBzhRrHxEhA7zo0bwq7p0+fInny5Hjy5AmfAi8Q4OEpXoDOKUmABEiABEiABExBgMLOFGkyl5NZsmRRtitmzpxZF8e9KewkIDnxc8mSJXj99dd1iY9GoydAYcengwRIgARIgARIgASiJkBhxydDUwLPnz9H4sSJ8ezZM03t2hrztrBr1qwZGjVqhKZNm+oWIw1H8wfrtdfw8s4C4iEBEiABEiABEiABErAjQGHHR0JTAqdOnUK9evVw8uRJTe0aSdjpfTiMbuAsYJgrdhZIIkMgARIgARIgARLQhQCFnS5YfdfomjVrMH78eKxevVo3CN5esVuxYgWmTZuG5cuX6xYjDXPFjs8ACZAACZAACZAACThDgMLOGVrsGyuBiRMn4vjx45gwYUKsfV3t4G1hd/HiRVSoUAEXLlxwNQSOc5EAV+xcBMdhJEACJEACJEAClidAYWf5FHs2wN69eyMwMBAfffSRbhN7W9hJYKlSpVKEXcqUKXWLk4b/S4DCjk8FCZAACZAACZAACURNgMKOT4amBN566y20adMGDRo00NSurTEjCLuKFStCau1k5Y7NcwQo7DzHmjORAAmQAAmQAAmYiwCFnbnyZXhvCxcujJ9//hmFChXSzVcjCLvu3bsr1x5069ZNtzhpmCt2fAZIgARIgARIgARIwFECFHaOkmI/hwgkS5YMV69eRdKkSR3q70onIwg7OTxl9+7dmDp1qishcIyLBLhi5yI4DiMBEiABEiABErA8AQo7y6fYcwGKoCtSpAjCwsJ0ndQIwm7Xrl3o0aMHdu7cqWusNB6ZAIUdnwgSIAESIAESIAESiJoAhR2fDM0I7NixA3J4yh9//KGZzagMGUHYPXr0CGnTpsXDhw91jZXGKez4DJAACZAACZAACZCAIwQo7ByhxD4OEZDaOrnH7qeffnKov6udjCDsxPfcuXMr8ebKlcvVUDjOSQJcsXMSGLuTAAmQAAmQAAn4DAEKO59Jtf6BfvHFFwgPD8eQIUN0ncwowq5x48Zo0aIFGjVqpGu8NP4vAQo7Pg0kQAIkQAIkQAIkEDUBCjs+GZoReP/991GlShW89957mtmMypBRhJ2nhKyuME1mnMLOZAmjuyRAAiRAAiRAAh4jQGHnMdTWn8hTd7sZRdgtXboUs2fPxpIlS6yfXINESGFnkETQDRIgARIgARIgAcMRoLAzXErM61BgYKByBUBAQICuQRhF2J09exbBwcE4c+aMrvHS+L8EKOz4NJAACZAACZAACZBA1AQo7PhkaELgyZMnSJkyJR4/fqyJvZiMGEXYiY/JkyfHlStXIPf3selPgMJOf8acgQRIgARIgARIwJwEKOzMmTfDeX38+HHlEJFjx47p7puRhF358uUxatQolCtXTve4OQFAYcengARIgARIgARIgAS4YsdnQEcCK1euxJQpU7BixQodZ3ll2kjCrkuXLsql7J07d9Y9bk5AYcdngARIgARIgARIgASiI8AVOz4bmhD47rvvlFqzcePGaWIvJiNGEnaTJk3C4cOH8f333+seNyegsOMzQAIkQAIkQAIkQAIUdnwGdCXQs2dPZM+eHT169NB1HqOt2P3xxx/o27cvtm/frnvcnIDCjs8ACZAACZAACZAACVDY8RnQlUC9evXQqVMn1K1bV9d5jCbs7t+/D39/f9y7d0/3uDkBhR2fARIgARIgARIgARKgsOMzoCuBAgUKYOHChcifP7+u8xhN2Ik/OXLkwMaNG5UVSzZ9CfDwFH350joJkAAJkAAJkIB5CbDGzry5M5TniRMnxq1bt5AoUSLd/TJSjZ0E+9Zbb6FNmzZo0KCB7rH7+gQUdr7+BDB+EiABEiABEiABrtjxGdCNQGhoKEqVKoWQkBDd5rA1bDRhN3jwYMSNGxefffaZR+L35Uko7Hw5+4ydBEiABEiABEggJgJcsePz4TaB33//Hf3798e2bdvctuWIAaMJu8WLF2Pu3LlYtGiRI+6zjxsEKOzcgMehJEACJEACJEACliZAYWfp9HomuB9//FGpMZs9e7ZHJjSasDt9+jTq1KmDU6dOeSR+X56Ews6Xs8/YSYAESIAESIAEuGLHZ0BXAp7eimg0YSdwPVljqGsyDW6cws7gCaJ7JEACJEACJEACXiPAFTuvobfOxK1bt0aNGjXQqlUrjwRlRGFXtmxZ5XL2MmXKeISBr05CYeermWfcJEACJEACJEACsRGgsIuNEH8fK4Hy5ctj1KhRKFeuXKx9tehgRGHXsWNH5QCZDh06aBEibURDgMKOjwYJkAAJkAAJkAAJRE2Awo5PhtsE/Pz8cPDgQWTMmNFtW44YMKKw+/PPP3Hjxg3UqlULc+bMwfLly7F//37Ejx8fz549Q/HixZXrEFq2bOlIiOxDYcdngARIgARIgARIgAScIkBh5xQudrYn8PDhQ6RPnx4PHjzwGBwjCjsJ/vnz5wgODlaufXj69CmSJEmivISRvBIkSIDMmTNj/fr1iBMnjsd4WWkirthZKZuMhQRIgARIgARIQEsCFHZa0vRBW0eOHEGLFi1w+PBhj0VvRGEnl7Pnz58fKVKkQPLkyaNlce/ePcjrxIkTSl825whQ2DnHi71JgARIgARIgAR8hwCFne/kWpdIly1bhlmzZmHp0qW62I/KqBGFXUBAANKmTYuECRPGyuHx48e4e/cuLl68GGtfdohMgMKOTwQJkAAJkAAJkAAJRE2Awo5PhlsExo4di0uXLuGbb75xy44zg40m7Hr27IkVK1YgderUDochwq5evXoYM2aMw2PYEaCw41NAAiRAAiRAAiRAAhR2fAZ0IPDBBx8gb9686N69uw7Wo3loX3sNL1++9Nh8MU0ktYXZsmVD1qxZnfbn3LlzCA0NdWiVz2njFh1AYWfRxDIsEiABEiABEiABtwlwxc5thL5toHbt2hBxJ6dBeqoZacVu165dePvtt+Hv7+90+CLqZCurXJPA5hgBCjvHOLEXCZAACZAACZCA7xGgsPO9nGsa8euvv66IE1m181QzkrCbMmUKhg8frpwM6my7du0aBgwYgE6dOjk71Gf7U9j5bOoZOAmQAAmQAAmQQCwEKOz4iLhFQI7wl+2Icl+bp5rRhN2XX37p0h1+YWFh+OyzzyCXm7M5RoDCzjFO7OU9Ak+ePENI6E1cDr2BkCs3cTnkJu7ee4R79x/j4aNnePz4GR49Vr8+/ee/n+LRoyd4/OSZ8vXJk6d49PgJSpUoiN17jyBxooRImDABEidOiEQJ4ytfEydKgESJ4tt8lZ8nQOJE8ZA8eSKkTJ4YgQFpkCkgLQL90yjfJ0zoub/T3ssAZyYBEiAB3yVAYee7uXc7cjk0pXz58h4/3dFIwk4uJpdDUOR+Omeb8Fu1ahVKlizp7FCf7U9h57OpN0Tgt28/iCTYFOEWehuXQ28pYi4k9DruP3gEf78MCAjwg5+fP/z8A5EmTTrlHstEiRIpNbW2X+V79RXV7+QUXXk9efIk0lf157a/U79/9uwZrl//G1fDQnHliryu4krY30ieLDEC/NMhkyL4UiMwIJXyvSoAA/xSI3XqZIZgTSdIgARIgAScJ0Bh5zwzjviHwNatWzF48GBs2bLFo0yMJOxktVIOTpEDVJxtZ8+exZUrV3h4ihPgKOycgMWubhE4eToUBw6fx/5Dl3Dg0AUcOHIWfhnS49nzcPj5+cHfPwAZ/QLg5xeg1Ni++pk/0qRJ49a8eg6+efOm8jdHXrJjICwsFGFXQhAW9upnCRPEQ9jV6yhSKAeKFc6CYoUzo2ihbMiTK0BPt2ibBEiABEhAIwIUdhqB9EUzcn/dtm3bMHPmTI+GbyRhJ4HLiaBr1qxx6rqDGzduoEGDBvj22289ys7sk1HYmT2DxvP/6dPn2H/oAvYdCsGBwxdx8PA5HDpyGoGB/ihQoCAKFCiEAgUKKK8MGTIYLwCNPbp69SqOHj36z+uw8jU09AoKF8yNooVzoGihLChRJFD5Gj9+PI1npzkSIAESIAF3CFDYuUPPx8d++umnSJw4MQYOHOhREkYTdhJ8pkyZkCpVKmVLVWzt0aNHuH//Pi5cuBBbV/7ejgCFHR8Jdwlcu34Xq9ftw6Ejl7B6w0GcPXcFBQvmQ/78IuBEyL0ScfK3je0VAfmbJQLvyJEjOHr0CI4dO4wjR44jV45A1AoujCIFs6B29WJIlzYFkZEACZAACXiRAIWdF+Gbfep33nlHqS9r0aKFR0MxorC7d++esiVTtmGJwIuu3bp1C3fu3FFEXdKkST3KzQqTUdhZIYuej2HXntNYve4AVq07iAuXrqFa1coIrl4XuXLlQu7cuT3vkEVmPHXqFM6c+Qvr1q7Eho1bkD1rRtSpXgS1qxdF6RK5LBIlwyABEiAB8xCgsDNPrgznadmyZTFu3DiUKVPGo74ZUdgJALk0PTg4WDlM5unTp0iSJInyevjwofKKFy8ecubMibVr13qUl5Umo7CzUjb1i0UOOVmz4QBWrj2M/63fg+zZs6FKUDCqVq2GIkWK6Dexj1s+cOAANm7cgM2b1+P8+YuoFVwSdWsUQu3gokiRIomP02H4JEACJKA/AQo7/Rlbdga5u+348eNIly6dR2M0qrBTIfzyyy9Yvnw59u7di9u3byu1d8WLF1dq6jy9uunRxHhgMgo7D0A26RShV27i54U7sHj5Hpw4dRFBVYIQVLUagoKCnKp/NWn4hnNbDmrZtGkTNm1aj00bNyN/vmxoVL8kWjUtB7+M0e9qMFwgdIgESIAETESAws5EyTKSq7L1MDAwEHfv3vW4W0YXdrZAzOSrxxPpwoQUdi5As/iQrb8fw7eTNmDnnlNo27Y9ZCcBrxAxXtJ3796NnTt3YuaMaShfNj96dK6KiuXzGc9RekQCJEACJiZAYWfi5HnT9YMHD+K9996DbL3xdDOTWDKTr57OoyvzUdi5Qs2aY6bM2oLxU9ciZcp0aNuuA2rXrm3NQC0Y1cqVKzFr5nTcv38LH3aqjvbvVrJglAyJBEiABDxPgMLO88wtMeOvv/6Kn3/+GYsXL/Z4PGYSS2by1eOJdGFCCjsXoFloyKXL1zFuyiZMnLoCjRo1Rtu2bZEvH1d9zJpiOWlTrstZunQJunesix6dqymXpbORAAmQAAm4RoDCzjVuPj9q9OjRkPuORo0a5XEWZhJLZvLV44l0YUIKOxegWWDIiVOh+GTwIuw9eAZt2rRTBJ0jV4tYIHSfCEGuUxCBN3PmdJQukRujhzZBrhz+PhE7gyQBEiABLQlQ2GlJ04dsde3aFYUKFUKXLl08HrWZxJKZfPV4Il2YkMLOBWgmHzJ4xHL8unIvPvqoL2rWrGnyaOh+bATWrFmDkSNHoEWjNzD4k3qxdefvSYAESIAEbAhQ2PFxcIlAjRo10Lt3b1SvXt2l8e4MMpNYMpOv7uTEU2Mp7DxF2vvzHDwSimZtvkOdum+hT58+3neIHniUwMiRI5X78ebP+hAF8/l5dG5ORgIkQAJmJUBhZ9bMedlvudRXPlmVC3493cwklszkq6fz6Mp8FHauUDPfmH5DlmL5mn2YPHkKLxA3X/o08/jEiRPo3LkTGtUvg+GD6mtml4ZIgARIwKoEKOysmlmd44obNy6ePXuGOHHi6DzTf82bSSyZyVePJ9KFCSnsXIBmoiFHjl1Cg3e+RZOm76BHjx4m8pyu6klg7NixWPLrfCyf2wv58gbqORVtkwAJkICpCVDYmTp93nH+/PnzqFKlCs6dO+cVBzwtloYMGYLPP//c47HKnIMHD/b4vEaekMLOyNlxz7fjp66jVcdJGD9hMrJnz+6eMY62HIEzZ86gx4dd8cv0LsibK53l4mNAJEACJKAFAQo7LSj6mI1NmzZh2LBh2Lhxo1ci97SwcydIM/nqTpyeGkth5ynSnp1n9/7z6NDjR6xZs86zE3M20xEIDg7CnMkdUKxwZtP5TodJgARIQG8CFHZ6E7ag/enTp2PXrl2YNm2aV6Izk1gyk69eSaaTk1LYOQnMA93PnAtDzuyuH25x4/ZT5CzcFcePn/CAt5zCCgSkxjvk5DSkTB7PCuEwBhIgARLQjACFnWYofcfQgAEDkDx5cvTv398rQZtJLJnJV68k08lJKeycBOaB7jN+3ISfFmzDsEHNUa5MXqdmfPkSSJOtA/74YwdSpUrl1Fh29l0CN27cQJXKlfD3mcl47TXf5cDISYAESMCeAIUdnwmnCTRr1gyNGjVC06ZNnR6rxQAziSUz+apFbvS2QWGnN2HX7G/ZdhQDh85DqpRJ8OWnzVGsiGM1ciUqfYZhI8aiSJEirk3MUYYmIAfgrFy5EnPmzFF2ePTq1QuFCxfWxOe9e/di6JD+2LXxM03s0QgJkAAJWIEAhZ0VsujhGEqVKoVJkyahZMmSHp751XRmEktm8tUryXRyUgo7J4F5uPvqdfvw6ZfzkSNbBgwb1AJ5cwdE68HHn81DrvzVUa+e88fYHzp0CA0bNsSjR48U+4kTJ8aSJUs0Ew2uYHvw4AHeffdddOrUye37PdetW4f3338/wo2BAweiW7durril2RhhLneX/vTTT7h69WrE9xkzZoxyDukzfPhw5XRT+TAwS5Ys+PHHH5E0aVLNfFq2bCkunN6AEYOba2aThkiABEjAzAQo7MycPS/5njZtWpw+fRpp0qTxigdmEkvu+DpjxgzMmjULcrWE+mrXrh2aN4/8JmbRokVYtWoV4sWLF/GqX78+goODI+Vn8+bN+OOPPyL1e/PNN1GiRIlI/Y4cOYKTJ09G6pc3b15ky5YtUr/Q0FBcu3YtUr906dIhZcqUkfrJtRjh4eERMbhzRQaFnVf+yTk96eJlO5UVvNIlcikreFky//cUw8DXu2PFyjXw9/d3yr4qen744YcIASU/E/Ejq0PRCQ2nJvFiZ4mlS5cuEUJVFYxBQUFeFXe2ws4ojENCQvB2w3q4ePQ7L2aMU5MACZCAcQhQ2BknF6bw5Pbt28pR5Ldu3fKav+6IJU877Y6vly9fxoULFxRRpL5y5MgBedm2gwcPYv/+/Xj+/HnEq3Tp0pCXbZPTTOVl269WrVqoUaNGpH4LFiyAvGz7tW7dGi1btozUT1Ztp0yZEqlfz5490b1790j9hg4dqnxyr8bw4sUL5b/tazS//vprTJgwIZJQlK1bHTt2jLAnPGdM6IxfFm1H3DhxEDfuq9d7LSqh8VtlI827bNVu/G/DAcSLF/efVxzUDi6GKhULRuq37Y/j+HPvXxF9pH/ZkrlRpFBkIXviVAj+OhsWMafMnzun/39Ey9/X7uDW7QeIFy8O4sV9NbdsUUyaNFGkeV++fKmsPlu5zZn3Gz79ch5qVi2KYZ81R7q0KZRwjxwLQeP3J2Hz5i1OhR+dyLFfLVP/e8eOHYp9VQSKOGnbtq3yM2EvQlBWltTVv8DAwAhxKAJr1KhRSt+jR4/+Z1VQVqIWLlwYYb98+fKRVuzsV91UH+TnUqcsf0OLFi0aaRUruvjsRZWt7TfeeEOxIU1WDOXf/dSpU5XVTBG7p06dUvxUY0uWLFmU/dQVQdvVUHWM2K5bty5ESMnPRo4cqfwbltU7EXm2Y1R/ZGVu4sSJygnK0mxXVaPLj1MPwz+dK1asiOW/fIB8eZ37gMCVuTiGBEiABIxOgMLO6BkymH/79u1Dhw4dIPUN3mruiCVP+2wmXz3JJipRc//+fcgHB7aCUlaH06dPH+Ga8Dx7cALOnr+K8BcvEB7+6pUnlz/y5Iq87W/v/rPYvf8vPH/+As+fhysvOdzD/oCPdZsOYt2mQxF9pH+9WiVQp0bxSEh+Wfg75i7aHjGnzC+CsnXzipH6jZ+yBhOnrX1lL/zV3H0+qIeeXetE6jd4+AJ88fUixInzWoRY/GJAM/TtEXlr4jcTVmLSjHWRhOcHHWuibeugSPZ++HkL5v8qK7IiJuMoX1s3q4j6tSNvmV6+eg82bzsaSXjWrFYE5cu+HsneH7tOYv+hc6/sKQI1DkoVz4X8r2eK1O/0mSu4cPHav4I3bhzkyJYR/n6pI/pNnbUBA774BS0av4nBnzTGrLl/4syl15y+p1EVZjNnzoxx26V6ufm4ceNguwImDomIkw8lqlevrog6ESwiPuS/ZZx8oCJCafv27cp2SBFkqmjLlCkTxKYIFhFM8r0qukRM9enTR9mK6efnpwhI1U/pLx+qqHZtV+RsYToSnyqiJAZbv0RoibCTZuu/iDuJQ34nq37q9xcvXowQtqqvItKi4yH3yEW1FVPma9WqFcaMGaPkRBjmyZMHcnKl7SqqbU7sOUfHw5G/SXLXZ95scdG7e+R/D46MZR8SIAESsBoBCjurZVTneGTb3/z58yM+qdZ5uijNm0ksmclXb+TS2TmtuBVTVjBVgSqrj/HjRz7C/fbtB7h+814k4ZkxQ8pIwkk4yrUDp8+ERepXIF8m5MsbWYjt+PMUdu05HUl4Vn6zAN58I7KwW/m/vcqKpyKMw18J48YNyqJuzchbd2f9tBkiem2Fdqc2wf8RvD0+mYVVa/ehfq2SOHz8b7Tr+BEqVark1CNgv3KlCjNZSZImQqJx48aRxIntap694LLfwmlrX1bCbYWJKuZUAWVfSxdTjZ3MI6vbquCKbtuoI9sdbW3Jqpgag6yyi7BUt2za21IFl63IU1fpohNj0dXV2dbYCSc1tpjq56Lj5+5W0y1btmDW9G+xbkkfp54ldiYBEiABKxKgsLNiVnWMSbbLyRair776SsdZYjZtJrFkJl+9llAnJraisHMifFN2la2uw0b/ihs372Ngn4Z4q25pVKj9FRYsXOl0PDGtaKniRBV2qthTJxExVaFChUiHfthvl5S+6pbBsLCwSIJFFSayjdJ2VUu1by/sbLdqSh91i6KsBEYnhBxZsbNd/RMhFdWKoaw+xibsbIWprbCzPbTFlod8H9WKnXzYp65G2go7++2WMr5JkybKNlR7fur8rh4Q07RJXWxb3c/p54kDSIAESMBqBCjsrJZRneORNwNy2IZt3ZPOU/7HvJnEkpl89XQeXZmPws4Vat4ZI1tcRdDJXXUi6GpULRrhSPWGo9GmfU9UrlzZKediWt2xFXa2WwNtJ4iqVi06kWW/MubMip3MabsqZ79iF92c0cUnK2Rdu3bF999/D/sVMvsVO1WwxSbs1JU92zll+2RMojMqYRfdip29AOWKnVOPOjuTAAmQgEsEKOxcwua7g+SkxU8++QTVqlXzGgQziSUz+eq1hDoxMYWdE7C81FUOrRFBlzpVMkXQVSyf/z+ejB6/EacvvsTnn3/utJfRnYopK03qtQC29Vy2NWmyFVMVJ1JPZl9jJ+JDaurkUBV7wWJbV2dvX2rU5PdyqIgIK1thpx5WIj9Tt2LGtHUxulMx1fq+2GrsHBV2qj9SOxddjZ0tD9vtl/bf29YTqmykzk5dyZP6WVmlK1eunFKXqHmNXfbX0Lub9/6f5PRDzAEkQAIkoBMBCjudwFrVrJzIuHHjRuVkTG81M4klM/nqrXw6My+FnTO0PNt33uLtiqDLmd1PEXRy0Ep07ejxELz97vfYsmWrS07a19bZ32Nnvw1QFXxR1bDZnuhoaye6FTsRJlGd6mh7Kqb6vZzKKTblgA+5pFtOkXSkJs1+i6hsYZR51RbTqZiOCjsRiranesr2TWnR8VCZSx/7UzGj8kcVc+pJmh988AGWLVsW6QRP+1NLXXkYXp2K2Q358ga6MpxjSIAESMBSBCjsLJVO/YMxglAxgg+OkjaTr47G5M1+FHbepB/13Bs2H0LnXtMUISeCrmD+LA45mSlfdyxbvhoBAdFfYu6QIXZyioCWF6nbTiziTpoqEJ1yysXOcoJp40YNcOHIv6LXRVMcRgIkQAKWIEBhZ4k0eiaIs2fPKpdey9YdbzYziSUz+erNnDo6N4Wdo6Q812/cpNWoW7O4slLnTOs3eD6yvx6M+vUjX+/gjA32dZ6AXsJOPHH3EBRno1myZAlCzm7BsM+aODuU/UmABEjAkgQo7CyZVn2CWr9+vXJhr/rJrD6zxG7VTGJJKRdjkQAAIABJREFUtqyeO3cu9qDYwyECFHYOYTJNp1JBX+DzIV+hePHIdwaaJgA6qhBQt2nevHkTIrbkPju9259//omvRgzGjnUD9Z6K9kmABEjANAQo7EyTKu87KgX/+/fvx+TJk73qjFmEXZUqVdCgQQMsXboUctcSm/sEKOzcZ2gkC3JiZoacnbF5y1bIZfRsJOAIARGStWpWR+jJiXjtNUdGsA8JkAAJ+AYBCjvfyLMmUcppmPLm6+OPP9bEnqtGzCDshgwZgpf//65VTv2z/d7VmDnuFQEKO+s9CXfuPkOmfB1x6tRp6wXHiHQhkDNnDlw7OwtJk8TVxT6NkgAJkIBZCVDYmTVzXvBbLv5t0aIFGjVq5IXZ/53S6MJu69atyil4tqt0snonP3P23i6vgjbg5BR2BkyKBi7tP3QZrTtPxfr1mzSwRhNWJhBUpRIW/NANhfLz0B0r55mxkQAJuEaAws41bj45SupgZsyYgWLFink1fqMLu+j8M7rfXk2qg5NT2DkIyoTdTp+9jibvf4/x479HrlzRX5VgwtDosgYETp06hR49umPR7K7IlT2dBhZpggRIgASsR4DCzno51S2iVKlS4cKFC0iZMqVuczhi2MgCKaaVuahW8hyJl33+JUBhZ+2n4fjJELzVchzq1W+kXCTORgJCYPToUVi9aimWz+2F3DmdO32VBEmABEjAlwhQ2PlStt2I9caNG8ibNy+uX7/uhhVthhpV2DlSS+dIH20oWdMKhZ0182of1aBhK7BgyQ5MmjwF+fLl842gGeV/CBw5cgRdunRGyyblMaR/PRIiARIgARKIhQCFHR8Rhwjs3r0b3bp1gxwx7e1mRGHnzGoc6+1cf4Io7FxnZ7aRx06Goen736Fqtdro16+f2dynv24SGD58OH7bsh4LZn+IvLnSu2mNw0mABEjANwhQ2PlGnt2Ocv78+cr9RPPmzXPblrsGjCjsnPXJ2f7uMrPKeAo7q2TS8Ti+HL0CvyzaiV69+qJu3bqOD2RPUxJYsWIFRo0cgTYtK2FA7zqmjIFOkwAJkIC3CFDYeYu8yeaVT08fPHiAYcOGed1zo4kiV1bgnFnh8zpwAzlAYWegZHjQlTPnwvDx4IXYvvME2rZtj7Zt2yJp0qQe9IBT6Ung/v37ysFcs2bOQIVy+TF6aFNky5pBzylpmwRIgAQsSYDCzpJp1T6o9u3b44033kC7du20N+6kRSMJO3dq5twZ6yQyy3SnsLNMKl0K5ErYLYybvBETp65E3Xr10KZNWxQqVMglWxzkfQKHDh3CzJkzsGb1anTvVA89OgchY4ZU3neMHpAACZCASQlQ2Jk0cZ52OygoCIMGDYKsTnm7GUXYabHq5spqn7f5e3N+Cjtv0jfW3DPmbMP4KeuQMHFyZRWvfv36xnKQ3kRLYOnSpZg1awaeP32IDzpVR5uW5UmLBEiABEhAAwIUdhpA9AUTWbNmxbZt25AlSxavh2sUYaeVH1rZ8XpiPOAAhZ0HIJtsiu07T2LspI347ffDaNuuPcqWLYsyZcqYLArru7tz507s2rUL06dPRVCloujZuSrKlclj/cAZIQmQAAl4kACFnQdhm3Wq8PBw/B975wEeRfW18VeKSehNSQHpIL2JoqhIlw4CCooiIEVBAUHlLyIoIiogKF0FRBQRC53Qiw0QkBa6gARS6B0CoXzfGZg4u2STLTO7M7PvPM8+Cdl7zz3nd2aHfefecyckJATXrl0zRQhmEEJ6zrTpMfNnisT4wQkKOz9AtugQx46fxbez/sQv8//Glm37IKsMateugzp16iBfPj7Q2t9pPX78OFasWIGVK1di5coVqFKpFFo1rYr2zzyMfHlz+NsdjkcCJEACQUGAwi4o0uxbkPv27UPjxo2xd+9e3wzp1DvQws6I2jgjbOqE21RmKOxMlQ7TOnPhQhIWLtuGBUt2YMmyvxARGaUIPBF7VatWNa3fVnds48aNipATQXc0MR4N6j2IJg3KoUn9CsiSJcTq4dF/EiABEjA9AQo706co8A4uXrwYn332GaKjowPvDIBACjsjZ9f0nAU0RaIMcILCzgCoQWBy0+aDmL9kB6KX/Y29/xxWBN6TTzZEsWLF+AB0H/K/c+dO7N+/H/J/hMzKlSpZCI3qVUbTBuVQpVJhHyyzKwmQAAmQgDcEKOy8oRZkfcaPH48dO3Zg3Lhxpog8kMLO6LGNtm+KBPrgBIWdD/DYVSFw+vQFLFy6BZu3J2LJir+xa/cBlC1bVnmVK1cu5fds2bKR2G0C8jgC+T8gJibG4WfZMsVRv3YlVKkQicb1KyFXLj6CgicNCZAACQSSAIVdIOlbZOx+/fohIiICffv2NYXHgRI//phRM3JG0BTJ89EJCjsfAbL7HQRu3LiBLdv+xebtR/D3tsPYsv0Qtm/fh7z58qFs2f+Engi/yMhI2xOMi4tTxNt/rxicOnkS5cuXQOUKRVClQhQqly+IShUKK6sneJAACZAACZiHAIWdeXJhWk9atmyJDh06oEWLFqbwMRDCzp81cP4cyxQJ9cAJCjsPYLGpTwTkoei3BN9hbN4Wi63bDyBXrpxITr6O8PBw5WZX/vAohIdHKL+rr3vuucencY3sfOzYMSQmJiIhIUF5JSYmIDEhTvkp/w4LvRunTp9BxfJFUbnCfbcEXPnCKFokv5Fu0TYJkAAJkIBOBCjsdAJpZzMVK1bE9OnTUaFCBVOE6W9hF4hZNH/MDpoimR46QWHnITA215WAbMpyJP4k4uJP3fqZcApx8WdxOO6U8rv87eTJs4iIuAeRERGKAAyPiELevPcgc+bMCA0NTXmFhYWl/C67Dmvf0/6elJQEV68rV64o712+fNmhTXJyMk6cOKZsYKKIOEXMHUe+fDkRFZEXBSLzIioyFwoor7yIisiDAlG3fmbLFqorMxojARIgARLwHwEKO/+xtuxI2bNnV74cmKXmxN/CTmbQBg0a5Pf8BWpcvwfqwYAUdh7AYtOAELh+/cZ/wu+2ADxz7iIuXkjGpaRkXL58FZedfiZduXr77/JTxNoVXE66gmpVy2HDphiEhYrwC0FYWIgyqxYWdrfyM1R+D818+9+3fmYJzYwc2UOQI0cWB8EWFZkHGTNmCAgTDkoCJEACJOAfAhR2/uFs2VFk6U758uVx9OhR08Tgb2FnmsDpyK0dUc/OIgkSIAESIAESIAESIAEnAhR2PCXSJLBu3Tr06dMHa9euNQ0pCjvTpMLvjlDY+R05ByQBEiABEiABErAIAQo7iyQqUG7OmDEDCxcuxHfffRcoF+4Yl8LONKnwuyMUdn5HzgFJgARIgARIgAQsQoDCziKJCpSbQ4YMgRTiv//++4FygcLONOQD7wiFXeBzQA9IgARIgARIgATMSYDCzpx5MY1XHTt2RM2aNfHiiy+axifO2JkmFX53hMLO78g5IAmQAAmQAAmQgEUIUNhZJFGBclNEnczaPf7444FygTN2piEfeEco7AKfA3pAAiRAAiRAAiRgTgIUdubMi2m8KlCgANavX4+oqCjT+MQZO9Okwu+OUNj5HTkHJAESIAESIAESsAgBCjuLJCoQbl69ehXyDDt5CK6ZDgo7M2XDv75Q2PmXN0cjARIgARIgARKwDgEKO+vkyu+e7t69Gy1btsSuXbv8PnZaA7oj7Dp06IBDhw5hwYIFLh+sPn/+fPTs2RPySIeIiAi3YpQ+I0eOTNPupk2b0LlzZ0RHR7u0604bdxz6+OOPlXHSitMdO1ZpQ2FnlUzRTxIgARIgARIgAX8ToLDzN3ELjSePOZgwYYIiGsx0pCfsRDT17dtXcVlEWNWqVVN13xthpxcHCjvvSFLYeceNvUiABEiABEiABOxPgMLO/jn2OsIxY8Zg3759+Pzzz722YUTH9ISdzGKpx86dOzFt2rSUf4ugko1gLl26hBdeeAGrV69WZuw2btyoiMBcuXJh7ty5uO+++zB27Fi0bdtWafvRRx/hrbfegjpjN3PmTOW9QoUK4ZtvvlHsiz0ZSyvaZClrkyZNsGbNGqWN2JF21atXR2xsrDLOF198gS5duijvS2yqP82aNUvxe968eWjatKnyb/FB3suSJQvq1auHM2fOpIhv7VhqH/FHZl619t2doTQif77YpLDzhR77kgAJkAAJkAAJ2JkAhZ2ds+tjbH369FGES+/evX20pG/3tITdhQsX0L59ewwcOBCRkZFo164dvv/+e2VJZEJCgiKoXnnlFUWkyXJNrbATsSRiqFatWooYO3jwYIrIUpdsqgJQFXYSmcxorlq1ShF6v/76qxKsuhRTRJ8qLmV81Z/4+PiUNvK7iE2xKeJNFWKzZ89WZhu1yy337NmT0lb1U/WhR48eKctPnf3R2tc3G/61RmHnX94cjQRIgARIgARIwDoEKOyskyu/eypCR2aS1JkivzvgYsC0hJ2IInk8w7fffqvU1ol4a926dYpg0ta+aWfWRLBp6+2kX5kyZRQB6NxOZvZUYdewYUOljYg2+X3y5MkuhZ02HK1NEXYyo6YKOeewtXV9Iti0NX7OM4iyBFXyJQJXxKn4VLdu3TTtmyWv7vhBYecOJbYhARIgARIgARIIRgIUdsGYdTdjLleuHH744QeULVvWzR7+aZaWsJPZrf79+zs4oi6RdK6pS02wqZuQuCvsVCHlStjJTKHYUpdrapdHqiJTO3unLpHU9pFg5HmC4tu4ceMcNktRhd1XX32FOnXqKMtHVSGuxiDCLr3NXPyTOd9HobDznSEtkAAJkAAJkAAJ2JMAhZ0986pLVFLDdfLkSYSFheliTy8jroSdutRSK27SElz+EnZq3K58cRZ2zgJUjxk7Cju9zj7aIQESIAESIAESIAFzEqCwM2deAu6ViBCp7xLRYbbDlbBLbZdL7ZJEqUFTlyemVmOnXeKo14ydzB6qSzrTqrHTCi9tHOrmK5IDmbE7f/68Uico4tWTGjsKO7OdxfSHBEiABEiABEiABPQlQGGnL0/bWPvjjz+U2rHff//ddDG5EnYixuTQ7oIp/5blmePHj1c2QlE3KpGdLqWmbvv27crmKuqmKHovxZTx1R0w5Xd1KaY6uyh/k10xhbX63DtVjMpOmjJrKoJz4sSJKe+ru2JK3wEDBiAmJkapKZTD1a6YFHamO43pEAmQAAmQAAmQAAnoSoDCTlec9jE2ffp0LFu2LKU2zEyRpfe4AzP5Sl/0JcAaO3150hoJkAAJkAAJkIB9CFDY2SeXukYyePBg5ZlqgwYN0tWuHsYo7PSgaE0bFHbWzBu9JgESIAESIAESMJ4AhZ3xjC05guwkKQ+/fv75503nP4Wd6VLiN4co7PyGmgORAAmQAAmQAAlYjACFncUS5i93H330UaU2rUaNGv4a0u1xKOzcRmW7hhR2tkspAyIBEiABEiABEtCJAIWdTiDtZkaep7Z582aEh4ebLjQKO9OlxG8OUdj5DTUHIgESIAESIAESsBgBCjuLJcwf7l6+fBl58+aF7BxpxoPCzoxZ8Y9PFHb+4cxRSIAESIAESIAErEeAws56OTPc4x07duCZZ55RttE340FhZ8as+McnCjv/cOYoJEACJEACJEAC1iNAYWe9nBnusTxrbfLkyZg7d67hY3kzAIWdN9Ts0YfCzh55ZBQkQAIkQAIkQAL6E6Cw05+p5S2OHj0ahw4dwqhRo0wZC4WdKdPiF6co7PyCmYOQAAmQAAmQAAlYkACFnQWTZrTLr732GkqUKIFXX33V6KG8sk9h5xU2W3SisLNFGhkECZAACZAACZCAAQQo7AyAanWTjRs3Ro8ePdCoUSNThkJhZ8q0+MUpCju/YOYgJEACJEACJEACFiRAYWfBpBntcunSpTF79mzcf//9Rg/llX0KO6+w2aIThZ0t0sggSIAESIAESIAEDCBAYWcAVKubDAkJwfnz53H33XebMhQKO1OmxS9OUdj5BTMHIQESIAESIAESsCABCjsLJs1Il+Pi4vDQQw/hyJEjRg7jk20KO5/wWbozhZ2l00fnSYAESIAESIAEDCRAYWcgXCua/vXXXzFw4ECsWbPGtO5T2Jk2NYY7RmFnOGIOQAIkQAIkQAIkYFECFHYWTZxRbn/99deKqJs6dapRQ/hsl8LOZ4SWNUBhZ9nU0XESIAESIAESIAGDCVDYGQzYaubfffddZM6cWZm1M+tBYWfWzBjvF4Wd8Yw5AgmQAAmQAAmQgDUJUNhZM2+Gef3cc89BHnfw7LPPGjaGr4Yp7HwlaN3+FHbWzR09JwESIAESIAESMJYAhZ2xfC1n/eGHH8aoUaNQvXp10/pOYWfa1BjuGIWd4Yg5AAmQAAmQAAmQgEUJUNhZNHFGuZ0/f35s374d9957r1FD+GyXws5nhJY1QGFn2dTRcRIgARIgARIgAYMJUNgZDNhK5i9cuICIiAjlGXZmPijszJwdY32jsDOWL62TAAmQAAmQAAlYlwCFnXVzp7vn27Ztw/PPP4+tW7fqbltPgxR2etK0li0KO2vli96SAAmQAAmQAAn4jwCFnf9Ym36kOXPmYNq0aZg9e7apfaWwM3V6DHWOws5QvDROAiRAAiRAAiRgYQIUdhZOnt6ujxw5EgkJCRgxYoTepnW1R2GnK05LGaOws1S66CwJkAAJkAAJkIAfCVDY+RG22Yfq0aMHypYti1deecXUrlLYmTo9hjpHYWcoXhonARIgARIgARKwMAEKOwsnT2/XGzZsiF69euHJJ5/U27Su9ijsdMVpKWMUdpZKF50lARIgARIgARLwIwEKOz/CNvtQJUuWxMKFC1GiRAlTu0phZ+r0GOochZ2heGmcBEiABEiABEjAwgQo7CycPL1dz5QpE65cuYKMGTPqbVpXexR2uuK0lDEKO0uli86SAAmQAAmQAAn4kQCFnR9hm3mo2NhYPPbYYzh06JCZ3VR8o7AzfYoMc5DCzjC0NEwCJEACJEACJGBxAhR2Fk+gXu6vWrUKQ4YMwcqVK/UyaZgdCjvD0JreMIWd6VNEB0mABEiABEiABAJEgMIuQODNNuzkyZOxdu1afPXVV2Zz7Q5/KOxMnyLDHKSwMwwtDZMACZAACZAACVicAIWdxROol/sDBgxA1qxZ8fbbb+tl0jA7FHaGoTW9YQo706eIDpIACZAACZAACQSIAIVdgMCbbdi2bduiZcuWeOaZZ8zmGmfsTJ8R/zlIYec/1hyJBEiABEiABEjAWgQo7KyVL8O8ffDBBzFu3DhUq1bNsDH0MswZO71IWs8OhZ31ckaPSYAESIAESIAE/EOAws4/nE0/Sr58+bBnzx7kzZvX9L5S2Jk+RYY5SGFnGFoaJgESIAESIAESsDgBCjuLJ1AP98+ePYtChQrhzJkzepgz3AaFneGITTsAhZ1pU0PHSIAESIAESIAEAkyAwi7ACTDD8Js3b0bnzp3x999/m8GddH2gsEsXkW0bUNjZNrUMjARIgARIgARIwEcCFHY+ArRD959//hnff/89fvrpJ0uEQ2FniTQZ4iSFnSFYaZQESIAESIAESMAGBCjsbJBEX0P45JNPcPLkSXz88ce+mvJLfwo7v2A25SAUdqZMC50iARIgARIgARIwAQEKOxMkIdAudO/eHZUrV0a3bt0C7Ypb41PYuYXJlo0o7GyZVgZFAiRAAiRAAiSgAwEKOx0gWt1E/fr18cYbb6BevXqWCIXCzhJpMsRJCjtDsNIoCZAACZAACZCADQhQ2Nkgib6GUKxYMSxbtgxFixb11ZRf+lPY+QWzKQehsDNlWugUCZAACZAACZCACQhQ2JkgCYF2wWpCyWr+Bjq/dhqfws5O2WQsJEACJEACJEACehKgsNOTpgVtHTx4EHXq1MGBAwcs4z2FnWVSpbujFHa6I6VBEiABEiABEiABmxCgsLNJIr0NY/ny5cpumLIU0yoHhZ1VMqW/nxR2+jOlRRIgARIgARIgAXsQoLCzRx69juKLL77Apk2bMGnSJK9t+LsjhZ2/iZtnPAo78+SCnpAACZAACZAACZiLAIWdufLhd2/69++P3Llz46233vL72N4OSGHnLTnr96Ows34OGQEJkAAJkAAJkIAxBCjsjOFqGatt2rTBM888g9atW1vGZwo7y6RKd0cp7HRHSoMkQAIkQAIkQAI2IUBhZ5NEehtG1apV8eWXX6JKlSremvB7Pwo7vyM3zYAUdqZJBR0hARIgARIgARIwGQEKO5MlxN/uyDJM2RkzV65c/h7a6/Eo7LxGZ/mOFHaWTyEDIAESIAESIAESMIgAhZ1BYK1g9tSpUyhRogROnjxpBXdTfKSws1S6dHWWwk5XnDRGAiRAAiRAAiRgIwIUdjZKpqehbNy4ES+//DI2bNjgadeAtqewCyj+gA5OYRdQ/BycBEiABEiABEjAxAQo7EycHKNdmzVrFn7++Wf88MMPRg+lq30KO11xWsoYhZ2l0kVnSYAESIAESIAE/EiAws6PsM021LBhw3D+/Hl8+OGHZnPtDn+mT5+OefPmYfPmzTh79ixy5sypbPjSvHlzPPfcc6b3nw7qQ4DCTh+OtEICJEACJEACJGA/AhR29sup2xF16dIFDz30EF566SW3+/i74bVr11CvXj3ExcXh6tWryJIli/K6dOmS8rr77rtRsGBBLFu2DBkyZPC3exzPzwQo7PwMnMORAAmQAAmQAAlYhgCFnWVSpb+jderUwYABA1C7dm39jetg8fTp0yhTpgxy5MiB7Nmzu7Qos47y2r17t9KWh30JUNjZN7eMjARIgARIgARIwDcCFHa+8bN078KFC2PNmjUoVKiQKeOIjIxE3rx5ERISkq5/SUlJOHfuHGJjY9NtywbWJUBhZ93c0XMSIAESIAESIAFjCVDYGcvXtNZv3LiBzJkz4/r166b0sXfv3pg/fz7kOXvuHiLsmjZtipEjR7rbhe0sRoDCzmIJo7skQAIkQAIkQAJ+I0Bh5zfU5hron3/+QcOGDbFv3z5zOQbg4sWLkNlEb2YS5WHr8fHxbs3ymS5wOpQuAQq7dBGxAQmQAAmQAAmQQJASoLAL0sQvWbIEo0aNwuLFi01HYP369WjRogWioqI89k1E3dy5c1GtWjWP+7KD+QlQ2Jk/R/SQBEiABEiABEggMAQo7ALDPeCjTpgwAdu3b8f48eMD7ouzA5MmTcIHH3yA/Pnze+zb8ePH8fbbb6Nbt24e92UH8xOgsDN/jughCZAACZAACZBAYAhQ2AWGe8BHfeONNxTh1K9fv4D7oqewS0xMxLvvvouuXbuaLi465DsBCjvfGdKCsQSuXElGXPwpHIk/ibiEUzgSdwrnzl/G+QtJuHQ5GUlJybicpP68evvfV3H58hUkXUlWfl65chWXk66gWtVy2LApBmGhIQgJuRthYSEIDcms/AwLvRuhoZk1P+XvdyMsNBOyZw9FzuxhiIrMgwKReREVkUf5PSQks7HB0zoJkAAJkEBACVDYBRR/4AZ/6qmn8Pzzz6Nly5aBc8LFyH/99ZeyCYo8n87T4/Dhw1i4cCEeeOABT7uyvQUIUNhZIEk2dvHMmYsOgk0RbvFncCT+tCLm4uJP4MLFy4gIvxeRkeEID49AeEQU8uTJpzxzMzQ0VKn/1f6U39VXau/Jjr/yunLlisNP9e/a99Tfk5OTceLEMRxNjEdCgryOIiHxGLJnC0NkRD4UUARfbkRF5lJ+VwVgZHhu5M6dzcYZZGgkQAIkYG8CFHb2zq/L6CpVqoRp06ahYsWKpiMgm6fIximygYqnx4EDB5CQkMDNUzwFZ5H2FHYWSZQN3NyzLx5btv+LzdsOY8u2Q9gScwDh996D5GvXER4ejoiISOQPj0R4eCQiIiJu/y0CefLkMW30p06dUq6P8pLVDYmJ8UhMiENi4q2/hdydCYlHT6Bi+aKoXOE+VK5QEJXKF0bJ4pGmjYmOkQAJkAAJ/EeAwi5IzwZ5kHdcXFyaD/4OJJqePXsiOjrao8cdnDx5Es2bN8fo0aMD6TrHNpAAhZ2BcIPU9NWr17B52yH8vS0OW7bHYuv2g9gWsw9RUREoW7YcypYtj7Jlyyqve++91/aUjh49ih07dtx+bVd+xscnoEK5EqhUoSgqlb8PVStGKT8zZ85kex4MkARIgASsRIDCzkrZ0slX2WBEvqQcO3ZMJ4vGmClQoABy5cqlLFNK77h8+TIuXLiAQ4cOpdeU71uYAIWdhZNnEtePnziHRUv/xraYw1i0fCsOHExAuXKlUaaMCDgRcrdEXFhYmEk8Drwbcn0VgRcTE4MdO2Kwc+d2xMTsQvGiUWhYrwIqlrsPjepXRr68OQLvLD0gAYsQYD2uRRJlMTcp7CyWMD3clccJ9OrVC+vWrdPDnGE2zp8/ryzHlIeUi8BzdZw+fRpnz55VRF3WrFkN84eGA0+Awi7wObCiB+s37sOipVuwcOlWHDp8HHXrPIF69ZugePHiKFGihBVDMoXPe/fuxf79/2DpkgVYvmI1ihTKj8b1K6JR/Up4sGpxU/hIJ0ggEARYjxsI6hxTCFDYBeF58P3332P+/PmYMWOG6aO/efMm6tWrh9jYWFy9ehVZsmRRXpcuXVJemTJlQrFixSDP5eNhfwIUdvbPsR4Rypeq6OVbsGDJdixethFFihRGrdr1UKdOXVPWFesRsxlsbNmyBStWLMeqVcvw77+xaFjvATRpUB6N6lVCjhxZzOAifSAB3QmwHpf1uLqfVD4YpLDzAZ5Vu8oz4mSHtSFDhlgmBBGh8+bNw6ZNm3DmzBllFq9KlSpKTV27du0sEwcd9Y0AhZ1v/OzcOz7hFL77cS1+nrcRu/fGonat2qhdpy5q167tUa2unRn5MzbZqGXlypVYuXIZVq5YhTKlC6NVswfQ/ulHEJ7f9QoMf/rIsUjAEwKsx3WkxXpcT84e/7WlsPMfa9OM1KlTJzz22GPo2LGjaXzyxBHly/3Nm57CGWPRAAAgAElEQVR0YVubEKCws0kidQxjze87MXrCcqzbuBedOr2E6tWr83EnOvLVy9SGDRuU5f9TJn+JGtXLoFf3Oni8Rmm9zNMOCehOgPW4niNlPa7nzPTuQWGnN1EL2HviiSfw3nvvoWbNmhbw9k4XKewsmTZdnKaw0wWjLYxMmroaY75Ygpw586FT5y5o1KiRLeIKhiAWLFiAqVO+woULp/Fat/p46QVr/l8UDLkKthhZj2tMxlmPawzX1KxS2PmPtWlGkgd/r127FrLrpBUPCjsrZk0fnyns9OFoVSuHj5zAZ5NWYtwX89GqVWvI6oPSpTnrY9V8yk6bU6ZMwZw5s9GzaxP06l5XeVg6DxLwFwHW4/qLtOM4rMc1jjuFnXFsTWk5OTlZ2TlSNiKx6kFhZ9XM+e43hZ3vDK1oYffeeLw16Cds2rofHTt2VgSdO49BsWKsweizLN8SgTdlyld4sGoJjBjSBsWLRgQjCsbsBwKsx/UDZA+GYD2uB7DcaEph5wYkOzXZs2ePsuHI7t27LRsWhZ1lU+ez4xR2PiO0nIFBw+bhlwWb8Prrb+DJJ5+0nP902DMC0dHR+OSTYWjX6mEMequpZ53ZmgTSIMB6XGucHqzH9S1PFHa+8bNc70WLFmHcuHFYuHCh5XxXHaaws2zqfHacws5nhJYxsDUmHs90/ByNm7RAv379LOM3HdWHwCeffKI8H++Hqa+hXOlwfYzSSlASYD2uddPOelzPc0dh5zkzS/cYO3YsZNZuzJgxlo2Dws6yqfPZcQo7nxFawkD/9+ZgXvTfmDhxEh8gbomMGeOkrCzp3r0bWjV7CB8ObGbMILRqSwKsx7VXWlmP634+KezcZ2WLlq+//jpk85Q+ffpYNh4KO8umzmfHKex8RmhqAzE7D6P5s6PR5uln0atXL1P7Suf8R2DUqFGY/csPmPd9H5QuFeW/gQ0YqUP3cYrVaRN7eGR9fvRGjBy7AAt+6I9s2ULT7ZuQeBoNW3+IyWNeRtXKRdNtb5cGrMe1SyZTj4P1uOnnl8IufUa2atGiRQvl+XVSZxfIQx63MHjwYL+7IGMOGjTI7+NyQH0IUNjpw9GMVnbtPYH2XSdgzNiJKFKkiBldpE8BJLB//370eu0VzPjqZZQqni+Anvg2NIWdb/zS6s16XOPYmtEy63FTzwqFnRnPVgN9Kl++PL7//nuUK1fOwFGMNc0ZO2P5mtk6hZ2Zs+O9bxs2/4suvb5BdPRS742wZ1AQqFevNqZP7ILKFQqaKl6ZIatedwDGDu+Epg0fcPDt41FzEL18izLb1qPfZOW9cSM6o8kzH6FQwXvwzfdrlL/Nm/mm0nfT5gN4vNEgXLp0BTUfLaP0W/VbjDJjN3NKb7TtNBoN61bCW31aQDuTJzbEpmwSIv3OnL2YMmMnglId56PBzyp9tX5pZwHTisVU0G87w3pcM2bFfz6xHteRNYWd/849U4wkjzo4fvw4smTJYgp/vHGCws4bavboQ2FnvjyeP38Z2bOHee3YyTNXUazCK9i1y7o79XodPDt6RaBEiRKI2/MlcmbP5FV/PTuJOOo/eAbuK5gP65YPRUR4bsW8Ko5iD5+AKqTk7+qMnVbYybJMVWQ5CzdpX6ZUFMrcXyBdYTfuy8UpAlKEYNtOn+HXRe9h+ept2LknTln+6bxEUysiVWGp8lHFoCou3VkCqidbd2yxHtcdSvZvw3rc/3JMYWf/8z0lwqNHj6JixYpITEy0dNQUdpZOn0/OU9j5hM+QzkM++QmJR89i6MC2yJUrq0dj3LwJ5CncBX/+uRa5cuXyqC8bBy+BkydPotYTNXFs/0TcdVdgOFy4kKTMjqkzZ1ovZBat5xtTHISeVizJ76qwc555++rz7mjdYeQdtXHqzJyrGTvnv2sF3OeTolNm61Q/tGLT2Tfn+j8Rfy3bD8fsb98wTb0e63EDc96bfVQ71eN6y5rCzltyFuz3559/4o033sAff/xhQe81dyPuugs35Rshj6AjQGFnzpSP/2oJBgyZic7P11YEXkhIZrccrVrzXQwdNkq54cSDBDwhsGnTJgx5739Yv+JdT7rp3tbXGTt/CTuZ9ZPll86HFWfsWI+r+2lsK4N2qcf1NikUdt6Ss2C/b7/9FkuWLMH06dMt6D2FnaWTppPzFHY6gTTIzMgx8xWB98ZrzTDknWfSHOXNd2eieJn6aNrU+23sZRVCkyZNEBcX5zDWww8/jG+++Qay9NybY9u2bejbty/kmpk/f/5UTbjTxtOxjYrHlR/aGGTs9GJOzY48F3XlypU+8faUk9p+7tw5OLRvOYYNauutCd36eVtj5yzsUluKKU62bv5Qyq6Yap2ezKzJcslDh48rdXhpLcUcP3mpMoMoh1oLuHP3kZSlm1apsWM9rm6nrO0NmbUe12jwFHZGEzaR/ffffx/Xr1+H7Ehp5cOXpZiTJk3Cl19+iYwZM6a8unXrhvbt2zsgmTFjBn755ReHdk8//TSaNm3q0E52ZVqxYoVDu/r16+Oxxx5zaLd27VrIHWbtuNWqVUOFChUc2sk68X/++cehndST3HfffQ7tZDntiRMnHNrly5cPOXPmdGh35coVJCcnO7QTH6x6UNhZI3MfDP8Z7w6dhQ8GPoO3+z6VqtNR9/fE/AXRiIiI8DooVQgNHToU8rmT4+LFi3jhhRdQu3Zt9Ojh2ZbynjhipLDzVzxWF3Yi6J9q2RSxOz73JHUBbetcY5faJijnL1xWxJfU56m1exs3708RdlI/16ztJ0ocL7SrmSLs5N+ebJ7ibxB79sWjVIlIr4dlPa7X6IK2o5nqcf2VBAo7f5E2wTgdOnRAnTp1lC89Vj58EXYiiOTLgAhc9SXP9StUqJADkl27dmHnzp0O7USEOQsxEWyyxFVr7/HHH4e8tMeiRYsgIlDbTh454SwURVDKrqXadpK3559/3sGe3CWfOHGiQ7vevXujZ8+eDu3kC+JHH33k0E6E/YABAxzaDRs2DJ999pmDAJRlu6+88opDOxnz66+/dmjXpUsXPPvssw7tZs6ciTlz5ji0a926NRo3buzQTmaQV61a5dCubt26qFGjhkO79evXY/PmzXj55ZcxeWx3ZMyYAVUrFUW5Mo6Cd+8/8Tjw7zHl/YwZMig/ixXJjwJReR3sHTt+FqdOX3Bolyd3tjs2AUlOvobr12/capcxAzJkyGDlj45ffZfl0u8MmYnRExbhg3eeQZ8eTVLGj9kZh9YvTsCqVat98ik1YScG5fOxd+9e5ZyWY+nSpXjxxReV37WzedoZMvn7uXPnMHLkSKWdOnuVLVs25Zopn3U55LMj57I6UxgVFQXZlU0+L3LI9WnBggXYunVrypjyd/nciPgUX95++22cPn0alSpVcpjp8jUebZzil/ih+i83sGR8GUNuZGnjlLoUeQyOXBvVfq781/IMCwtTrnXCTWZI5dCyUmOWv8tzCX/88UelTZs2bVJy49MJACjjz5vxKkqX8v4Gga8+sL97BKbNWI2JU5Zh6MB2qF3Ts525WY/rHmO2ciRghnpcf+eEws7fxAM4nswiyRf4Rx99NIBe+D60L8LO99HtaeHSpUs4f/68gwCU2b/cuW/t8KYe8fHxOHz4sEO7woULQ17aY8eOHYiJiXFoJ19i5aU9pN7z999/d2hXq1Yt1KxZ06GdfEFduHChImY7PV9LEVstmzyI5o2rObT79odf8d0ssXcD12/cUH52al9LuautPcZMisb4r5beane77es9GuO17o0c2snGIB+OnJ3S7saNm/hwUDv87/WWDu2GfTobn0+MRqZMGZEpUwZkypgRfV9tgu6dbs0iqccXU5fjm5lrUoSiiM/OL9RG21aOQnbW7D8xb5HM8N4SlPJ6qumDaFivsoO9Zau2KVuba9vVfrwcHn6wpEO7DX//g63bDzm0E2F8f0nHhz3v25+AQ7HHHdoVLZw/Zac/1eiJk+dw5uylFPEs4+fOlRVZsoQ4jCtsL15MwuBhP+Kbmb9i6Ltt0fXFuhgxdgX2H77L52dKujNjJ7NSnTp1wpQpU1CsWDFFeBQoUEARFupD0OV3EYOffvopZs+ercSgCruffvopRSTKeHKzY/z48YpAUtvI7y1btsSECRMU8aQdU24GaZcryjkvNyhkHOcbRb7EI2JRFWzqmBKHCFqJOS1hJ0tOneNRmTn7L/UraqxyA0a9USjCTnw4cuSIIvK0ccoNNVktoYo/uQHVp0+fO+L35uoqzyUtVTgj+vas7U139vEzgXUb9irLteX44J22d1yrXLnDelw/J8pGw5mlHtdfSCns/EXaBOPIndgNGzYgMtL7pRAmCEO5I87NU8yQCf/7YIalmHLuiR/aQ543de78ZVy7dv3W6/oNRejkzZPdod2RuJPKsqkUQXn9BkQ4FS3iWMe1fUcstu045NCuSsUiqFKpqIO93/7chV//3OXQrk7Ncqj1uOPd8HmLNmL+4k0O7Z5u+TCaNXJ83tbUb1dhxo+/p4hi8bNbx3p4vq3jDPSnYxdgwuSlDu3692mBnl2fdPBv4Ac/4KNRc5RxhVvxouFoUKci9vxzCp27vn6HgPf0jHJVk6adEXKuAZNZLREZI0aMQNeuXZWZKxEvqc1kieDRCjutf87LGLVCyDkOdUxV8Misn9yscK7f0zMe1Qd1aaonws7ZL2f/VZEmNYzqeyJqRbCq42iXxMpyKG0fT/OcVvvVq1dj6lejsXR2Pz3N0pbBBFauicE7H8yErJSQDZcqlne8OagdXo963PTCkZs86k0JtTZXe01wvgmTnj31fVefD3f7u9NOrkVys8V5BYD6GdyyZUuqN5LSsu1O7az2Gigz/EZ9xt1hkF4bM9Xjpuerr+9T2PlK0CL9k5KSlNmXy5cvW8Rj125S2Fk+hV4HYAZh57XzQdrx+IlzGDriF0yevhJv922JXt0boUHrUZj14wKfiTjPcDnPlMkA8gVFliRrD+3ySZnJS0vYicjRLiNUlxemV5+m7SNjq0tAZSbL1RcgX+IRoajOHMp1Xh1PxvZ0xs45Zq3/Er92sxStUJY6ZG19oDAoWbKkUuuozYMIWz3rH59u0wS/Lerv8/lEA/4nsHDJ3xgw5HuULBap1OSWLH7njWc96nHTikw+y+reAzIDrIo4PYWdL5s5pZcV9bonj4yRVQeq//L3119/HWfOnFFWLHgiTu0m7KxYj5te3l29T2HnLTmL9ZN6MbmLLUvkrH5Q2Fk9g977T2HnPTt/95SNH0TQzV7wFwb0ewq9Xv5vmWv9liPQ8aXeeOKJJ3xyK7Wli/KFRMSHOiPmXG+nDuj8pc3VjJ129spVG+cdJUXsaGfl0prx0gLwJR5nkGrcH374oYOw04pf6aNdTqr+Lnff3fXfnRk7rYhznkH06QQAIDN2g9/tjytXL6csDX69Z2OHZdCyBHr6D7/eWiqd8c7lz7L0eX70pttLqTPesezZecmzzIrXqH5/iuvrN+7Dlu3/KkuwZSm2c/2v1P4ePHTs9vsZ76j7da75lZn+nDmzpNi/ciVZWQlwa6m3bPxlv1rfH2evVWbwqlcrqczgqXXRetXjpnWeyWdFPdTaXPU8ldpaqSWV+neppU1t5lsEk7a+VWxpa2rlRo52Rnvfvn133GxSb3akZcdVba56k+nBBx9UVmSpnzeJS8on/vrrr5SVCersntz8Uetp1WucOrZz7eyFCxccdh9WV0SkNmOXI0cOZfd1rW3nlQjaFRVG1d6mlu9gqcelsPP1fxWL9JcvOXJxmT9/vkU8du0mhZ3lU+h1ABR2XqPzW0fZ+U4E3Zo/dmJA36fQtWPdO8YeMWYF9sXexODBg33yy9OaNPkCpl1yJV+U5Eirxk6EkTrrlFaNnfZRAVphp25eIuOoSzHdnbGTPs67fDrPSqrxvPnmm3jnnXdSHtGgfllVa+zUukJXtYRacaoVds7+q1/yZGbO3Rq73377LaVOUeLRu8auUEQy2repllIvK8v7tMugZQn0v7HHU5ZKOy9/lqXPW2P+xbVrN5Q2zsuenZc8Sx1rzUfLpJy7CxZvwoLFf+Pa9VtLsZ3rf6X299sfflOWaMv7znW/zjW/fXo0dljWLJ8nqeNV/Xvv7aeVmyXqIe+PHr8wRfi91bu5Q395zuSU6bJJ1a163e6d6jnUHYt/P89bf1v4ZkS71jUclmnLrNry1dtT6oefrFvJIf4/1u3Ghr/3p9h/uFpJVK5YJMW/mJ2xkOuCKkxLl4xyWH4u+Tl67Kxif9HSzRj75WI0ffIBvPtWK3z309+61OO6utBoz0cROGoNrfyuvZGj1ue6WtLsqiZVnaF3Xqqc2g0m+VtadlzV5qoCSzZZmzt3rkMta7t27TB8+HBF2ElMsumTOquuvRa6qp1V/VZ3GXZ1Y0jdbEkErXpdkGuOemMptf5G1t6mlu9gqcelsPPpa4V1OssXl4MHD2L06NHWcdqFpxR2lk+h1wFQ2HmNzvCOW7b9i6Ejf4F8SZYvnc51eVoHduyKw1MvjMfq1Wt88svVLpIirLRfglLbLVL94qbubim7Qqp3tsUpVajJ79pn5al34tWx5X25ky9fYNTn3jnf7ZcvFPL8UHk/rVoUX+PRLnfU7v6pvUufXpwSz6xZs9CvXz9lJ1C5e6/1X7hpecqXQ3lMy9ixY5VcprYrppaHtNFzKeatu/A9ULqU40ZAPp1YFuuclHQVFy4mpQi/7NnCHGb8Eo+eQVz8qZSa2AKReVCwQL6UKEV07dpz5Fb/69dRrnRBhx2HZUZy7V97U+qHH61+Px59+L8Zy8XLt2DJiq0pNbxNnqzisNGTzIjO+v8ZOVWYPvf0o2jX+r9N3CZNXYYvv15xWxjfwJN1KyJ62RY0rl8Fm7cn6FKP6yql8tmQXWHl/JXaOjmfZfdm5x1k0xJ2zkscU5uhT03Yufq8q766W5urCjtZhik3y9TNnSSugQMHKrOMIuxESGln4tOqkdOOrX0eqKtVC86z/O6slNAKO2+fOerJRzVY6nEp7Dw5KyzcVi5WcmF67bXXLBzFLdcp7CyfQq8DoLDzGp1hHXfvjUO/d6YjLuGUMkPXukV1t8YqULon5s5bZJrNnJyXT7oVBBsFlIBsdtG6VXMcirn1WAse1iYgS17lGZiy+/A7bzyFBnUq4bFGH+lSj+uKTGo1uOpSQXdn7NSVAOrjPGQs55ratDYX0i5V9qY2VyvQ5AaTCFNZ7inLSrW75YqQUh/7ovKQGzeyQ6/MqqdWO6uuMtD2U/uIDe3ybe1KBK2wc15eqvZXd9xVa6D1vOHjKt/BUI9LYWft66Db3svz0uSujdx5tvpBYWf1DHrvP4Wd9+yM6vnGwOl44tGyaNygikdD9B/0A4rcXw/NmjXzqJ9ejZ1nkbRfNvQag3aMJSBfSOMOrMbQd9sYOxCtG0pg7sINyvLtXDmzKoLu8Rr/LXPVqx43tQBSmzHTijmZnVYfIeI8Y6ddkug8E5bejJ26VFFdnqj65m1trvPMmzwLV54tKd/5KlasmBJDWjNkzjN0rjZFSmvGLjVhJ8JSu/zT1YY0etfeppZvztgZ+jH2yPhdN7m3vUfAUmtcpkwZ/PzzzyhdurTPtgJtoEiRIsqyUh7BR4DCzl45r1b7fQx+7yNUqeKZKLQXBUbjDQFZNvvRsEFYu3SAN93ZxwQEZv78hyLoihUJx4B+LVGtSvE7vNKrHje1cFObpdfWtLZu3foOYZdarapW2LmqqdXO2MkzWeWQEhnt4W1trlbYiT31Br7srSCHKk6da+y0G02p/ZxrZ+WxMNrdbl3V6DovMVdn7JyFnba/kbW3qeVbqbErchf69riz7tsEHwfdXOCMnW4ozW0oNDQUZ8+eRUiI4wOEze31nd7Jw6ubN2+OOXPmKLuh8QguAhR29sr3zZvAvcW6Y9XqNcibN6+9gmM0hhGQu/4Nn6yP+D3j4PRIScPGpGH9CMjzMj8Y/gserFpcEXTlytzn0rhe9bipDSDLHlMTWKrgUWtN1efASVt5XpzsKKmtVVVn81KrSVUFjyrsOnTogGnTpin1q9pDln+qG42kZSe1xyZohZ0qLFUB6jxDpq23dV6l4Kp2VuqK1eWSwkxuqshsYHh4uFtLMbXLXbX91ZlLlYXRSzGDpR6Xwk6/a5VpLcl2t9WqVYM8x8PKhzxnRiZvpThY+7uVY6LvnhGgsPOMlxVanz2XjAKlu2Lv3n1WcJc+moBAsWJFcfzAVGTNktEE3tAFdwnI7qFde30B2VXznX5POeyMmZYNs9Xjuhsv25mHQDDV41LYmee8M8wTme6WOyG//vqrYWMYbXjNmjXKzmzaWTqZvZO/+fosLKN9p339CFDY6cfSTJY2bzuC57t/gWXLVprJLfpiQgK1a9XErK97oHyZOx9kbUJ36ZKGwLgvF+Oppg8hIjy3R1wCXY/rkbNsbEoCwVSPS2FnylNQX6dk2n/VqlXKAzOterjaMIUbqVg1o975TWHnHTcr9Np34ATavDgeY8aMR/Hid9baWCEG+mgcAdnhr1evnvhp2isoXuS/rfqNG5GWzUSA9bhmyoa1fAm2elwKO2udn155K7NaGTNmxLvvvutV/0B3SmtmLrWZvED7y/GNI0BhZxxbM1jetScOLZ77DE2btVJqN3iQgBAYMWI4Fi2cg3nf90GJYuGEEoQEWI8bhEnXIeRgrMelsNPhxDG7CdkRqWHDhnjuuefM7uod/rlTS+dOG8sFTodTJUBhFxwnxsCh85UHGk+YOMkWO/kGR9b0jzImJgYvv9wdz7Wpgff+11T/AWjRUgRYj2updJnC2WCsx6WwM8WpZ6wTjzzyCEaOHKk8MNNKhyezcay3s1JmvfeVws57dlbruXNPIp5+8XPUqdsI/fv3t5r79NdHArJD4K+rl2HWtNdQqvg9Plpjd7sQYD2uXTJpfBzBWo9LYWf8uRXwEWRLWtlyV55hYqXD0/o5T9tbiQV9vUWAwi74zoQPRszHjJ/WoU+fN1KezxR8FIIn4vnz52P4J8PQ8bmaeLtv4+AJnJG6TYD1uG6jCsqGwV6PS2Fn89NeHrYpgu7ChQuWitSbGThPZvgsBYPOphCgsAvOk2H/wUS8OehH/LFuNzp1egmdOnVC1qxZgxOGDaOW/58mT56MqVMm47FHymDEkKdRuNC9NoyUIelFgPW4epG0lx3W4wIUdvY6p++IZvv27UptnTyU0iqHLzVzvvS1Cp9g9pPCLpizDyQknsZnE1dg3BcL0KRpU3Ts2Anly5cPbigWjl7+X5oyZTKiFy1Cz25N0at7beS/N5eFI6Lr/ibAelx/EzfneKzH/S8vFHbmPEd182ru3LmYOnUq5syZo5tNIw3pMevmzWyfkTHRtn4EKOz0Y2l1S5On/4Yxk5YiJCy7MovXrFkzq4cUNP7L/0dTp07GtauX8Gq3+uj4XI2giZ2B6k+A9bj6M7WSRdbjOmaLws5KZ68Xvn766aeIi4tTNk+xwqFXnZxedqzALJh8pLALpmy7F+sf6/Zg1IQV+PX37ejU+SVUr14dDz30kHud2cpvBNatW4f169fjq6++QO2aldC7ex088lBJv43PgexPgPW49s+xNkLW46aebwo7m38OevbsqWwX3qNHD9NHqudMmx4zf6YHFoQOUtgFYdLdDPnY8bP4dtaf+GX+39iybR9q166N2rXroE6dOsiXjw+0dhOjbs2OHz+OFStWYOXKlVi5cgWqVCqFVk2rov0zDyNf3hy6jUNDJKAlwHpce58PrMdNP78UdukzsnSLRo0a4dVXX1WeY2fmw4jaOCNsmplhMPhGYRcMWfY9xgsXkrBw2TYsWLIDS5b9hYjIKEXgidirWrWq7wPQQqoENm7cqAg5EXRHE+PRoN6DaNKgHJrUr4AsWUJIjQT8RoD1uH5D7ZeBWI/rPmYKO/dZWbJlqVKlINPVJUuad8mLkbNres4CWvIEsJnTFHY2S6ifwtm0+SDmL9mB6GV/Y+8/hxWB9+STDVGsWDE+AN2HHOzcuRP79+/H4sWLlVm5UiULoVG9ymjaoByqVCrsg2V2JQH9CLAeVz+W/rbEelzPiVPYec7MUj0yZ86My5cvI1OmTKb12+h6OKPtmxasDR2jsLNhUv0c0unTF7Bw6RZs3p6IJSv+xq7dB1C2bFnlVa5cuZTfs2XL5mfPzDucLH/asWMHZOc57c+yZYqjfu1KqFIhEo3rV0KuXHwEhXmzSM9Yj2uNc4D1uL7licLON36m7n348GHUqFEDsbGxpvXTHzNqRs4ImhasTR2jsLNpYgMY1o0bN7Bl27/YvP0I/t52GFu2H8L27fuQN18+lC37n9AT4RcZGRlAT/0ztGy2JeLtv1cMTp08ifLlS6ByhSKoUiEKlcsXRKUKhSGfRx4kYDUCrMc1V8ZYj6tvPijs9OVpKmurV6+G1JmtWrXKVH6pzvizBs6fY5kStk2corCzSSItEIZswnBL8B3G5m2x2Lr9AHLlyonk5OsIDw9HREQE8odHITw8Qvldfd1zzz2mje7YsWNITExEQkKC8kpMTEBiQpzyU/4dFno3Tp0+g4rli6JyhftuCbjyhVG0SH7TxkTHSMAXAqzH9YWe931Zj+s9u/R6UtilR8jC70+ZMgV//PEHJk+ebLooAjGL5o/ZQdOBtplDFHY2S6jFwpEvgUfiTyIu/tStnwmnEBd/FofjTim/y99OnjyLiIh7EBkRoQjA8Igo5M17D2RZfGhoaMorLCws5feQkBCH97TtkpKS4Op15coV5T1Zbq9tk5ycjBMnjikbmCgiThFzx5EvX05EReRFgci8iIrMhQLKKy+iIvKgQNStn9myhVosK3SXBPQjwHpc/VhqLbEe1xiuqVmlsPMfa7+P9M4770C+PAwYMMDvY6c3oMygDRo0KL1mur8fqHF1DyRIDVLYBWniLRT29es3/hN+twUbrjwAACAASURBVAXgmXMXcfFCMi4lJePy5au47PQz6crV23+XnyLWruBy0hVUq1oOGzbFICxUhF8IwsJClFm1sLC7lZ+h8nto5tv/vvUzS2hm5Mgeghw5sjgItqjIPMiYMYOFSNJVEggsAdbjes6f9bieM9O7B4Wd3kRNZK9du3Zo3rw52rZtayKv6AoJeE+Aws57duxJAiRAAiTgPQHW4zqyYz2u9+eSkT0p7IykG2DbDz30EMaMGYMHH3wwwJ5weBLQhwCFnT4caYUESIAESEAfAqzHZT2uPmeSPlYo7PThaEorUsS/a9cu5MuXz5T+0SkS8JQAhZ2nxNieBEiABEjA3wRYj+tv4hxPJUBhZ9Nz4dy5cyhYsCDOnj1r0wgZVjASoLALxqwzZhIgARKwHwHW49ovp2aIiMLODFkwwIctW7agY8eO2Lx5swHWaZIEAkOAwi4w3DkqCZAACZAACZCA+QlQ2Jk/R155+Msvv+C7777Dzz//7FV/ozvJzklNmjRBw4YN8dZbbxk9HO3bhACFnU0SyTBIgARIgARIgAR0J0BhpztScxgcPnw4jh8/jk8++cQcDjl5MX/+fPz000+YNm2aKf2jU+YkQGFnzrzQKxIgARIgARIggcAToLALfA4M8eDll19GxYoV0b17d0Ps0ygJBIIAhV0gqHNMEiABEiABEiABKxCgsLNClrzwsUGDBujbty/q16/vRW/ju8iMnTxf79dff0XVqlVTHVBdrilxNG3a1KHNpk2b0LlzZ0RHRyM+Pj7l94iICOOd5wgBI0BhFzD0HJgESIAESIAESMDkBCjsTJ4gb90rXrw4lixZgmLFinlrwrB+Itjat2+v2H/44Ydd1tilJey0zmlFHoWdYWkzhWEKO1OkgU6QAAmQAAmQAAmYkACFnQmToodLGTJkwPXr1yFfhM12iBAbMmQIevfurbxk1k0EmSrkTp8+jW3btuGHH37A+PHj8eijj2LUqFG4dOkSPvroI0UIqmLu66+/RvPmzREbG4v77rsPX3zxBbp06aKELLGvW7dOmdF7/PHHlf7SRv5GAWi2s8I9fyjs3OPEViRAAiRAAiRAAsFHgMLOhjn/999/UatWLRw8eNCU0X388ceKXyLQOnTogNatWytLLVVhV6hQIWVTFfXfEocq0Fq2bInZs2cr/VNbiqmKuJkzZyo2ExISUL16dbzyyisp4x06dAgLFixAtmzZTMmHTrkmQGHHs4MESIAESIAESIAEUidAYWfDM2PFihUYNmwYli9fbrro1GWYAwcOVGrrtLtjOj8CIbVHIogQLFOmDOrWretS2KniT+w7L9OUf2vfNx0gOpQmAQo7niAkQAIkQAIkQAIkQGEXNOfAl19+iQ0bNijLEs12iLBSl0WqvqnLI7Nnz648207dLCW1Gjt3hJ06kyfLLUU49uzZM2X5pczgybPzJk+e7HLTFrMxoz//EaCw49lAAiRAAiRAAiRAAhR2QXMO/O9//0POnDnRv39/08UswkwO7fPrVLHWo0ePVIWd+hBz7QxeWjN2WmHHGTvTnQI+OURh5xM+diYBEiABEiABErAxAS7FtGFyn376abRp00Z5melQ693Gjh3r8PgCqbmTDVSkLk4egeA8YycxSE3cnj17UpZRyt9c1dhphR1r7Mx0BvjuC4Wd7wxpgQRIgARIgARIwJ4EKOxsmNcHHngAkyZNMt1SQ+dlkSp6dXnm1KlTlV0wnYWddlfMefPmKaJQOxMndmSDFDlk+alsyqLutCl/0y7/5K6Y1j7hKeysnT96TwIkQAIkQAIkYBwBCjvj2AbMcp48ebB//37kzp07YD5wYBIwggCFnRFUaZMESIAESIAESMAOBCjs7JBFTQzyDDh5KPmpU6dsFhnDIYFbzya8eXYWUZAACZAACZAACZAACTgRoLCz2Skhyw67deuGjRs32iwyhkMCFHY8B0iABEiABEiABEjAFQEKO5udGz/++CPkNWsWZzVsllqGAwo7ngQkQAIkQAIkQAIkQGEXJOfARx99hLNnzyoPKOdBAnYjwKWYdsso4yEBEiABEiABEtCLAGfs9CJpEjtdu3ZFtWrV0KVLF5N4RDdIQD8CFHb6saQlEiABEiABEiABexGgsLNXPiEP7pYHlNepU8dmkTEcEuBSTJ4DJEACJEACJEACJOCKAIWdzc6NIkWKYNWqVShcuLDNImM4JEBhx3OABEiABEiABEiABCjsguAcuHnzJjJmzIgbN24EQbQMMRgJcClmMGadMZMACZAACZAACbhDgDN27lCySBt5KHmDBg3wzz//WMRjukkCnhGgsPOMF1uTAAmQAAmQAAkEDwEKOxvletmyZRg+fDiWLl1qo6gYCgn8R4DCjmcDCZAACZAACZAACaROgMLORmfGxIkTsXXrVkyYMMFGUTEUEqCw4zlAAiRAAiRAAiRAAukRoLBLj5CF3n/zzTdxzz334I033rCQ13SVBNwnwBk791mxJQmQAAmQAAmQQHARoLCzUb5bt26Ndu3aoVWrVjaKiqGQAGfseA6QAAmQAAmQAAmQQHoEKOzSI2Sh9ytXroypU6eiUqVKFvKarpKA+wQ4Y+c+K7YkARIgARIgARIILgIUdjbKd86cOXH48GHkyJHDRlExFBLgjB3PARIgARIgARIgARJIjwCFXXqELPL+yZMnUapUKZw4ccIiHtNNEvCcAGfsPGfGHiRAAiRAAiRAAsFBgMLOJnn+66+/8Oqrr2L9+vU2iYhhkMCdBCjseFaQAAmQAAmQAAmQQOoEKOxscmbMnDkTc+fOxffff2+TiBgGCVDY8RwgARIgARIgARIgAXcJUNi5S8rk7T788ENcvHgRQ4cONbmndI8EvCfAGTvv2bEnCZAACZAACZCAvQlQ2Nkkv507d0aNGjXQqVMnm0TEMEiAM3Y8B0iABEiABEiABEjAXQIUdu6SMnm7WrVqYdCgQXjiiSdM7indIwHvCXDGznt27EkCJEACJEACJGBvAhR2NslvoUKF8Ntvv+G+++6zSUQMgwQ4Y8dzgARIgARIgARIgATcJUBh5y4pE7e7du0awsLCkJycbGIv6RoJ+E6AM3a+M6QFEiABEiABEiABexKgsLNBXvfu3YumTZtiz549NoiGIZCAawIUdjw7SIAESIAESIAESCB1AhR2NjgzFi9ejM8++wzR0dE2iIYhkACFHc8BEiABEiABEiABEvCUAIWdp8RM2H7cuHHYtWsXxo4da0Lv6BIJ6EeAM3b6saQlEiABEiABEiABexGgsLNBPvv27YuoqCi8/vrrNoiGIZAAZ+x4DpAACZAACZAACZCApwQo7DwlZsL2LVu2RIcOHdCiRQsTekeXSEA/Apyx048lLZEACZAACZAACdiLAIWdDfJZoUIFfPfddyhfvrwNomEIJMAZO54DJEACJEACJEACJOApAQo7T4mZsH22bNlw9OhRZM2a1YTe0SUS0I8AZ+z0Y0lLJEACJEACJEAC9iJAYWfxfB47dkyZqRNhx4ME7E6Aws7uGWZ8JEACJEACJEAC3hKgsPOWnEn6rV27FrJ5yp9//mkSj+gGCRhHgMLOOLa0TAIkQAIkQAIkYG0CFHbWzp9SWyfPr/v2228tHgndJ4H0CVDYpc+ILUiABEiABEiABIKTAIWdxfM+ZMgQJCcn4/3337d4JHSfBNInQGGXPiO2IAESIAESIAESCE4CFHYWz/uLL76IWrVqKY874EECdidAYWf3DDM+EiABEiABEiABbwlQ2HlLziT9Hn/8cQwdOhSPPfaYSTyiGyRgHAEKO+PY0jIJkAAJkAAJkIC1CVDYWTt/KFCgANavX4+oqCiLR0L3SSB9AhR26TNiCxIgARIgARIggeAkQGFn4bxfuXIFOXPmRFJSkoWjoOsk4D4BCjv3WbElCZAACZAACZBAcBGgsLNwvnft2oVWrVph586dFo6CrpOA+wQo7NxnxZYkQAIkQAIkQALBRYDCzsL5XrhwISZMmIAFCxZYOAq6TgLuE6Cwc58VW5IACZAACZAACQQXAQo7C+f7888/x/79+/HZZ59ZOAq6TgLuE6Cwc58VW5IACZAACZAACQQXAQo7C+e7d+/eKFKkCHr16mXhKOg6CbhPgMLOfVZsSQIkQAIkQAIkEFwEKOwsnO9mzZqhS5cuaNq0qYWjoOsk4D4BCjv3WbElCZAACZAACZBAcBGgsLNwvsuWLYsff/wRZcqUsXAUdJ0E3CdAYec+K7YkARIgARIgARIILgIUdhbOd1hYGE6fPo3Q0FALR0HXScB9AhR27rNiSxIgARIgARIggeAiQGFn0XwnJCSgatWqiI+Pt2gEdJsEPCdAYec5M/YgARIgARIgARIIDgIUdhbN8++//47//e9/+O233ywaAd0mAc8JUNh5zow9SIAESIAESIAEgoMAhZ1F8/zNN99gxYoVmDZtmkUjoNsk4DkBCjvPmbEHCZAACZAACZBAcBCgsLNongcPHgz5kjto0CCLRkC3ScBzAhR2njNjDxIgARIgARIggeAgQGFn0Tw///zzaNCgAdq3b2/RCOg2CXhOgMLOc2bsQQIkQAIkQAIkEBwEKOwsmucaNWpg+PDheOSRRywaAd0mAc8JUNh5zow9SIAESIAESIAEgoMAhZ1F8xwREYHNmzcjPDzcohHQbRLwnACFnefM2IMESIAESIAESCA4CFDYWTDPly5dwj333IOLFy9a0Hu6TALeE6Cw854de5IACZAACZAACdibAIWdBfMbExODdu3aYfv27Rb0ni6TgPcEKOy8Z8eeJEACJEACJEAC9iZAYWfB/M6bNw+TJ0/G3LlzLeg9XSYB7wlQ2HnPjj1JgARIgARIgATsTYDCzoL5HTVqFA4fPoxPP/3Ugt7TZRLwngCFnffs2JMESIAESIAESMDeBCjsLJjfV199FaVKlULPnj0t6D1dJgHvCVDYec+OPUmABEiABEiABOxNgMLOgvlt3LgxevTogUaNGlnQe7pMAt4ToLDznh17kgAJkAAJkAAJ2JsAhZ0F83v//fcr9XUya8eDBIKJAIVdMGWbsZIACZAACZAACXhCgMLOE1p+bDt9+nTIJinyrLrMmTMjOTkZVapUQfPmzXHgwAEMGDAAGTJk8KNHHIoEAk+Awi7wOaAHJEACJEACJEAC5iRAYWeyvFy7dg316tVDXFwcrl69iixZsigveXadvO6++24ULFgQy5Yto7AzWe7ojvEEKOyMZ8wRSIAESIAESIAErEmAws5EeTt9+jTKlCmDHDlyIHv27C49O3/+POS1e/dupS0PEggWAhR2wZJpxkkCJEACJEACJOApAQo7T4kZ2D4yMhJ58+ZFSEhIuqMkJSXh3LlziI2NTbctG5CAXQhQ2Nklk4yDBEiABEiABEhAbwIUdnoT9dJe7969MX/+fOTOndttCyLsmjZtipEjR7rdhw1JwMoEKOysnD36TgIkQAIkQAIkYCQBCjsj6bpp++LFiyhcuDAKFSrkZo//mh08eBDx8fFuzfJ5bJwdSMBkBCjsTJYQukMCJEACJEACJGAaAhR2JkjF+vXr0aJFC0RFRXnsjYg6efRBtWrVPO7LDiRgNQIUdlbLGP0lARIgARIgARLwFwEKO3+RTmOcSZMm4YMPPkD+/Pk99ub48eN4++230a1bN4/7sgMJWI0AhZ3VMkZ/SYAESIAESIAE/EWAws5fpA0SdomJiXj33XfRtWtXE0RCF0jAWAIUdsbypXXfCVy5koy4+FM4En8ScQmncCTuFM6dv4zzF5Jw6XIykpKScTlJ/Xn19r+v4vLlK0i6kqz8vHLlKi4nXUG1quWwYVMMwkJDEBJyN8LCQhAakln5GRZ6N0JDM2t+yt/vRlhoJmTPHoqc2cMQFZkHBSLzIioij/J7SEhm3wOkBRIgAV0I8FqhC0YacSJAYWeCU+Kvv/5SNkGR59N5ehw+fBgLFy7EAw884GlXticByxGgsLNcymzl8JkzFx0EmyLc4s/gSPxpRczFxZ/AhYuXERF+LyIjwxEeHoHwiCjkyZNPeQZpaGioUg+t/Sm/q6/U3pMdkOV15coVh5/q37Xvqb8nJyfjxIljOJoYj4QEeR1FQuIxZM8WhsiIfCigCL7ciIrMpfyuCsDI8NzInTubrXLGYEggEAR4rQgEdY4pBCjsTHAeyOYpsnGKbKDi6XHgwAEkJCRw8xRPwbG9JQlQ2FkybZZ0es++eGzZ/i82bzuMLdsOYUvMAYTfew+Sr11HeHg4IiIikT88EuHhkYiIiLj9twjkyZPHtPGeOnVK+f9CXrLaIzExHokJcUhMvPW3kLszIfHoCVQsXxSVK9yHyhUKolL5wihZPNK0MdExEgg0AV4reK0I9DmoHZ/CziTZ6NmzJ6Kjoz163MHJkyfRvHlzjB492iRR0A0SMJYAhZ2xfIPR+tWr17B52yH8vS0OW7bHYuv2g9gWsw9RUREoW7YcypYtj7Jlyyqve++91/aIjh49ih07dtx+bVd+xscnoEK5EqhUoSgqlb8PVStGKT8zZ85kex4MkARUArxWOJ4LvFaY87NBYWeivBQoUAC5cuVSluWkd1y+fBkXLlzAoUOH0mvK90nANgQo7GyTyoAFcvzEOSxa+je2xRzGouVbceBgAsqVK40yZUTAiZC7JeLCwsIC5qPZBpb/b0TgxcTEYMeOGOzcuR0xMbtQvGgUGtargIrl7kOj+pWRL28Os7lOf0jAawK8VniOjtcKz5np3YPCTm+iPtg7f/68shxTHlIuAs/Vcfr0aZw9e1YRdVmzZvVhRHYlAWsRoLCzVr7M4u36jfuwaOkWLFy6FYcOH0fdOk+gXv0mKF68OEqUKGEWNy3nx969e7F//z9YumQBlq9YjSKF8qNx/YpoVL8SHqxa3HLx0GES4LXCmHOA1wpjuKZmlcLOf6zdGunmzZuoV68eYmNjcfXqVWTJkkV5Xbp0SXllypQJxYoVw5IlS9yyx0YkYCcCFHZ2yqZxscjGBdHLt2DBku1YvGwjihQpjFq166FOnbqoWLGicQMHueUtW7ZgxYrlWLVqGf79NxYN6z2AJg3Ko1G9SsiRI0uQ02H4ZiTAa0VgssJrhXHcKeyMY+uT5RkzZmDevHnYtGkTzpw5o8ziValSRampa9eunU+22ZkErEqAws6qmTPe7/iEU/jux7X4ed5G7N4bi9q1aqN2nbqoXbu2R7XLxnsaHCPIRi0rV67EypXLsHLFKpQpXRitmj2A9k8/gvD8rlekBAcdRhlIArxWBJL+nWPzWqFvPijs9OVpiDXly+zNm4bYplESsBIBCjsrZcs/vq75fSdGT1iOdRv3olOnl1C9enU+/sU/6D0aZcOGDVi3bh2mTP4SNaqXQa/udfB4jdIe2WBjEvCFAK8VvtDzX19eK3xjTWHnGz+/9Kaw8wtmDmIBAhR2FkiSn1ycNHU1xnyxBDlz5kOnzl3QqFEjP43MYXwlsGDBAkyd8hUuXDiN17rVx0sv1PTVJPuTgEsCvFZY9+TgtcLz3FHYec7M7z0o7PyOnAOalACFnUkT4ye3Dh85gc8mrcS4L+ajVavW6NSpE0qX5qyPn/DrPozstDllyhTMmTMbPbs2Qa/udZWHpfMgAV8J8FrhK0Fz9ee1wv18UNi5zypgLSnsAoaeA5uMAIWdyRLiJ3d2743HW4N+wqat+9GxY2dF0LnzWBg/ucdhfCQgW6SLwJsy5Ss8WLUERgxpg+JFI3y0yu7BSIDXCntnndeK9PNLYZc+o4C3oLALeArogEkIUNiZJBF+dGPQsHn4ZcEmvP76G3jyySf9ODKHCgSB6OhofPLJMLRr9TAGvdU0EC5wTIsS4LXCoonz0m1eK1IHR2Hn5Qnlz24Udv6kzbHMTIDCzszZ0de3rTHxeKbj52jcpAX69eunr3FaMz2BTz75RHk+3g9TX0O50uGm99cdBy9cSEKTZz5Cw7qV8FafFu50SWkzP3ojRo5dgAU/9Ee2bKHp9vW0fboGTdyA1woTJ8cPrtnxWuELNgo7X+j5qS+FnZ9AcxjTE6CwM32KdHGw/3tzMC/6b0ycOIkPENeFqDWN7N69G927d0OrZg/hw4HNrBmExmsKO/1TyGuF/kytaNFu1wpfckBh5ws9P/WlsPMTaA5jegIUdqZPkU8Oxuw8jObPjkabp59Fr169fLLFzvYhMGrUKMz+5QfM+74PSpeKMmVgCYmnUb3uAIwd3glNGz7g4GOH7uOUf48b0Tllxu6FdjXRsPWHKHzfvZi7cAOyZAnBr4veQ9XKRbFp8wE83mgQLl26gpqPllFm6Vb9FqPM2H31eXfUaf5+yjgfj5qDnXviMG1iD4d+Yv/Q4eNK3/MXLiu+xR4+4TCO9I1evuWOWcC0YjELfF4rzJIJc/lhhWuF0cQo7IwmfNv+e++9h8GDB/tptP+GkTEHDRrk93E5IAkYQYDCzgiq5rC5a+8JtO86AWPGTkSRIkXM4RS9MA2B/fv3o9drr2DGVy+jVPF8pvFLxFH/wTNwX8F8WLd8KCLCcyu+acXZvJlvKmJPO2MnwkvE1iud6yvLMlMTf+rfy5SKQpn7C6Qp7LSiUe0nwm7mlN5o22k0+vZsovjgvEQzNT9VuOLTN9+vSRGX7iwB9UdieK3wB2XrjmHWa4W/iFLY+Yu0D+Nwxs4HeOxqKwIUdrZKZ0owGzb/iy69vkF09FJ7BsiodCNQr15tTJ/YBZUrFNTNpjeG0lpW6WomLDVhp87wqTNvHw1+VpnJmzzmZWX2Tj1UQeZqxu61bg3Rsv1wzP72DaWfc3uZrVMP7eygNnZVXMrsn/YQ8ae17Q0vvfrwWqEXSfvbMcu1wt+kKez8TdyL8SjsvIDGLrYkQGFnv7SePHMVxSq8gl27dtsvOEZkCIESJUogbs+XyJk9kyH2PTHq64ydP4Rd6w4j7xCKaoxWmrHjtcKTM5NthYCZrhX+ygiFnb9I+zAOhZ0P8NjVVgQo7MyXzvc++hGFCt6DF597wmPnbt4E8hTugj//XItcuXJ53J8dgpPAyZMnUeuJmji2fyLuusscDLypsdPW5KkzdqktqZQIWzd/SFmKqS6tlJ01e3R5UqnZk89feksxpY3MxMlMXs83pijLRmWZpVVq7HitMMd5bjUvzHitMJohhZ3RhHWwT2GnA0SasAUBCjvzpfHs2Uvo/b+v8dufu/DBwLZo26qG205Wrfkuhg4bhYoVK7rdhw1JQAhs2rQJQ977H9aveNcyQNxZiiniSxWJsnxSrd3buHl/yuMOxn25WKnrkyWV9WpVQM4cWbzaPMXf4Hr0nYySxSPQ6+VGHg/Na4XHyNjhNgErXit8SR6FnS/0/NSXws5PoDmM6QlQ2Jk3RfsPJuKdIT9g245D+OCdtmjZ9ME0nX3z3ZkoXqY+mjYN3Db2S5cuxYsvvpjiZ1RUFBYsWID8+fMHDPS2bdvQt29ffPvtt177ITY6deqEKVOmoEKFCobFIvwmTZqEb775BlmzZjVsHFeG586dg0P7lmPYoLZ+H5sDek5Advl8+/3vMe37NRjcv43bAs+da8W4ceOwcuXKO85FV3935b3285ctWza88MILWLt2LerWrYuEhASfPpdpjdmyZUtcvnw5pUlYWBhmz56tfH4vXryo+NGtWzfUr1/fc/Be9NBy2Lp1a6qfc61f4eHhKdctV+2PHj2KJk2aYOjQoR7F4WkOUws3mK4VFHZenPD+7uKLsJMPxPjx45EhQwZkzJhR+dmzZ0/lP33tIV8AZsyYobRRXx06dEDr1q0d2v3000+YP3++gz25IDVs2NCh3bJly7B69WqHdnXq1EGNGo538+WCKXdTtONWq1btji8jO3fuxJ49exzs3X///Sha9L/icnHgyJEjysVXG29kZCTy5XPcRe3s2bM4f/68w7hyEQ8JCXGI46as/wAgOeAReAIUdoHPQXoe7Nx9BO98MFPZal0EXsN6lVPtEnV/T8xfEI2IiIj0TBryvlwbP/3005QvTzKIHl8gDHHWQ6PBIuzi4uLwVMumiN3xuYeE2DyQBM6cuYjBH/3otsBz51qR2jmvCo/atWujRw/HDWHciV+EyCuvvKJ8hzLyZk9qvstNk5dfftnh+uSOz0a0cecGjjs3pAIp7ILpWkFhZ8SnQGebvgi7EydO4NixY7hx4wauX7+u/JQ7K85fpg4ePIgDBw4obdRXyZIlIS/tIXdi5KW1V7VqVVSpUsWh3W+//QZ5advJxbVmzZoO7RYtWoTo6GiHcZs3b46mTZs6tJs5cyZmzZrlYK99+/Zo166dQzu5ezx58mSHdnJB79q1q0O7kSNHYvTo0Q7j9u/fH/369XNoJ4+KGDJkCETgqcJY/v3WW285tPv444/x+eefOwhKsSX/KWgP+Q9CRLRWyMpdOIlFe8jd+h9//NHB3rPPPosWLVo4tBORvXjxYod2jRs3hoho7bFq1Sr88ccfDuM+/vjjEBGtPURkywVaK4wrVaqEMmXKOLT7559/IOeMtp2I7AIFCji0S0xMhJyD2nhFZOfMmdOhndypTEpKcrAnIlv6aQ8KO50vLgaa+3vLAbzzwQ84c/aiIvBq1yyXMlrMzji0fnECVq1abaAHrk27+oIhf5fPolwf5E65fBbUO+na2Tz5ovP222/j9OnTkM+HzFjJ50ud/Xv44YeVv8khd9rlcyGfZznatGmDzz77TPld9UO+dKj25W/aGTsRm3KHWw71Ln6xYsUUu3KDSm56ff311w53wNMSduqXXbmpJoe2b2r+yBda55lNtY87X/iMTrBcx+bNeBWlSwXmBoHR8dnZvjsCz91rRWoiztXsm/a8Vz8r8jf5/+WTTz7Bhx9+CHkeWseOHSGfTfncyd8nTpyYMmOnvTaon3eZtdbz86o+y1P80c7Yyd+drydqrA8++CCmTp2acq1QZ+y1n2F3qQ2fKQAAIABJREFUrk+pzdjlyJEDS5YsSblWqTOa8h3G1Yydeg2U642MGxsbmzJj5+q6In3U94S9fMbPnTvncE1N7fqV3mclWK4VFHbpnQkmeN8XYWcC923jgiqMVTGjDezChQvKhUcrZGUziNy5bz3TSD1E6Mh/FFoBXbBgQRQqVMihncxOyktrr2zZsncIrA0bNkBe2nZy8axevbqDPVmiIuJOO26DBg1Qr149h3Zz5szBvHnzHOzJrK18udUe8qVVxKd23M6dOyv/+WgP+U9O/jPUjtu7d29l1lh7DBs2DMOHD3ewN3DgQIjY1h7yWZC6kgwZ7kLGjBmQ4a67MPDNVujTo4lDu0/HLsD4r5YobdRXr+6N8FIHR8H71bQVmP7Dr7cF5S17nZ6vdUed2KzZf2Luwo3/jZshA1o1ewiNGzje0Ihethkr1sTcGlOZJc+A+rUr4LFHSjv498e63fhr0z//jZvhLjxcrSQqV3R8flvMzljs2hPnMK48z6p40XAHe/8eOoYj8af+izdDBhQskBf33uMooE+dvgCpiUvhl+EupT4na9ZQB3vXr99QcnHrXM/g02d47V97lRk8uTkyZMAzqFH9fgwfsxz7D98VsGdsypeGAQMGpLns0ln8yZcpWRGgijjt3XStkFJFl4g59QuZAHTup7ZTl1fJZ2Xv3r2Qz5Eq7OQmmtZP5y96MoYqErVJSkvYuYojLX+0yzq1s5oiZgO5FFNilptvpQpnRN+etX06T9k5cATSEnieXCucZ9zVz5R8RtTPjvyunQ2TqOX/twkTJig3R7SCRt5Tb/TI7+rnUvt3EU5iW26Cyw6Men5e1Rsn4ptcb+RaIYf6mZPf5f/SPn36KH+XOGSpo8SoZSHPdVNjlFVT6s2mtK5P2njlOiQ3rSQ2uVGemuB0JezkBpj2uil25MaQtHd1XUnNX/UaKvbkcM6jO0vOg+VaQWEXuGuZ2yNT2LmNig1tTkA+CxcTpuPGjZtQxUdo6N0IC7vbIXL5onDy9Hmljfq6J18O5L/XcedF2Zzg31iZ0b5t7+ZNFCucH0WLONZYbd8Ri+07Y28LTxE9N1G5QhFUqlDYYVwRMX+u33NrTGWW/AYef6Q0Hq/hOOO5ePkWLF0pM99qHDfR5MkqdyxbFEH505z1uHHzli1p/2ybR/HMU484jDv5m5X4esZqh3i7d6p3h5AdNW4Bxnyx2IHfG681Q+9XGjvYk50uh474JaWdcB/6blv873VHgS9tRo1b6CCg3+rdHD27Pulgb/T4hRgzaTGuXbuuCOff1/2Lzl1fv2MG31+nr/NMk/buu/ggXzzk0H5Jc76DrX3P+Qul8xcydSmYdkZQ+8VJu8wrrSVN6hdV9QuZqyVmroSdc62Odpbjsccec6u2T8vODMJOlvxP/Wo0ls52XG3hr3OJ4+hHwFngvfJSfTRqM8rta0VqM3QihmRzJm1tl3NtmFZguCPsXNWQOZPw9fOanrDT1rU6f+a11xq5oay9AaPe2JJVULKyKL3rk/MNJpXRF198ofR3NWOnFaQimtOqFUzruqK+N2LECDz99NMpM36e1h4Gy7WCwk6/a5JhlijsDENLwxYjwKWYgUmYq1rTpKSruHjpioOgzJ4tDDlzZrlD2I0YMx+PVr8fg/q3Qdc+0zHrxwWBCeb2Mp/UZuy0XxTEOe3GKvJvdSmk8xcl7fIrNShZWql+cVJn5Zy/bKXmQ1rLx8S2LOV0XprlDNKVsEttCaqr2QatTe3SL/m7upTLDMJO/Kn+UFXEHk5IcXnw/9oo55l6yI2KwcNuLYWVg++bm0/vlxtjzR878MhDpbB153G3rxXa81t7Y0Z+F2Enq2W0h3z+nG9ouCPsZK+B1DZqcV7m7OvnVb1h5CyQtNcbdRbN+YaQ9lojZTFaf1MTZiK8XN14chay7gq79ISYq+uK3FjT+uss7FLLo7s1lE+3aYLfFjmuBArYf0QGDUxhZxBYPc1S2OlJk7asTIDCzlrZmzB5KYZ88jMa1quEd/q1QpHC9yoB1G85Ah1f6o0nnvD82Xd6EHBVY+cs7FwtM3Se8dMu+dL653xH2dMZO+cvkM4zAK52ydNzxs552Spn7PQ4A2kjNQKyTFw2VZn63Spl18xXXmqAJs+M9uhaoS4TFPuyPFK+8DvXzmrHdhZE7gg7VzN2rpaCensjxlWNnep/ejOP6kxkejN2qd14kjFcLQl3nvHzZsZOK7zVOl71eut8w0gr7GS/BLUG2tNPEWfsPCVmXPu7bqq3i40bw9SWKexMnR4650cCFHZ+hO3DULLk84PhvyhLRqUGMiLcsdZ0xJgV2Bd7E4MHD/ZhFN+6utoVUzYqkTvGzsu3pL38XR6HkNodbO1yLrWOzflOu/YLpnyZ0S4PU78Uvvnmm3jnnXeUGlatsJM6Xmn/yCOPeD1jJ8Rc1di58kdmLd9//30lbnWzBLGj1gyaosauyF3o26OubycEeweMgLOg0y4N9/Raod10Q31cgHrey0+pzVKXXsvnU1sbJp8Bd4SdfI6dP++qkFRnmnz9vGrrALX1r/v27VNqcSUOEXbONXavv/66ImY9qbFzR9iptXEys+dJjZ129k3dYMp5qbvzdUVlJ9ditSZQveZoa+y0eXTnMRBKjV0QXCs4YxewS5n7A1PYuc+KLe1NgMLO3Pn9aNQcfDD8Z3R9sS7eeaMV8uTOlqrDO3bF4akXxmP16jUBDci5ts75OXba97XPlUptN0jtDm+qHe2ucc5LnVztuqndFVPgqEvIxOarr76KuXPnKhs9qJsppPaFxjkuseO8o2Zqu8pp+/1fe/cDXWV933H86zwUEoPNaUC5CQtGqBl/wpDQmbVnxCSK0iaxTNtxjlaQoKUlm3M5HVmdMthqoZWz0xloq0QH7rTMcYYm0aicoIl2jQ7EhZCCThhoSAbyx5omIFN2fg88l5tL/tyb58/v99z7vufkJITn+f15fR+e48ff8yd6Dmp71Yb6j6Onn37aCp6x3mvkZZHPP+luuUzNzfKyG9r2QGCoQGd3F++5wl6Nz87O7vdOu+jLJAe7hDGWYBf9pFj70mQ7kNhPuXXj32v0e+zsoGP/+42eh3pypfq76HPZUE/FjCXYqf+BYz8VM/qpmvE8FVO1oZ5mHjmP6PNKtK8Kkvv27ZOamhrrsLDfLah+tucfy+GZLOcKgl0sR4PmbQh2mgtA98YIEOyMKUV4IOrpmepyS/WlHsTyt9/700uesjnQqCdOrZTn6l4Q9Z5JPgiMREA9be+O22+TQ+3nXx/BJxgCsQS6yJlwrhi+rkM9dGn4vRN/i2Q6VxDsAnA8E+wCUCSG6IsAwc4X5rg6uf1b6yRvWrZ1yWU8r0aoXvmvkvMHN0t5eXlc/bExAraAutSu88Cr8oOHLz4oBR1zBfr6PpHvr/5l+B666KfxDjZyzhXD15RgN7RRMp0rCHbD/3vRvkVOTo71Mmg+CCS7AMEusY6ALxWvlr9btUZmz+7/PsDEmiWz8ULgzTfflDU/XCm/fvlBL5qnTQ8EvvtXG+W6KaFLXq8SS1ecK2JRYpuBBJLtXEGwM/zfQVFRkdx2222iXhytnujDB4FkFiDYJVb1z50TuWryMnnl1WbJyMhIrMkxG88E1H1U82+dJ0f2r5fLLvOsGxo2SIBzhUHFCNBQkvFcQbAz+ABdtWqVqAeCqifHRf5s8JAZGgKeChDsPOXV0vhHvz0rE6feJ++8866W/uk0eAKTJ18rxw48JVekXh68wTPiEQtwrhgxXdLumIznCoKdoYd7c3Oz9fSxyFU6tXqnfqfr3U+GUjGsJBIg2CVmsXe3fSDfWva4bN++IzEnyKxcEyguKpRn/nm55E3joTuuoQaoIc4VASqW5qEm67mCYKf5wBus+8EemMKDVAwtGMPyRYBg5wuzlk7ePfChfGPxBnnssQ0yZcoULWOgU3MF1Lu77r+/UrZu+q5MyRln7kAZmecCnCs8Jw50B8l+riDYGXj4DrUyN9BKnoFTYEgIeCJAsPOE1ZhGf7O/U75+50+krPx2qaqqMmZcDESvwKOP/lheeP5ZqfvlA/LFyRP0DobejRDgXGFEGYwbBOcKEYKdYYdlLPfSxbKNYdNiOAi4IkCwc4XR+EYe+kG9PLPt1/LTn/1cpk6davx4GaA3Au3t7fKd7yyTO7/xFVn1N2XedEKrgRbgXBHo8rk2eM4VFykJdq4dVs4bimc1jvvtnHvTQvAECHbBq9lIR9yxv1u+ufifpOSmr0p1dfVIm2G/gAo88sgj0vLqdnlm019I7pTxAZ0Fw/ZDgHOFH8rm9sG5on9tCHYGHavx3j8X7/YGTZWhIDAiAYLdiNgCvdM/PFovv9jaKg888D0pLS0N9FwY/PAC9fX18uMf/VDuubNQvl/1teF3YAsELghwrkiuQ4FzxcD1JtgZ8u9gJCtw8azwGTJNhoGAIwGCnSO+wO783sFu+euV/ya/at0nS5YslSVLlsgVV1wR2Pkw8P4CPT09UltbK089WSt/8uVp8ujff1OumXQVTAjELcC5Im6yQO3AuWL4chHshjfyfAsn98w52dfzidEBAi4LEOxcBg1Yc13dJ+UnP2uS9Y83SGlZmdxzzxLJy8sL2CwYri3Q1tYmTz5ZK40vvCCV3y6T+5cVy9VXpQOEgGMBzhWOCY1qgHNF7OUg2MVu5cmWbqy6jWS1z5PJ0CgCHgsQ7DwGDlDztU+/Jo/9/GUZnTLWWsUrLy8P0OiTe6jPPvusPPVUrfzfJ73y59+eJ/fc+ZXkBmH2ngpwrvCU19PGOVfEz0uwi9/M1T3cuk/OrXZcnRyNIeCyAMHOZdAEaO5XrfvlH3/aJC2v75ElFUuloKBAbrjhhgSYWWJNobW1Vd544w3ZuPFxKS6cJX+5rES+fMN1iTVJZmO0AOcKo8sTHhznCmd1Itg583O0t5srbW6s/DmaDDsj4IMAwc4H5IB2cfTYR/Ivz/yH/Hv9W/J227tSXFwsxcUlUlJSIuPG8UJrv8t67NgxaWpqkh07dsiOHU0ye1au3F6WL3f92R/LuIwr/R4O/SEQFuBcYdbBwLnC3XoQ7Nz1jLk1L+6N86LNmCfEhgj4IECw8wE5Abro6Tktz29vk4aX9spL29+UUGaWFfBU2MvPz0+AGZo5hZ07d1pBTgW6/+0+Irfc/EdSessMKZ03U1JTR5s5aEaV1AKcK/SUn3OFd+4EO+9sB23Zy9U1N1cBNdDQJQJDChDsOEBGIrBr90Gpf2mvNG5/S9757/etgHfrrfNl8uTJvAB9JKAX9uno6JD33ntPXnzxRWtVLve6SfLVm6+XsltmyOxZ1zhomV0R0CPAucIbd84V3rgO1CrBzj/rcE9e3w/ndfsayOgSAUuAYMeB4FTg5Mkeef7lt2X3nm55qekt+c2+AzJ9+nTra8aMGeGf09LSnHaVMPurR4zv3btX2tvb+32fPm2KzCueJbNnZsrX5s2S9HReQZEwRWciwrki/oOAc0X8Zm7vQbBzW3SY9vxYUfNyRdBnLrpDoJ8AwY4Dwm2Bzz77TN5u+x/ZvecDeavtfXl7zyHZs+ddyRg3TqZPvxj0VPDLzMx0u3vj2uvs7LTC28Wvdjlx/Ljk5X1Rrp+ZI7NnZsn1eb8vs2ZeY/2PFj4IJIsA54r+leZcYeaRT7DzsS5+3gPnZ18+EtJVkgsQ7JL8APBx+upFx+cD3/uyu+2w/NeeA5Ke/nk5e/ZTmTBhgoRCIbl6QpZMmBCyfra/xo8f7+Mo4+vq6NGj0t3dLV1dXdZXd3eXdHd1Wt/Vn1PGfE5OnDwlf5h3rVw/M/t8gMu7Rq7NuTq+jtgagSQS4FzBucKkw51g51M1dKyi+bE66BMf3SBgCRDsOBB0CqgHLXxw5Lh0Hjlx/nvXCek88pG833nC+ln97vjxjyQUGi+ZoZAVACeEsiQjY7yMGjVKxowZE/5KSUkJ/zx69Oh+fxe53enTp2WwrzNnzlh/19fX12+bs2fPyocfHrUeYGKFOCvMHZNx4z4vWaEMmZiZIVmZ6TLR+sqQrNAXZGLW+e9paWN0EtM3AgkhwLkiIcoYyEkQ7Hwqm1pBW7lypU+9XexGV7++T5QOk0KAYJcUZQ70JD/99LOLwe9CADz129/J73rOSu/ps9LX94n0RX0/feaTC79X31VYOyN9p8/Il/JnyH/uapeUMSr4jZaUlNHWqlpKyues72PUz2NGXfjz+e+pY0bJlWNHy5VXpvYLbFmZX5DLL/+9QNsyeAQSSYBzRSJV05y5EOzMqQUjQQCBYQQIdhwiCCCAAAIIIIDAwAIEO44MBBAIjADBLjClYqAIIIAAAggg4LMAwc5ncLpDAIGRCxDsRm7HnggggAACCCCQ2AIEu8SuL7NDIKEECHYJVU4mgwACCCCAAAIuChDsXMSkKQQQ8FaAYOetL60jgAACCCCAQHAFCHbBrR0jRyDpBAh2SVdyJowAAggggAACMQoQ7GKEYjMEENAvQLDTXwNGgAACCCCAAAJmChDszKwLo0IAgQEECHYcFggggAACCCCAwMACBDsPjoyenh4pLS2V5ubmcOtr1qyRFStWeNDbpU3u2rVLKioqpLGxUUKhkC990gkCfggQ7PxQpg8EEEAAAQQQCKIAwc7lqnV1dUlBQYHceOONsmnTJqt1+3c1NTVSVlbmco8EO89B6cAYAYKdMaVgIAgggAACCCBgmADBzuWCrF271lopa2hokLS0tHDr6vcdHR3hsFdfXy/l5eXW3xcWFlrbq49a6Tt58qS0tbVJXV2dFBUV9Vv9U79T4dBelUtPTw+vDKq/mzNnjhUsDx8+LNnZ2dLa2ipHjhyRuXPnSm9vb/h3rOS5XHia80WAYOcLM50ggAACCCCAQAAFCHYuFs2+BHP+/PlDXnapQtmCBQtk27ZtkpubawW3SZMmyfr168M/26t9ixYtskao/qzC4MKFC6WlpcX6nQprDz/8sNWX2u7QoUNWQNy/f3/4Uky1nQp69mph5HaRwdNFBppCwDMBgp1ntDSMAAIIIIAAAgEXINi5WEA72FVVVYUvuVRBavPmzVYv9sqcCnCRq3oqsK1bt062bNliBTc7GEZfwhnZfmZmZjgc5ufnW6FPtREd7Hbu3CmVlZXWyp1apeP+OxcLTlO+CxDsfCenQwQQQAABBBAIiADBzsVCDbViFxm8VLCrrq7u17O6bLKpqUmWLl0qdjC0g526rDLyox7EctNNN/V7QMpQwc6+5NNuIzU11Vr1U4GQDwJBEiDYBalajBUBBBBAAAEE/BQg2LmsPdg9dtHBLvJ+O3sI0St+Ktip1bva2tpLQlj0yttQwc5eyePSS5eLTXO+CxDsfCenQwQQQAABBBAIiADBzuVCDfVUzJycnPClkvY9dmrVzL7vzb4UM/pSTjVEdY+dCnPqvjq1nboUM/KVBoMFO7Vv5D12Knhu2LAhfGmmy9OnOQQ8FSDYecpL4wgggAACCCAQYAGCnUfFi7y3TnUR/R67yKdi2k+vHDt2rPXwlMhgF/1OPLudoVbsPv74YyvMqU/0UzG5DNOjgtOsLwIEO1+Y6QQBBBBAAAEEAihAsAtg0RgyAskqQLBL1sozbwQQQAABBBAYToBgN5wQf48AAsYIEOyMKQUDQQABBBBAAAHDBAh2hhWE4SCAwOACBDuODgQQQAABBBBAYGABgh1HBgIIBEaAYBeYUjFQBBBAAAEEEPBZgGDnMzjdIYDAyAUIdiO3Y08EEEAAAQQQSGwBgp2h9bVfm1BTUyNlZWWGjpJhIeCvAMHOX296QwABBBBAAIHgCBDsDK0Vwc7QwjAsrQIEO638dI4AAggggAACBgsQ7AwqTuQ76woLC+XgwYNir9jZLyfv7e0V+713oVDIoNEzFAS8FyDYeW9MDwgggAACCCAQTAGCnUF1Uy81P3TokDQ0NMgrr7wi5eXlUldXJ3PmzLFeOG6HvMjt0tLSDJoBQ0HAWwGCnbe+tI4AAggggAACwRUg2BlSO3u1rqqqyrqnLvLPaoiVlZXS2toqapVOrd5VVFRIY2Oj9Wc+CCSLAMEuWSrNPBFAAAEEEEAgXgGCXbxiHm0ffU9ddLBTq3eRn9TUVGlpaZH8/HyPRkSzCJgnQLAzryaMCAEEEEAAAQTMECDYmVGHfit0A63YrVu3zrpEk0svDSkYw9AiQLDTwk6nCCCAAAIIIBAAAYKdQUVau3atdXnlcPfYqe02bNgQvjTToCkwFAQ8FSDYecpL4wgggAACCCAQYAGCnUHFi34qZnp6unUvnVrBi3wqJpdhGlQ0huKrAMHOV246QwABBBBAAIEACRDsAlQshopAsgsQ7JL9CGD+CCCAAAIIIDCYAMGOYwMBBAIjQLALTKkYKAIIIIAAAgj4LECw8xmc7hBAYOQCBLuR27EnAggggAACCCS2AMEusevL7BBIKAGCXUKVk8kggAACCCCAgIsCBDsXMWkKAQS8FSDYeetL6wgggAACCCAQXAGCnaG1U0/BXLBggWzbto2XkBtaI4blvwDBzn9zekQAAQQQQACBYAgQ7FyoU1dXlxQUFEhNTY31agI3PosWLZI77rhjyPbUNtOmTZMVK1ZIfX298BJzN+Rpw2QBgp3J1WFsCCCAAAIIIKBTgGDngr4XwS6WYUUGu1i2ZxsEgi5AsAt6BRk/AggggAACCHglQLBzQXa4YKdW08rLy62eCgsLpaGhQdLS0sTe7/Dhw9bvT506JbW1tZKbmyt33XWXPPTQQ9ZlmJH7Z2dnS2trq2zevFmqq6utNtesWWOt3EWu2KnQp7ZRn7q6OmvlL7I/9fu7775bNm3a5IIATSDgjwDBzh9nekEAAQQQQACB4AkQ7Fyo2VDBTt0rN3fuXNmyZYsUFRVJaWmpTJo0yQpUKnypj/p57dq1snr1amlpaekX7DIzM2X+/PlW4FMhT22nPuryy8EuxVy/fr10dHRY7ar+KyoqZOvWrbJ06VKrLbUv9/C5UHia8F2AYOc7OR0igAACCCCAQEAECHYuFGqoYBd975v6c2VlpTz33HOyePHicGBTbdgBLnLFLjrYRQ53oGCnAuTChQulqqpqyPvzIvtTgZEPAkEQINgFoUqMEQEEEEAAAQR0CBDsXFAfKtipFbbGxsbw5Zf2Cpr6/b333ht+6uVgwU6FLnvVr7e3t9+lnAMFu40bN0pJScmAD3KJvKRTTTs1NdVaISTYuXAQ0IQvAgQ7X5jpBAEEEEAAAQQCKECwc6FoXq7YRYcuFQjtyyzjWbGLHiMrdi4UniZ8FyDY+U5OhwgggAACCCAQEAGCnQuF8vIeOzU8dY+cWvULhUIx3WO3fPlya1b2PXbqfXhPPPGE3HfffeGVvMh7+lixc+EgoAlfBAh2vjDTCQIIIIAAAggEUIBg50LRop82aTdpP40ylqdiqvvuXnvttQGfiqlCmP0EzMinatq/j34qpupfPaSlubnZGoo9jsh2HnzwQXn99deHvRfPBR6aQMA1AYKda5Q0hAACCCCAAAIJJkCwM6Sg9kNV1KsM1MocHwQQuFSAYMdRgQACCCCAAAIIDCxAsNN0ZPT09PRbVeNBJpoKQbeBEiDYBapcDBYBBBBAAAEEfBQg2PmITVcIIOBMgGDnzI+9EUAAAQQQQCBxBQh2iVtbZoZAwgkQ7BKupEwIAQQQQAABBFwSINi5BEkzCCDgvQDBzntjekAAAQQQQACBYAoQ7IJZN0aNQFIKEOySsuxMGgEEEEAAAQRiECDYxYDEJgggYIYAwc6MOjAKBBBAAAEEEDBPgGBnXk0YEQIIDCJAsOPQQAABBBBAAAEEBhYg2HFkIIBAYARUsOODAAIIIIAAAgggMLDAuXPnjKa57JzpIzSaj8EhgAACCCCAAAIIIIAAAvoFCHb6a8AIEEAAAQQQQAABBBBAAAFHAgQ7R3zsjAACCCCAAAIIIIAAAgjoFyDY6a8BI0AAAQQQQAABBBBAAAEEHAkQ7BzxsTMCCCCAAAIIIIAAAgggoF+AYKe/BowAAQQQQAABBBBAAAEEEHAkQLBzxMfOCCCAAAIIIIAAAggggIB+AYKd/howAgQQQAABBBBAAAEEEEDAkQDBzhEfOyOAAAIIIIAAAggggAAC+gUIdvprwAgQQAABBBBAAAEEEEAAAUcCBDtHfOyMAAIIIIAAAggggAACCOgXINjprwEjQAABBBBAAAEEEEAAAQQcCRDsHPGxMwIIIIAAAggggAACCCCgX4Bgp78GjAABBBBAAAEEEEAAAQQQcCRAsHPEx84IIIAAAggggAACCCCAgH4Bgp3+GjACBBBAAAEEEEAAAQQQQMCRAMHOER87I4AAAggggAACCCCAAAL6BQh2+mvACBBAAAEEEEAAAQQQQAABRwIEO0d87IwAAggggAACCCCAAAII6Bcg2OmvASNAAAEEEEAAAQQQQAABBBwJEOwc8bEzAggggAACCCCAAAIIIKBfgGCnvwaMAAEEEEAAAQQQQAABBBBwJECwc8THzggggAACCCCAAAIIIICAfgGCnf4aMAIEEEAAAQQQQAABBBBAwJEAwc4RHzsjgAACCCCAAAIIIIAAAvoFCHb6a8AIEEAAAQQQQAABBBBAAAFHAgQ7R3zsjAACCCCAAAIIIIAAAgjoFyDY6a8BI0AAAQQQQAABBBBAAAEEHAkQ7BzxsTMCCCCAAAIIIIAAAgggoF+AYKe/BowAAQQQQAABBBBAAAEEEHAkQLBzxMfOCCCAAAIIIIAAAggggIB+AYKd/howAgQQQAABBBBAAAEEEEDAkQDBzhEfOyOAAAIIIIAAAggggAAC+gUIdvprwAgQQAABBBBAAAEEEEAAAUcCBDtHfOyMAAIIIIAAAggggAACCOgXINjprwEjQAABBBBAAAEEEEAAAQQcCRDsHPGxMwIIIIAAAggggAACCCCgX4Bgp7/xWwmvAAAARElEQVQGjAABBBBAAAEEEEAAAQQQcCRAsHPEx84IIIAAAggggAACCCCAgH4Bgp3+GjACBBBAAAEEEEAAAQQQQMCRwP8DqI0F/LMIcq4AAAAASUVORK5CYII=;" vertex="1" parent="1">
          <mxGeometry width="886" height="763" as="geometry" />
        </mxCell>
      </root>
    </mxGraphModel>
  </diagram>
</mxfile>
